<?xml version="1.0" encoding="UTF-8" standalone="no"?>
<svg
   xmlns:dc="http://purl.org/dc/elements/1.1/"
   xmlns:cc="http://creativecommons.org/ns#"
   xmlns:rdf="http://www.w3.org/1999/02/22-rdf-syntax-ns#"
   xmlns:svg="http://www.w3.org/2000/svg"
   xmlns="http://www.w3.org/2000/svg"
   xmlns:sodipodi="http://sodipodi.sourceforge.net/DTD/sodipodi-0.dtd"
   xmlns:inkscape="http://www.inkscape.org/namespaces/inkscape"
   version="1.1"
   id="Layer_1"
   x="0px"
   y="0px"
   viewBox="0 0 1200 1199"
   style="enable-background:new 0 0 1200 1199;"
   xml:space="preserve"
   sodipodi:docname="giraffe_pattern_color_00ecb9.svg"
   inkscape:version="1.0.2 (e86c870879, 2021-01-15)"><metadata
   id="metadata459"><rdf:RDF><cc:Work
       rdf:about=""><dc:format>image/svg+xml</dc:format><dc:type
         rdf:resource="http://purl.org/dc/dcmitype/StillImage" /><dc:title></dc:title></cc:Work></rdf:RDF></metadata><defs
   id="defs457">

</defs><sodipodi:namedview
   pagecolor="#ffffff"
   bordercolor="#666666"
   borderopacity="1"
   objecttolerance="10"
   gridtolerance="10"
   guidetolerance="10"
   inkscape:pageopacity="0"
   inkscape:pageshadow="2"
   inkscape:window-width="1868"
   inkscape:window-height="1044"
   id="namedview455"
   showgrid="false"
   inkscape:zoom="0.59633028"
   inkscape:cx="600"
   inkscape:cy="599.5"
   inkscape:window-x="52"
   inkscape:window-y="0"
   inkscape:window-maximized="1"
   inkscape:current-layer="Layer_1" />
<style
   type="text/css"
   id="style2">
	.st0{fill:#00ECB9;opacity:0.05;}
	.st1{opacity:0.36;}
</style>
<g
   id="g196"
   transform="translate(0.01,0.51)">
	<path
   class="st0"
   d="m 849.41,436.03 c -1.37,1.42 -3.71,0.76 -5.56,0.1 -7.74,-2.73 -16.13,-3.58 -24.26,-2.45 -1.13,13.92 -9.79,28.16 -4.24,40.98 2.57,5.93 7.96,10.56 9.37,16.87 2.08,9.27 -4.4,21.17 2.81,27.35 1.99,1.71 4.62,2.43 7.01,3.52 20.29,9.28 19.84,42.36 40.12,51.64 2.55,1.17 5.47,1.87 8.16,1.07 3.79,-1.12 6.12,-4.8 8.23,-8.14 5.04,-7.97 11.12,-15.82 19.68,-19.78 9.95,-4.59 22.01,-3.33 31.54,-8.74 10.35,-5.88 15.11,-18.01 22.78,-27.11 4.41,-5.24 10.04,-9.8 12.31,-16.26 2.95,-8.43 -0.59,-17.91 1.46,-26.6 2.45,-10.38 12.25,-17.49 16.05,-27.46 3.17,-8.31 1.81,-17.57 0.26,-26.32 -1.11,-6.25 -2.55,-12.94 -7.23,-17.22 -5.71,-5.24 -14.57,-5.23 -22.01,-3.05 -7.43,2.19 -14.26,6.19 -21.77,8.1 1.06,-8.83 6.66,-16.98 14.52,-21.14 4.88,-2.59 10.51,-3.69 15.09,-6.78 4.58,-3.09 7.86,-9.41 5.02,-14.14 -3.01,-5.02 -11.42,-6.03 -12.37,-11.81 -0.59,-3.62 2.29,-6.75 3.97,-10.01 3.64,-7.08 1.67,-15.62 -0.37,-23.32 -3.59,-13.52 -7.19,-27.05 -10.78,-40.57 -0.75,-2.84 -1.58,-5.81 -3.64,-7.91 -2.34,-2.38 -5.82,-3.17 -9.09,-3.85 -16.39,-3.41 -32.78,-6.82 -49.25,-9.78 -17.49,-3.14 -47.67,-9.48 -63.66,1.81 -6.95,4.91 -6.47,21.7 -7.7,30.14 -1.8,12.32 -3.31,24.68 -4.51,37.07 -0.47,4.81 -0.86,9.8 0.76,14.35 1.01,2.82 2.77,5.37 3.41,8.3 1.17,5.34 -1.56,10.69 -2.26,16.11 -0.48,3.74 0.01,7.54 0.51,11.28 1.38,10.36 2.75,20.71 4.13,31.07 0.24,1.83 0.52,3.74 1.62,5.22 1.82,2.46 5.22,2.93 8.12,3.92 8.45,2.89 14.12,12.29 12.75,21.11 -0.14,0.87 -0.37,1.79 -0.98,2.43 z"
   id="path4" />
	<path
   class="st0"
   d="m 807.11,579.95 c -6.47,7.93 -12.94,15.85 -19.42,23.78 -4.07,4.98 -8.29,10.3 -9.24,16.66 -1.09,7.27 2.04,14.38 1.63,21.66 -0.23,4.13 -2.67,8.67 -2.29,12.76 0.97,10.58 16.29,20.1 24.09,25.93 0.82,0.61 1.69,1.24 2.71,1.35 0.99,0.12 1.97,-0.27 2.89,-0.65 24.47,-10.06 50.35,-21.55 64.56,-43.87 1.01,-1.59 1.99,-3.34 1.87,-5.22 -0.19,-3.04 -3.19,-5.18 -6.15,-5.91 -2.96,-0.73 -6.08,-0.5 -9.04,-1.23 -9.52,-2.33 -13.91,-12.94 -18.32,-21.69 -4.78,-9.49 -11.15,-18.18 -18.76,-25.59 -1.64,-1.6 -3.5,-3.21 -5.78,-3.46 -3.57,-0.38 -6.47,2.69 -8.75,5.48 z"
   id="path6" />
	<path
   class="st0"
   d="m 787.35,525.97 c 1.92,-1.88 3.82,-3.92 4.75,-6.45 1,-2.71 0.78,-5.7 0.51,-8.57 -1.14,-12.06 -3.03,-24.05 -5.65,-35.88 -1.21,-5.45 -7.45,-8.07 -12.18,-5.1 -15.61,9.8 -33.27,16.32 -51.51,18.96 -15.54,2.25 -33.67,2.85 -43.06,15.45 -8.48,11.38 -5.58,27.45 -0.78,40.8 2.78,7.73 6.12,15.37 7.86,23.43 1.22,5.61 -0.01,13.37 2.3,18.63 4.99,11.37 28.79,14.11 39.57,16.12 1.85,0.35 3.82,0.65 5.58,-0.02 2.83,-1.09 4.14,-4.25 5.39,-7.01 4.24,-9.45 11.09,-17.71 19.58,-23.64 4.57,-3.19 9.9,-6.06 12.08,-11.19 2.2,-5.18 0.5,-11.2 1.62,-16.72 1.55,-7.78 8.27,-13.25 13.94,-18.81 z"
   id="path8" />
	<path
   class="st0"
   d="m 596.15,608.07 c 1.74,8.51 4.42,14.48 12.97,18.57 2.63,1.26 5.75,2.07 8.44,0.95 1.86,-0.77 3.25,-2.34 4.85,-3.57 4.19,-3.21 9.89,-4.08 13.78,-7.64 4.24,-3.88 5.89,-10.55 11.14,-12.88 5.64,-2.51 14.54,0.28 16.19,-6.39 0.2,-0.82 0.21,-1.68 0.13,-2.53 -1.19,-11.89 -3.55,-23.66 -7.03,-35.09 -1.59,-5.2 -3.42,-10.41 -3.72,-15.83 -0.29,-5.2 0.85,-10.36 1.71,-15.5 1.78,-10.7 4.71,-16.7 4.98,-25.63 0.05,-1.86 -1.92,-2.99 -3.56,-2.12 -2.08,1.12 -4.92,1.59 -7.87,3.08 -1.75,0.88 -3.74,1.18 -5.59,1.84 -7.27,2.58 -11.36,10.02 -15.88,16.26 -9.26,12.77 -22.36,22.11 -34.75,31.87 -3.72,2.93 -7.6,6.22 -8.9,10.78 -1.17,4.12 0.01,8.51 1.32,12.59 3.37,10.47 9.6,20.52 11.79,31.24 z"
   id="path10" />
	<path
   class="st0"
   d="m 579.63,377.95 c -4.3,-2.53 -7.35,-6.5 -10.14,-10.84 -3.94,-6.12 -7.35,-12.97 -13.03,-17.49 -5.75,-4.58 -13.11,-7.64 -20.41,-6.69 -9.57,1.25 -16.85,7.78 -25.62,10.98 -8.83,3.23 -18.55,2.86 -26.91,7.87 -7.53,4.52 -10.61,13.84 -11.94,22.53 -1.33,8.69 -1.59,17.84 -5.81,25.55 -3.78,6.92 -10.49,12.14 -13.16,19.56 -2.1,5.84 -1.08,11.82 -1.89,17.81 -0.9,6.62 -4.69,12.02 2.06,16.13 5.97,3.64 14.37,2.4 20.39,-0.36 8.76,-4.03 15.92,-11.02 24.73,-14.95 15.6,-6.97 34.85,-3.73 49.26,-12.91 6.65,-4.24 11.69,-10.84 18.82,-14.22 9.54,-4.52 22.36,-5.69 27.6,-16.06 2.69,-5.32 2.74,-12.1 -0.59,-17.04 -3.13,-4.63 -8.54,-7.04 -13.36,-9.87 z"
   id="path12" />
	<path
   class="st0"
   d="m 597.14,524.67 c 3.17,-3.85 5.19,-8.51 8.08,-12.58 4.39,-6.16 5.85,-12.58 10.99,-17.27 1.17,-1.07 2.65,-1.68 4.18,-2.08 2.45,-0.64 4.5,-2.77 5.45,-5.19 1.17,-2.98 1,-6.3 0.63,-9.47 -1.64,-14.07 -7,-27.69 -15.39,-39.11 -4.28,-5.82 -10.27,-11.5 -17.49,-11.28 -5.83,0.18 -10.75,4.15 -15.19,7.93 -5.56,4.73 -11.12,9.46 -16.68,14.2 -4.77,4.06 -9.69,8.21 -15.62,10.21 -5.56,1.88 -11.58,1.72 -17.45,1.66 -10.12,-0.11 -20.36,0.14 -30.14,2.72 -9.78,2.58 -19.18,7.72 -25.23,15.83 -7.28,9.78 -8.92,22.68 -8.32,34.86 0.53,10.73 2.59,21.35 3.16,32.07 0.15,2.81 1.52,5.41 3.78,7.07 14.18,10.42 31.4,20.22 48.34,17.5 9.5,-1.53 17.88,-6.88 25.96,-12.11 12.79,-8.29 25.58,-16.57 38.38,-24.86 4.53,-2.94 9.13,-5.94 12.56,-10.1 z"
   id="path14" />
	<path
   class="st0"
   d="m 796.33,287.82 c 2.37,-9.89 7.52,-24.56 5.12,-34.6 -1.69,-7.09 -7.51,-13.23 -10.68,-19.83 -4.83,-10.08 -9.63,-20.17 -14.45,-30.25 -3.72,-7.78 -7.45,-15.59 -12.16,-22.82 -1.25,-1.92 -2.63,-3.86 -4.61,-5.01 -2.49,-1.46 -5.54,-1.46 -8.43,-1.42 -7.44,0.1 -15.1,0.23 -21.98,3.06 -6.1,2.52 -8.86,7.99 -11.74,13.51 -3.17,6.08 -7.05,15.78 -11.93,5.95 -4.72,-9.51 -4.95,-20.26 -12.62,-28.45 -1.06,-1.13 -2.23,-2.21 -3.64,-2.85 -0.9,-0.41 -1.86,-0.62 -2.84,-0.74 -0.85,-0.1 -1.72,-0.13 -2.58,-0.14 -6.9,-0.09 -13.81,0.66 -20.53,2.23 -3.23,0.75 -6.53,1.75 -9.01,3.95 -7.02,6.19 -8.3,18.3 -11.83,26.53 -4.73,11.04 -10.38,21.81 -17.91,31.21 -15.07,20.86 -13.91,45.2 -20.86,68.38 -2.32,8.11 -8.11,15.07 -11.59,22.02 -1.16,3.48 -2.32,8.11 -1.16,11.59 6.95,9.27 19.7,10.43 22.02,23.18 1.16,5.79 1.16,10.43 2.32,16.23 1.16,3.48 2.32,5.79 4.64,8.11 12.75,12.75 16.22,27.81 22.02,44.04 3.48,8.11 12.75,11.59 19.7,17.38 1.16,1.16 1.16,2.32 2.32,3.48 3.48,9.27 1.16,20.86 10.43,26.66 3.48,2.32 6.95,1.16 11.59,0 11.59,-3.48 20.86,-11.59 33.61,-12.75 5.79,-1.16 9.27,2.32 15.07,1.16 9.27,-1.16 15.07,-9.27 23.18,-13.91 2.32,-1.16 4.64,-2.32 6.95,-2.32 11.59,5.79 23.18,3.48 27.81,-9.27 2.32,-8.11 4.64,-17.38 4.64,-25.5 -1.16,-12.75 -9.27,-23.18 -11.59,-35.93 0,-2.32 -2.32,-5.79 2.32,-8.11 2.32,-1.16 4.64,-1.16 5.79,-2.32 10.43,-9.27 -5.79,-17.38 -9.27,-25.5 -3.02,-7.04 2.49,-15.91 4.71,-22.33 2.77,-8.09 5.17,-16.31 7.17,-24.62 z"
   id="path16" />
	<path
   class="st0"
   d="m 1008.95,693.57 c 0.18,-0.05 0.36,-0.09 0.54,-0.14 -0.36,-0.25 -0.52,-0.13 -0.54,0.14 z"
   id="path18" />
	<path
   class="st0"
   d="m 1008.73,695.82 c -0.32,-0.46 -1.13,-0.73 -3.09,-1.53 -2.54,-1.04 -8.73,0.57 -11.85,0.08 -7.33,-1.17 -14.34,-4.55 -19.64,-9.78 -1.59,-1.57 -3.06,-3.31 -4.97,-4.45 -9.95,-5.94 -23.55,7.36 -33.58,1.56 -8.2,-4.75 -8.68,-19.82 -18.13,-20.5 -4.38,-0.31 -8.14,3.12 -10.6,6.76 -2.47,3.64 -4.35,7.83 -7.82,10.52 -2.98,2.31 -6.76,3.24 -10.38,4.27 -12.75,3.61 -24.95,9.13 -36.08,16.31 -1.8,1.16 -3.64,2.44 -4.69,4.31 -3.67,6.52 -3.58,15.82 -1.32,22.77 3.05,9.42 11.6,9.82 15.86,17.57 2.62,4.76 4.72,10.43 9.61,12.81 3.68,1.79 8.39,1.34 11.5,3.99 3.86,3.29 3.19,9.35 5.06,14.06 4.18,10.51 19.61,11.98 25.26,21.78 2.29,3.97 3.33,9.56 7.73,10.85 2.28,0.66 4.7,-0.17 6.87,-1.12 6.85,-3.01 13.11,-7.34 18.34,-12.7 7.53,-7.71 12.9,-17.48 21.28,-24.26 11.07,-8.96 27,-12.42 34.43,-24.58 6.92,-11.33 8.11,-30.63 6.58,-43.58 -0.43,-3.47 0.09,-4.49 -0.37,-5.14 z"
   id="path20" />
	<path
   class="st0"
   d="m 730.1,719.52 c 2.46,-0.86 4.11,-3.12 5.57,-5.27 6.67,-9.82 12.77,-20.02 18.27,-30.53 1.45,-2.78 2.89,-5.67 3.17,-8.79 0.32,-3.54 -0.87,-7.02 -2.05,-10.37 -2.71,-7.75 -5.79,-16 -12.46,-20.79 -4.63,-3.32 -10.41,-4.52 -16,-5.64 -16.49,-3.3 -32.98,-6.6 -49.47,-9.91 -3.77,-0.76 -7.69,-1.51 -11.42,-0.6 -2.83,0.69 -5.35,2.28 -7.8,3.85 -5.32,3.4 -15.32,7.29 -19.14,12.22 -4.12,5.32 -1.97,7.15 1.21,13.39 6.32,12.38 11.83,26.36 19.54,37.92 3.01,5.85 6.33,12.01 12.06,15.24 5.45,3.07 12.06,2.89 18.31,3.1 10.88,0.37 21.71,2.18 32.12,5.38 2.62,0.81 5.48,1.71 8.09,0.8 z"
   id="path22" />
	<path
   class="st0"
   d="m 573.96,770.59 c 7.7,1.61 15.63,3.22 23.37,1.81 13.18,-2.39 23.15,-12.9 32.14,-22.83 8.41,-9.3 17.43,-20.76 14.63,-32.98 -1.89,-8.23 -8.74,-14.27 -12.88,-21.63 -3.72,-6.63 -5.19,-14.26 -8.07,-21.28 -2.89,-7.03 -7.89,-13.94 -15.26,-15.79 -8.71,-2.18 -17.63,3.55 -23.01,10.74 -5.38,7.19 -8.42,15.86 -13.35,23.36 -9.55,14.51 -25.97,24.35 -32.3,40.53 -3.08,6.16 -6.54,24.96 -1.01,30.2 6.04,5.73 27.51,6.16 35.74,7.87 z"
   id="path24" />
	<path
   class="st0"
   d="m 621.75,820.47 c 9.89,7.94 22.25,13.51 34.91,12.84 5.64,-0.3 11.14,-1.81 16.69,-2.9 8.99,-1.77 18.11,-2.95 27.24,-3.74 6.88,-0.59 15.23,1.62 18.97,-2.74 9.88,-11.56 -10.94,-35.74 -12.61,-47.65 -1.45,-10.32 0.6,-22.68 -7.23,-29.55 -4.18,-3.67 -10.07,-4.52 -15.62,-4.98 -3.75,-0.31 -7.61,-0.5 -11.2,0.63 -12.32,3.85 -17.66,21.51 -30.53,22.39 -3.46,0.24 -6.9,-0.88 -10.37,-0.69 -7.77,0.42 -12.73,6.78 -17.25,12.32 -5.53,6.77 -19.07,13.93 -13.86,23.12 4.63,8.19 13.63,15.15 20.86,20.95 z"
   id="path26" />
	<path
   class="st0"
   d="m 742.77,803.48 c -1.05,2.29 -0.42,4.96 0.23,7.4 3,11.25 9.03,20.89 13.26,31.6 7.44,18.81 10.05,40.13 14.66,59.77 0.48,2.04 0.98,4.15 2.2,5.86 2.89,4.07 8.88,4.61 13.64,3.11 4.76,-1.5 8.87,-4.55 13.46,-6.49 12.12,-5.12 26.05,-2.04 39.02,-4.25 20.16,-3.44 36.33,-19.29 56.3,-23.71 2.56,-0.57 5.57,-1.24 6.64,-3.64 5.58,-12.56 -21.88,-37.35 -28.22,-46.1 C 862.3,810.92 855.3,792 846.97,773.94 c -8.32,-18.07 -18.58,-36.05 -34.69,-47.73 -4.02,-2.91 -8.53,-5.45 -13.47,-5.91 -4.74,-0.45 -9.43,1.05 -13.88,2.74 -11.05,4.21 -22.19,9.73 -31.65,16.89 -7.91,5.98 -7.29,14.07 -13.74,20.91 -1.88,1.99 -4.23,3.7 -5.23,6.25 -2.19,5.6 3.14,11.07 7.74,14.94 4.6,3.87 9.41,10.14 6.24,15.25 -1.46,2.37 -4.35,3.67 -5.52,6.2 z"
   id="path28" />
	<path
   class="st0"
   d="m 743.94,947.78 c 0.02,-0.02 0.04,-0.05 0.06,-0.07 9.65,-10.42 7.48,-22.01 7.21,-35.28 -0.41,-20.35 -3.17,-41.53 -14.66,-58.87 -2.08,-3.13 -4.47,-6.15 -7.59,-8.25 -3.74,-2.52 -8.31,-3.56 -12.81,-3.82 -22.85,-1.31 -44.53,16.13 -66.98,11.7 -9.21,-1.82 -17.28,-7.16 -25.09,-12.39 -20.11,-13.48 -40.71,-27.43 -54.48,-47.35 -19.55,-28.29 -36.8,28.19 -41.88,41.1 -3.2,8.14 -6.45,17.01 -4.1,25.43 1.36,4.9 4.5,9.09 7.57,13.14 9.81,12.98 19.62,25.95 29.44,38.93 2.46,3.25 5.2,6.7 9.13,7.77 9.08,2.47 17.55,-9.07 26.67,-6.76 6.24,1.58 9.06,8.72 10.58,14.97 1.52,6.26 3.28,13.42 9,16.36 4.47,2.3 9.87,1.15 14.84,1.91 9.93,1.51 16.89,10.16 23.97,17.28 6.85,6.89 14.6,12.81 22.33,18.69 8.5,6.48 19.3,13.3 29.12,9.08 8.22,-3.53 11.55,-13.1 15.38,-21.19 4.75,-10.02 15.03,-14.59 22.29,-22.38 z"
   id="path30" />
	<path
   class="st0"
   d="m 398.71,846.05 c 12.92,-0.6 24.83,-6.71 36.78,-11.66 11.95,-4.95 25.35,-8.84 37.67,-4.89 14.76,4.74 25.77,-3.77 33.35,-15.78 3.86,-6.1 11.07,-16.18 14.94,-26.21 4.02,-10.4 3.66,-16.48 -4.33,-23.41 -6.13,-5.32 -10.97,-9.53 -13.03,-17.79 -2.74,-10.97 -9.88,-17.7 -21.43,-17.01 -5.32,0.32 -10.6,3.79 -15.87,2.72 -4.45,-0.9 -8.2,-5.8 -11.63,-7.97 -6.05,-3.83 -13.1,-5.05 -19.81,-5.19 -10.14,-0.2 -19.85,-2.65 -29.46,-5.73 -18.41,-5.9 -36.86,-14.55 -56.7,-11.93 -15.07,1.99 -13.68,15.91 -13.93,27.58 -0.45,20.55 -12.34,39.53 -11.04,60.08 0.38,5.99 4.47,11 8.37,15.56 8.79,10.27 17.67,20.63 28.55,28.65 10.88,8.02 24.08,13.61 37.57,12.98 z"
   id="path32" />
	<path
   class="st0"
   d="m 424.45,644.59 c -2.67,4.67 -4.65,10.43 -6.53,13.99 -4.32,8.18 -9.59,16.96 -10.42,26.38 -1.05,11.92 14.09,15.82 24.2,14.33 4.68,-0.69 9.19,-2.51 13.91,-2.69 9.8,-0.38 37.03,21.7 43.77,10.97 2.99,-4.76 -1.17,-14.04 -3.52,-18.27 -4.89,-8.79 -11.51,-16.92 -18.34,-24.29 -8.64,-9.32 -17.37,-18.73 -27.86,-25.9 -7.09,-4.85 -11.73,-0.61 -15.21,5.48 z"
   id="path34" />
	<path
   class="st0"
   d="m 528.48,683.19 c 3.67,-2.87 6.62,-4.08 9.08,-5.19 4.04,-1.82 6.77,-3.35 9.21,-11.4 2.39,-7.9 3.5,-16.09 5.21,-24.15 3.01,-14.22 4.37,-28.94 1.59,-43.32 -0.69,-3.58 -1.71,-7.27 -4.2,-9.94 -4.48,-4.82 -12,-4.79 -18.56,-4.24 -11.13,0.93 -22.23,2.35 -33.24,4.24 -10.9,1.87 -28.1,-0.3 -32.35,13.33 -4.09,13.14 6.16,31.27 12.56,42.17 4.6,7.83 10.3,14.67 15.68,21.93 4.59,6.2 7.63,13.99 13.25,19.39 3.99,3.83 10.03,6.16 15.15,4.07 3.47,-1.43 3.98,-4.83 6.62,-6.89 z"
   id="path36" />
	<path
   class="st0"
   d="m 345.44,556.76 c 15.21,2.29 31.11,0.71 45.66,5.68 18.43,6.3 38.26,11.43 48.84,-4.83 1.75,-2.69 3.25,-5.98 4.45,-9.94 6.11,-20.25 2.37,-44.37 -2.83,-64.45 -3.03,-11.7 -10.14,-25.08 -22.23,-25.27 -6.16,-0.1 -11.68,3.43 -17.36,5.81 -10.19,4.26 -21.49,3.52 -32.53,1.34 -15.49,-3.05 -14.55,-0.27 -24.19,11 -8.39,9.8 -23.9,7.39 -36.17,11.39 -8.03,2.62 -13.55,8.69 -18.15,15.93 -6.08,9.56 -4.44,20.6 2.11,29.51 11.91,16.23 32.73,20.87 52.4,23.83 z"
   id="path38" />
	<path
   class="st0"
   d="m 398.83,320.63 c 2.4,-1.51 5.02,-2.99 6.33,-5.5 2.04,-3.89 0.2,-8.59 -1.68,-12.56 -11.14,-23.57 -23.53,-46.54 -37.11,-68.79 -1.19,-1.95 -2.46,-3.97 -4.39,-5.18 -2.16,-1.36 -4.84,-1.53 -7.39,-1.65 -6.45,-0.32 -10.28,3.82 -15.85,6.14 -4.59,1.91 -9.83,1.08 -14.19,2.69 -6.59,2.43 -7.59,8.87 -9.86,14.76 -4.25,11.01 -9.08,21.84 -13.7,32.71 -4.25,9.99 -15.4,26.09 -13.65,37.08 1.52,9.57 12.56,9.77 20.37,13.56 8.81,4.28 17.6,8.61 26.15,13.4 2.59,1.45 5.25,3.01 6.94,5.45 1.75,2.53 2.24,5.69 2.62,8.74 2.82,22.54 2.18,45.7 8.56,67.5 0.8,2.73 1.78,5.56 3.85,7.52 3.04,2.9 7.63,3.25 11.83,3.44 12.35,0.56 25.11,1.15 37.15,-2.21 8.2,-2.29 18.2,-2.54 24.16,-9.49 0.96,-1.12 1.77,-2.33 2.47,-3.62 4.01,-7.37 4.23,-17.09 6.63,-24.85 2.79,-9.02 8.26,-21.02 8.26,-30.49 1.47,-6.27 2.78,-12.96 0.7,-19.05 -1.63,-4.78 -5.17,-8.63 -8.62,-12.32 -6.34,-6.8 -14.09,-14.17 -23.34,-13.32 -12.91,1.18 -22.74,18.07 -35.01,13.89 5.01,-7.13 11.43,-13.22 18.77,-17.85 z"
   id="path40" />
	<path
   class="st0"
   d="m 474.46,152.02 c -21.68,3.45 -43.36,6.86 -65.04,10.35 -17.43,2.81 -27.71,4.58 -23.4,24.42 6.71,30.9 33.46,57.73 64.34,64.26 3.04,0.64 6.82,1.82 7.17,4.91 0.48,4.24 -5.54,5.49 -8.85,8.18 -6.3,5.12 -1.98,15.2 2.68,21.85 10.05,14.31 20.1,28.62 30.14,42.93 2.04,2.91 4.48,6.07 8,6.56 1.94,0.27 3.87,-0.34 5.73,-0.94 13.22,-4.29 26.45,-8.58 39.68,-12.86 6.77,-2.2 13.63,-4.43 19.65,-8.24 13.61,-8.61 21.21,-24.04 26.79,-39.15 3.48,-9.42 5.99,-19.32 5.93,-29.43 -0.12,-18.07 -8.81,-20.48 5.29,-34.15 10.7,-10.37 17.29,-22.74 13.69,-37.99 -0.76,-3.21 -2.02,-6.46 -4.54,-8.58 -2.7,-2.27 -6.38,-2.87 -9.86,-3.39 -20.33,-3.03 -40.65,-6.05 -60.98,-9.08 -9.09,-1.35 -18.23,-2.71 -27.42,-2.71 -9.72,-0.01 -19.39,1.53 -29,3.06 z"
   id="path42" />
	<path
   class="st0"
   d="m 1083.3,597.11 c -2.9,2.2 -5.46,5.19 -9.02,5.95 -6.94,1.49 -12.37,-6.29 -13.66,-13.27 -1.29,-6.98 -0.85,-14.8 -5.29,-20.34 -7.18,-8.94 -21.62,-5.96 -31.87,-11.11 -10.43,-5.24 -15.83,-18.66 -27.17,-21.44 -10.26,-2.51 -20.31,5.1 -26.52,13.64 -6.21,8.54 -10.65,18.67 -18.93,25.21 -8.96,7.08 -21.83,9.47 -28.05,19.04 -5.67,8.71 -7.45,19.04 -9.74,28.99 -1.1,4.78 -3.38,8.47 -0.71,11.84 2.34,2.95 9.35,3.97 12.47,6.73 4.71,4.16 8.65,9.47 14.41,12 10.79,4.73 23.51,-2.01 34.97,0.72 11.13,2.65 18.67,13.59 29.63,16.89 8.98,2.7 20.85,0.86 25.75,8.86 2.25,3.67 2.06,8.25 2.83,12.48 0.77,4.23 3.4,8.88 7.69,9.14 4.94,-19.35 28,-26.72 42.53,-40.43 13.54,-12.77 25.13,-28.65 30.43,-47.03 0.76,-2.64 1.28,-5.09 1.4,-7.34 0.29,-5.49 -1.81,-9.78 -8.61,-12.79 -7.06,-3.13 -16.34,-2.43 -22.54,2.26 z"
   id="path44" />
	<path
   class="st0"
   d="m 208.17,921.02 c 5.8,6.19 10.85,13.08 15.59,20.09 16.65,24.65 23.52,57.06 47.77,74.4 15.32,10.95 38.8,12.79 51.88,-0.73 4.92,-5.09 7.7,-12.78 13.58,-16.91 1.89,-1.33 3.41,-2.96 4.64,-4.81 6.49,-9.83 4.63,-25.95 6.13,-36.95 2.14,-15.73 5.19,-31.33 9.15,-46.7 2.29,-8.87 4.88,-18.18 2.51,-27.03 -3.77,-14.1 -18.37,-21.91 -29.03,-31.94 -6.78,-6.37 -12.23,-14.12 -15.99,-22.61 -3.68,-8.32 -3.82,-10.99 -13.41,-11.63 -17.19,-1.14 -35.59,6.99 -52.11,11.08 -5.15,1.27 -10.46,2.66 -14.59,5.97 -4.32,3.47 -6.83,8.64 -9.19,13.63 -6.51,13.72 -14.89,26.53 -20.74,40.56 -2.31,5.54 -7.25,15.31 -6.2,21.46 0.95,5.73 6.06,7.91 10.01,12.12 z"
   id="path46" />
	<path
   class="st0"
   d="m 534.92,932.08 c 1.65,-8.36 -2.47,-16.68 -6.61,-24.14 -9.03,-16.28 -18.73,-32.18 -29.06,-47.66 -0.95,-1.42 -1.96,-2.89 -3.48,-3.66 -1.87,-0.95 -4.11,-0.65 -6.19,-0.32 -11.26,1.79 -22.53,3.58 -33.79,5.37 -12.78,2.03 -27.95,6.03 -31.79,18.38 -0.84,2.69 -1.08,5.7 -2.9,7.85 -3.35,3.96 -9.69,2.7 -14.48,0.71 -4.79,-1.98 -10.43,-4.31 -14.84,-1.59 -0.45,20.99 -4.17,41.91 -10.98,61.78 -6.65,19.4 -16.3,40.47 -8.43,59.41 3.33,8.01 14.09,11.28 22.45,13.57 8.36,2.29 17.12,3.19 25.22,6.31 14.95,5.77 27.29,18.94 43.29,19.98 15.97,1.05 30.1,-13.59 31.91,-29.49 2.86,-24.98 12.98,-49.09 28.81,-68.62 4.44,-5.46 9.5,-10.95 10.87,-17.88 z"
   id="path48" />
	<path
   class="st0"
   d="m 210.52,779.73 c 3.55,5.17 6.15,12.75 11.58,16.34 6.97,4.6 17.65,1.69 25.8,3.49 3.18,0.7 6.23,1.91 9.41,2.57 8.86,1.82 18.27,-0.88 25.71,-6.03 2.64,-1.83 5.19,-4.01 8.32,-4.7 1.29,-0.28 2.64,-0.3 3.9,-0.69 3.52,-1.09 5.35,-3.6 6.4,-6.65 1.07,-3.13 1.32,-6.83 1.7,-10.13 1.3,-11.13 2.02,-22.18 7.75,-32.13 4.68,-8.12 8.49,-25.22 1.07,-33.56 -11.3,-12.69 -39.67,-5.15 -51.06,3.16 -9.11,6.65 -15.05,13 -26.01,15.67 -8.6,2.09 -19.71,2.93 -27.42,7.28 -7.48,4.22 -10.19,14.1 -8.59,22.53 1.6,8.43 6.58,15.78 11.44,22.85 z"
   id="path50" />
	<path
   class="st0"
   d="m 126.02,902.88 c 1.92,3.89 7,5.23 11.28,4.49 4.28,-0.74 8.09,-3.05 12.1,-4.7 1.29,-0.53 2.68,-1 4.04,-0.75 1.67,0.31 2.94,1.61 4.18,2.76 4.84,4.51 11.15,7.78 18,6.8 2.16,-0.31 4.26,-1.09 6.05,-2.35 7.71,-5.42 5.27,-14.92 7.96,-22.61 3.56,-10.17 15.32,-15.43 19.71,-25.27 2.07,-4.63 5.38,-15.34 8.27,-19.51 12.6,-18.12 -5.14,-12.22 -4.82,-20.62 0.1,-2.66 0.15,-5.51 -1.32,-7.72 -2.94,-4.42 -10.17,-3.88 -13.41,-8.09 -1.76,-2.29 -0.12,-6.26 -2.21,-8.27 -11.98,-11.51 -9.82,-25.33 -17.77,-36.45 -1.33,-1.87 -2.76,-3.81 -4.83,-4.79 -3.27,-1.54 -7.1,-0.28 -10.53,0.87 -14.89,4.99 -30.6,7.53 -46.3,7.47 -10.25,-0.04 -29.45,-0.72 -30.24,13.79 -0.78,14.29 13.73,18.94 14.24,29.94 0.06,1.34 -0.53,2.63 -1.46,3.6 -4.5,4.71 -0.5,8.48 -3.84,14.07 -2.23,3.71 -4.23,7.83 -4,12.15 0.66,12.04 15.75,21.3 21.38,32.47 1.18,2.35 4.4,2.68 6.14,0.72 3.33,-3.77 6.92,-8.5 9.82,-10.61 -1.06,11.62 -5.22,16.43 -6.28,28.05 -0.21,2.62 2.68,12.21 3.84,14.56 z"
   id="path52" />
	<path
   class="st0"
   d="m 227.14,716.4 c 5.28,-2.15 7.89,-8.03 12.19,-11.78 4.39,-3.82 10.18,-5.17 16.09,-5.75 3.94,-0.39 5.58,-5.26 2.64,-7.91 -0.3,-0.27 -0.59,-0.52 -0.89,-0.77 -11.15,-9.37 -26.68,-15.21 -33.46,-28.11 -5.12,-9.75 -10.43,-14.4 -17.33,-16.25 -4,-1.08 -7.97,2 -7.97,6.14 0,4.96 -1.56,9.93 -4.51,13.92 -3.04,4.1 -7.38,7.15 -10.1,11.48 -5.35,8.52 -3.01,18.94 -2.14,28.3 1.11,12.01 2.59,13.4 15.14,12.86 7.74,-0.33 15.48,-0.67 23.23,-1 2.42,-0.11 4.88,-0.22 7.11,-1.13 z"
   id="path54" />
	<path
   class="st0"
   d="m 356.84,675.91 c 20.89,-3.32 36.54,-20.37 49.85,-36.8 4.92,-6.07 9.9,-12.22 15.82,-17.35 2.73,-2.37 5.63,-4.59 8.81,-6.35 2.3,-1.27 8.43,-2.2 9.99,-3.82 0.37,-0.39 0.68,-0.79 0.91,-1.2 4.6,-8.02 -16.62,-19.16 -23.12,-19.77 -11.28,-1.05 -22.42,2.38 -33.63,4.02 -6.78,0.99 -13.65,2.21 -20.51,2.45 -7.42,0.26 -17.56,-1.62 -15.64,8.99 3.05,16.86 -4.64,30.9 -9.95,46.36 -3.42,9.98 -18.93,21.12 -10.43,36.71 9.57,11.24 20.04,-11.99 27.9,-13.24 z"
   id="path56" />
	<path
   class="st0"
   d="m 324.8,640.11 c 3.37,-5.93 5.17,-12.68 6.48,-19.32 2.47,-12.55 3.21,-27.25 9.2,-38.76 1.77,-3.4 0.59,-5.83 -1.97,-7.56 -4.93,-3.33 -14.96,-4.06 -18.88,-4.12 -6.93,-0.11 -14.82,0.4 -20.68,-4.01 -3.53,-2.65 -8.95,-9.23 -12.83,-10.78 -4.87,-1.95 -6.32,1.3 -9.58,5.27 -14.49,17.66 -26.15,37.63 -34.37,58.95 -1.66,4.31 -9.6,21.61 -7.72,25.83 1.02,2.29 7.12,13.91 9,15.57 15.43,13.62 35.1,18.69 54.26,15.37 4.11,-0.71 6.79,-4.76 5.87,-8.83 -1.56,-6.91 1.7,-14.27 7.44,-18.3 5.53,-3.89 10.2,-3.02 13.78,-9.31 z"
   id="path58" />
	<path
   class="st0"
   d="m 678.79,1017.28 c -11.73,-9.78 -25.49,-17.11 -36.71,-30.27 -2.36,-2.77 -4.82,-5.55 -7.96,-7.37 -11.35,-6.59 -26.34,1.49 -38.71,-2.91 -6.88,-2.44 -11.82,-8.34 -17.28,-13.19 -5.46,-4.85 -12.83,-8.98 -19.79,-6.78 -6.97,2.21 -10.57,9.73 -13.22,16.55 -9.54,24.53 -17.17,49.8 -22.81,75.5 -3.19,14.54 -3.69,31.26 4.01,44.01 7.7,12.74 19.15,22.7 30.42,32.43 3.91,3.38 8,6.86 12.99,8.22 15.38,4.22 29.05,-12.92 45,-13.19 10.43,-0.18 20.44,6.98 30.64,4.82 8.87,-1.88 14.76,-10.17 19.1,-18.13 6.21,-11.38 16.95,-29.85 24.31,-46.52 6.64,-15.02 2.61,-32.66 -9.99,-43.17 z"
   id="path60" />
	<path
   class="st0"
   d="m 772.36,140.17 c 1.5,2.54 3.71,5.1 5.86,8.03 5.02,6.82 9.73,13.8 12.37,21.92 3.77,11.6 5.38,23.82 10.26,35.07 2.84,6.55 5.68,12.88 7.62,19.71 1.53,5.39 3.38,11.14 8.19,14.5 5.06,3.52 11.69,3.86 17.82,3.2 6.54,-0.7 14.66,-0.71 20.65,-3.23 6.03,-2.53 10.28,-8.24 15.08,-12.45 7,-6.14 18.2,-5.85 26.68,-8.55 7.78,-2.48 14.89,-8.15 17.4,-15.92 2.5,-7.77 -0.7,-17.47 -8.13,-20.87 -5.03,-2.31 -11.69,-1.94 -15.03,-6.36 -2.92,-3.86 -1.67,-9.31 -2.4,-14.1 -1.31,-8.53 -8.99,-14.6 -16.72,-18.43 -7.73,-3.83 -16.29,-6.49 -22.62,-12.35 -9.81,-9.07 -12.48,-24.18 -22.82,-32.64 -1.06,-0.87 -2.24,-1.68 -3.59,-1.94 -8.12,-1.57 -7.85,14.28 -15.61,17.16 -3.14,1.16 -6.57,-0.27 -9.9,-0.6 -9.49,-0.94 -17.27,7.01 -23.46,14.27 -4.63,5.42 -4.08,9.47 -1.65,13.58 z"
   id="path62" />
	<path
   class="st0"
   d="m 892.94,238.45 c 1.4,6.55 25.5,1.5 36.54,10.58 3.97,3.26 10.32,2.09 15.16,0.39 3.58,-1.26 6.69,-3.78 10.42,-4.49 8.17,-1.55 17.06,5.97 24.32,1.92 3.73,-2.08 5.45,-6.75 5.11,-11.01 -0.33,-4.26 -2.35,-8.2 -4.55,-11.87 -3.72,-6.16 -8.1,-11.93 -13.05,-17.16 -6.8,-7.19 -15.39,-13.65 -25.27,-14.15 -1.66,-0.08 -3.43,0.04 -4.8,0.98 -1.23,0.85 -1.95,2.23 -2.61,3.57 -3.69,7.53 -6.79,15.39 -11.37,22.41 -7.71,11.83 -31.12,13.11 -29.9,18.83 z"
   id="path64" />
	<path
   class="st0"
   d="m 1102.27,211.03 c -1.4,-1.55 -2.85,-3.14 -4.72,-4.08 -5.21,-2.63 -11.35,0.56 -16.3,3.67 4.33,-6.11 1.93,-15.08 -3.34,-20.4 -5.27,-5.32 -12.64,-7.88 -19.74,-10.27 -2.35,-0.79 -5.01,-1.56 -7.21,-0.43 -1.3,0.67 -2.2,1.9 -3.03,3.1 -8.34,12.05 -14.48,25.61 -18.03,39.82 -0.1,-3.54 -5.57,-4.08 -8.38,-1.91 -2.81,2.17 -4.5,5.7 -7.68,7.28 -3.12,1.54 -7.01,0.83 -10.1,2.44 -5.43,2.83 -5.35,10.66 -8.9,15.65 -2.8,3.94 -7.63,5.78 -11.53,8.64 -9.41,6.89 -12.32,22.19 -8.23,32.77 1.24,3.2 2.85,6.43 2.86,9.94 0.05,4.16 -4.02,11.2 0.72,14.16 3.13,1.95 8.57,-0.14 10.1,3.22 0.89,1.97 -0.58,4.19 -0.59,6.36 -0.03,3.64 3.87,5.94 7.33,7.05 3.47,1.11 7.5,2.17 9.08,5.45 0.58,1.2 0.73,2.56 0.85,3.89 0.62,7.31 1.76,16.76 8.91,18.4 17.1,3.93 27.47,-24.71 31.36,-36.87 1.8,-5.61 8.11,-1.53 11.32,-0.03 3.2,1.49 7.43,4.53 10.96,2.19 3.44,-2.28 1.97,-7.34 3.88,-10.58 2.41,-4.09 5.76,-7.54 9.32,-10.65 7.02,-6.13 15.04,-11.96 18.36,-20.67 1.4,-3.67 1.93,-7.81 4.41,-10.86 1.47,-1.81 3.57,-3.16 4.49,-5.29 1.15,-2.65 0.17,-5.77 0.92,-8.57 0.71,-2.65 2.85,-4.64 4.35,-6.94 3.76,-5.77 3.32,-13.49 0.59,-19.82 -2.72,-6.32 -7.41,-11.56 -12.03,-16.66 z"
   id="path66" />
	<path
   class="st0"
   d="m 1070.18,365.98 c -0.12,-3.29 -3.29,-5.52 -4.97,-8.35 -2.17,-3.64 -1.81,-8.19 -2.66,-12.35 -0.84,-4.16 -4.11,-8.65 -8.29,-7.93 -0.8,7.89 -4.84,15.4 -10.98,20.4 -2.93,2.39 -6.3,4.23 -9,6.87 -4.44,4.34 -6.99,10.74 -12.49,13.61 -5.07,2.65 -12.14,2 -15.47,6.65 -2.42,3.38 -1.61,8.01 -0.7,12.07 2.23,9.92 2.82,20.22 6.82,29.7 1.49,3.54 3.8,8.77 8.12,9.48 5.88,0.96 9.38,-6.94 14.9,-1.6 2.18,2.11 4.74,3.99 7.71,4.64 2.97,0.65 6.4,-0.17 8.22,-2.6 1.4,-1.86 1.66,-4.31 1.99,-6.61 1.56,-10.78 5.71,-21.18 12.01,-30.06 2.27,-3.2 4.91,-6.43 5.39,-10.33 0.73,-5.92 -3.74,-11.78 -2.29,-17.56 0.53,-2.03 1.76,-3.93 1.69,-6.03 z"
   id="path68" />
	<path
   class="st0"
   d="m 994.56,497.89 c -8.72,12.85 5.52,13.18 12.4,20.95 3.57,4.03 2.42,10.64 6.77,14.23 4.67,3.86 12.1,0.78 17.55,3.43 2.93,1.42 4.85,4.3 7.4,6.33 4.84,3.87 11.44,4.4 17.57,5.38 6.12,0.98 12.82,3.04 15.83,8.46 2.48,4.46 1.78,10.05 3.71,14.77 0.35,0.85 0.88,1.74 1.77,1.96 1.01,0.24 1.98,-0.5 2.67,-1.28 5.32,-5.91 4.71,-14.96 7.78,-22.29 1.32,-3.14 3.33,-5.99 4.27,-9.26 1.63,-5.72 -1.27,-13.93 -4.54,-18.7 -3.75,-5.47 -8.63,-10.11 -12.22,-15.68 -1.97,-3.06 -3.54,-6.39 -5.71,-9.31 -3.6,-4.83 -8.73,-8.36 -14.21,-10.86 -1.6,-0.73 -3.29,-1.42 -4.51,-2.69 -3.4,-3.54 -1.57,-9.41 -2.86,-14.15 -1.84,-6.77 -9.45,-9.9 -16.12,-12.08 -7.34,-2.4 -16.25,-4.52 -22.08,0.54 -7.19,6.24 -3.94,17.95 -6.65,27.08 -1.37,4.61 -5.81,8.75 -8.82,13.17 z"
   id="path70" />
	<path
   class="st0"
   d="m 865.37,1077.7 c 7.45,-2.97 14.32,-7.59 19.42,-13.78 7.48,-9.06 14.09,-27.22 5.27,-34.99 -23.83,-21.01 -27.77,-56.81 -46.71,-82.33 -3.44,-4.64 -7.55,-9.04 -12.86,-11.31 -5.08,-2.17 -10.79,-2.19 -16.32,-2.18 -8.04,0.02 -16.09,0.04 -24.13,0.06 -4.39,0.01 -8.96,0.06 -12.89,2.03 -3.07,1.54 -5.47,4.14 -7.77,6.69 -13.14,14.55 -25.71,29.63 -37.66,45.17 -2.22,2.89 -4.51,6.01 -4.82,9.64 -0.36,4.23 2.02,8.15 4.31,11.73 11.12,17.37 17.59,36.95 38.25,44.92 24.06,9.28 48.79,16.84 73.44,24.36 4.01,1.22 8.1,2.46 12.29,2.36 3.51,-0.07 6.93,-1.07 10.18,-2.37 z"
   id="path72" />
	<path
   class="st0"
   d="m 897.98,1017.69 c 5.19,4.41 12.48,6.65 19.04,4.78 3.7,-1.06 6.98,-3.32 10.68,-4.39 7.33,-2.13 15.29,0.63 22.77,-0.91 9.45,-1.95 16.88,-10.49 26.51,-11.08 3.25,-0.2 6.6,0.54 9.71,-0.43 3.11,-0.97 8.38,-3.77 7.06,-6.74 -2.51,-5.68 -4.41,-11.64 -5.65,-17.73 -0.91,-4.46 -1.46,-9.11 -0.48,-13.56 0.64,-2.9 1.92,-5.65 2.46,-8.57 0.69,-3.73 0.14,-7.56 -0.41,-11.31 -2.48,-16.91 -4.97,-33.81 -7.45,-50.72 -0.47,-3.21 -0.99,-6.54 -2.82,-9.22 -2.26,-3.31 -6.12,-5.07 -9.79,-6.68 -8.58,-3.76 -17.17,-7.53 -25.75,-11.29 -3.07,-1.35 -6.36,-2.73 -9.68,-2.22 -3.04,0.46 -5.61,2.43 -8.04,4.32 -7.55,5.91 -15.09,11.82 -22.64,17.74 -4.46,3.5 -9.02,7.09 -12.02,11.89 -3.01,4.8 -4.22,11.12 -1.59,16.13 -9.58,-1.69 -17.36,9.21 -17.09,18.92 0.27,9.71 5.6,18.42 9.23,27.43 4.7,11.65 6.67,24.4 5.7,36.93 -0.52,6.78 5.07,12.3 10.25,16.71 z"
   id="path74" />
	<path
   class="st0"
   d="m 1021.41,815.42 c -8.6,-11.79 -22.17,-27.43 -36.9,-31.11 -20.92,-5.22 -26.33,33.27 -32.26,47.27 -2.98,7.03 -9.76,17.1 -6.2,24.98 1.1,2.44 3.31,4.18 5.52,5.68 13.11,8.91 29.18,13.01 41.53,22.94 4.9,3.94 9.35,8.86 15.36,10.7 10.96,3.34 24.28,-3.9 35.5,-4.29 14.87,-0.51 12.96,-15.96 14.05,-27.78 0.62,-6.69 1.19,-13.73 -1.58,-19.85 -6.31,-13.92 -26.02,-16.2 -35.02,-28.54 z"
   id="path76" />
	<path
   class="st0"
   d="m 645.86,30.54 c 6.5,3.14 14.25,2.23 21.1,-0.04 3.94,-1.3 7.97,-3.06 12.07,-2.45 4.78,0.7 8.48,4.4 12.8,6.54 12.22,6.06 26.5,-0.94 40.04,-2.56 4.05,-0.48 8.6,-0.31 11.6,2.44 4.5,4.13 3.54,12.11 8.14,16.14 6.79,5.96 17.67,-2.08 26.28,0.67 5.43,1.74 9.08,7.59 14.73,8.36 4.2,0.57 8.28,-1.95 10.99,-5.21 2.71,-3.26 4.39,-7.22 6.52,-10.88 0.67,-1.15 1.5,-2.36 2.78,-2.7 1.56,-0.42 3.11,0.6 4.41,1.56 3.43,2.54 6.85,5.09 10.28,7.63 1.01,0.75 2.12,1.53 3.37,1.49 1.3,-0.04 2.4,-0.96 3.25,-1.95 6.97,-8.11 3.2,-20.39 3.8,-31.06 0.36,-6.34 2.39,-12.75 3.63,-19.03 H 640.4 c -0.12,0.58 -0.23,1.17 -0.35,1.75 -2.24,10.62 -7.24,23 5.81,29.3 z"
   id="path78" />
	<path
   class="st0"
   d="m 535.05,130.43 c 2.7,1.4 5.91,1.26 8.95,1.09 17.04,-0.97 33.27,-2.41 49.9,2.08 18.18,4.91 37.1,12.33 56.23,11.55 15.79,-0.65 33.4,-4.36 46.44,7.18 5.01,4.43 9.78,11.15 15.97,10.33 9.11,-1.2 10.61,-15.87 14.52,-25.78 8.1,-20.51 31.56,-23.77 45.43,-39.26 4.28,-4.78 7.74,-12.29 5.16,-18.58 -2.05,-4.99 -7.04,-7.06 -11.61,-8.07 -12.92,-2.86 -26.48,-1.11 -39.08,-5.58 -11.84,-4.21 -22.25,-13.73 -34.46,-15.93 -14.18,-2.55 -28.28,5.18 -42.63,5.31 -18.1,0.16 -33.41,-8.98 -50.66,0.34 -4.71,2.54 -8.65,5.98 -12.32,9.78 -6.99,7.24 -12.98,15.78 -21.32,21.81 -7.24,5.24 -15.23,9.48 -21.92,15.4 -5.14,4.55 -19.58,22.64 -8.6,28.33 z"
   id="path80" />
	<path
   class="st0"
   d="m 858.66,57.5 c -1.2,3.22 -2.73,6.3 -4.68,9.22 -5.17,7.71 -14.89,13.19 -13.05,23.95 2.01,11.77 23.92,19.78 33.58,25.74 14.35,8.86 29.7,37.35 48.76,33.41 14.73,-3.04 23.04,-22.64 37.3,-27.14 7.41,-2.34 15.07,-4.9 20.68,-10.27 5.67,-5.43 8.55,-13.08 11.25,-20.45 4.67,-12.74 9.35,-25.49 14.02,-38.23 1.36,-3.71 2.74,-7.57 2.37,-11.51 -0.3,-3.25 -1.78,-6.27 -3.27,-9.18 C 999.76,21.57 993.35,10.38 986.47,-0.51 H 863.23 c -1.49,18.78 2,40.34 -4.57,58.01 z"
   id="path82" />
	<path
   class="st0"
   d="m 983.38,193.76 c 2.59,2.24 4.8,4.91 7.51,7 9.87,7.61 25.96,5.06 32.99,-5.23 3.24,-4.75 4.58,-10.5 6.59,-15.88 4.46,-11.93 12.34,-22.28 20.98,-31.64 2.11,-2.28 4.42,-4.91 4.19,-8 -0.16,-2.2 -1.6,-4.07 -2.97,-5.8 -8.57,-10.76 -9.57,-26.46 -17.01,-38.04 -2.56,-3.99 -8.12,-11.28 -13.39,-6.89 -4.02,3.35 -3.42,12.18 -5.21,16.81 -1.91,4.93 -5.08,9.04 -9.03,12.5 -7.55,6.62 -17.7,10.43 -26.34,14.69 -9.89,4.87 -30.18,22.63 -32.21,34.07 -2.86,15.99 24.34,18.13 33.9,26.41 z"
   id="path84" />
	<path
   class="st0"
   d="m 1019.72,33.17 c 1.25,8.45 1.58,17.04 0.93,25.55 -0.31,4.08 -0.47,9 2.91,11.31 2.71,1.85 6.4,1.02 9.55,1.91 4.08,1.16 6.78,5.07 8.28,9.04 1.5,3.97 2.16,8.24 3.99,12.06 4.08,8.5 13.61,14.08 15.59,23.3 0.33,1.56 0.51,3.33 1.72,4.37 1.38,1.19 3.45,0.9 5.24,0.54 7.33,-1.49 16.83,3.54 24.15,4.4 10.28,1.2 15.74,-4.68 15,-15.36 -0.31,-4.45 -1.02,-8.88 -2.14,-13.2 -0.32,-1.23 -0.68,-2.48 -1.41,-3.52 -1.31,-1.85 -3.57,-2.73 -5.26,-4.24 -4.44,-3.96 -3.95,-10.87 -3.8,-16.82 0.31,-12.4 -2.51,-24.87 -8.13,-35.93 -1.25,-2.46 -2.69,-4.91 -4.83,-6.64 -2.92,-2.36 -6.99,-3.26 -9.29,-6.22 -3.08,-3.98 -2.15,-10.7 -6.46,-13.31 -1.57,-0.95 -3.49,-1.06 -5.32,-1.16 -6.84,-0.34 -43.79,-6.22 -46.25,0.68 -0.84,2.37 2.31,8.24 2.95,10.68 1.09,4.14 1.95,8.33 2.58,12.56 z"
   id="path86" />
	<path
   class="st0"
   d="m 1098.55,132.44 c -6.13,0 -12.26,-0.01 -18.39,-0.01 -0.72,0 -1.47,0.01 -2.1,0.36 -0.77,0.43 -1.19,1.29 -1.55,2.1 -2.32,5.11 -4.05,10.75 -6.9,15.59 -1.71,2.91 -4.37,5.17 -5.75,8.27 -2.07,4.66 -2.19,8.11 2.58,9.63 5.31,1.69 7.73,-0.22 12.26,4.74 3.43,3.75 6.85,7.5 10.28,11.24 0.75,0.82 1.56,1.68 2.64,1.92 0.78,0.18 1.58,0.01 2.36,-0.17 5.25,-1.15 13.92,-0.51 18.17,-4.24 5.55,-4.88 1.91,-17.27 1.98,-23.96 0.05,-5.81 1.49,-11.7 0.5,-17.5 -1.73,-10.12 -7.58,-7.96 -16.08,-7.97 z"
   id="path88" />
	<path
   class="st0"
   d="m 1111.75,276.17 c -1.16,1.76 -1.11,4 -1.27,6.1 -0.41,5.47 -2.54,10.8 -6.02,15.04 -4.24,5.17 -10.22,8.58 -15.01,13.25 -5.95,5.8 -9.84,13.34 -13.63,20.74 -1.03,2.01 -2.08,4.1 -2.17,6.35 -0.17,4.17 2.89,7.65 5.19,11.13 3.77,5.71 5.17,11.43 5.13,18.12 -0.03,5.06 -0.06,14.68 4.36,18.12 1.23,0.95 2.88,1.1 4.43,1.2 8.64,0.59 17.28,1.18 25.91,1.77 2.23,0.15 4.63,0.26 6.49,-0.97 2.7,-1.79 3.08,-5.49 4.21,-8.53 3.56,-9.52 15.05,-12.9 22.78,-19.5 1.36,-1.16 2.64,-2.48 3.31,-4.13 0.96,-2.36 0.55,-5.05 -0.08,-7.52 -1.59,-6.3 -4.4,-12.24 -6,-18.54 -1.6,-6.3 -1.86,-13.34 1.42,-18.94 1.19,-2.03 2.84,-3.87 3.39,-6.15 0.69,-2.84 -0.43,-5.77 -1.53,-8.48 -2.09,-5.13 -4.18,-10.26 -6.26,-15.39 -3.47,-8.53 -8.41,-18.28 -17.51,-19.69 -0.74,-0.11 -1.53,-0.16 -2.19,0.19 -0.83,0.44 -1.23,1.38 -1.63,2.23 -1.96,4.19 -5.15,7.79 -9.08,10.24 -1.51,0.99 -3.23,1.84 -4.24,3.36 z"
   id="path90" />
	<path
   class="st0"
   d="m 1148.16,430.11 c -2.28,-3.22 -2.33,-7.5 -3.95,-11.1 -2.24,-4.97 -7.32,-8.19 -12.6,-9.53 -3.69,-0.93 -7.51,-1.08 -11.33,-0.99 -2.49,0.06 -4.36,2.19 -4.22,4.68 0.5,8.81 -4.09,16.94 -3.02,25.53 -2.69,-8.67 -8.96,-22.5 -12.45,-32.31 -1.01,-2.85 -4.19,-4.45 -7.02,-3.38 -6.61,2.48 -13.17,-1.38 -17.46,18.94 -1.74,8.24 -11.41,29.2 -6.67,38.67 1.79,3.57 11.49,4.33 15.46,3.87 3.97,-0.46 8.29,-0.64 11.61,1.59 -6.75,2.62 -11.37,9.93 -10.84,17.15 0.22,3 1.24,5.89 2.24,8.73 2.77,7.83 5.53,15.67 8.3,23.5 1.39,3.95 3.39,8.46 7.47,9.39 3.94,0.9 8.88,-1.88 11.36,2.26 0.32,0.53 0.53,1.12 0.68,1.72 1.13,4.53 -0.18,10.5 -1.02,15.85 -0.3,1.95 1.69,3.43 3.48,2.6 6.19,-2.86 15.36,-3.87 19.34,-8.13 4.24,-4.54 2.79,-11.69 3.1,-17.9 0.36,-7.47 3.84,-14.75 9.42,-19.74 1.58,-1.41 3.37,-2.7 4.4,-4.55 1.34,-2.41 1.19,-5.33 1.08,-8.09 -0.44,-11.5 0.64,-23.07 3.21,-34.29 1.19,-5.18 2.58,-11.05 -0.37,-15.47 -2.54,-3.79 -7.57,-5.27 -10.2,-9 z"
   id="path92" />
	<path
   class="st0"
   d="m 1186.18,541.42 c -5.96,0.42 -12.14,0.91 -17.33,3.86 -4.6,2.61 -8.21,7.05 -13.28,8.56 -2.8,0.83 -5.78,0.68 -8.69,0.85 -16.71,0.96 -29.11,12.37 -42.83,20.29 -6.42,3.71 -8.88,6.73 0.2,8.95 7.95,1.94 15.76,3.13 21.97,9.02 5.98,5.67 9.52,14.69 17.44,16.96 4.95,1.42 10.35,-0.32 15.37,0.83 7.75,1.77 12.27,9.57 18.23,14.84 5.61,4.95 13.83,7.82 20.69,4.83 0.72,-0.31 1.4,-0.68 2.05,-1.09 v -87.77 c -4.48,-0.74 -9.25,-0.46 -13.82,-0.13 z"
   id="path94" />
	<path
   class="st0"
   d="m 1190.31,359.87 c -2.01,0.21 -3.55,1.82 -4.87,3.35 -7.74,9.01 -17.44,19.89 -23.5,29.97 -6.78,11.26 0.89,19.41 4.28,30.7 2.24,7.48 1.53,16.08 6.11,22.4 1.96,2.7 4.77,4.78 6.23,7.78 1.53,3.14 1.34,6.8 1.12,10.28 -1.22,19.46 -29.58,63.26 -12.81,59.26 8.63,2.95 23.46,-2.45 33.12,-8.58 V 363.76 c -1.76,-0.88 -3.53,-1.77 -5.29,-2.65 -1.37,-0.69 -2.85,-1.4 -4.39,-1.24 z"
   id="path96" />
	<path
   class="st0"
   d="m 1179.76,289.59 c -3.18,5.02 -6.36,10.05 -9.55,15.07 -1.46,2.31 -2.95,4.66 -3.66,7.3 -0.7,2.58 -0.62,5.31 -0.39,7.98 0.43,5.01 1.55,9.79 2.83,14.64 0.56,2.12 1.07,9.07 2.21,10.65 3.67,5.09 15.7,-1.03 22.68,1.05 2.16,0.64 4.15,1.66 6.11,2.77 v -76.59 c -0.87,0.05 -1.73,0.2 -2.57,0.42 -8.03,2.11 -13.21,9.69 -17.66,16.71 z"
   id="path98" />
	<path
   class="st0"
   d="m 1162.97,169.26 c -2.87,1.2 -5.26,3.28 -7.49,5.45 -9.43,9.16 -17.16,19.93 -22.93,31.74 -2.68,5.48 -4.97,9.85 -4.88,15.81 0.02,1.41 2.12,9.87 3.2,15.47 0.46,2.38 2.56,4 4.98,4.04 5.67,0.09 11.38,4.82 14.76,9.9 4.29,6.44 7.55,14.29 14.49,17.72 8.94,4.43 19.48,-0.53 28.19,-5.4 1.88,-1.05 4.17,-2.17 6.71,-3.31 v -88.89 c -8.05,-1.77 -16.21,-3.01 -24.43,-3.68 -4.24,-0.33 -8.67,-0.49 -12.6,1.15 z"
   id="path100" />
	<path
   class="st0"
   d="m 1181.55,25.67 c -1.87,0.82 -3.22,2.48 -4.36,4.17 -5.39,8 -7.5,18.01 -13.73,25.37 -6.68,7.91 -13.21,10.2 -12.18,21.13 1.16,12.33 1.7,24.69 1.4,37.08 -2.49,-7.47 -5.95,-14.6 -10.29,-21.17 -0.74,-1.12 -1.55,-2.27 -2.75,-2.87 -1.34,-0.67 -2.93,-0.55 -4.41,-0.3 -3.8,0.66 -7.46,2.1 -10.69,4.2 -0.82,0.53 -1.66,1.17 -1.98,2.09 -0.28,0.81 -0.12,1.7 0.04,2.54 1.57,8.07 2.42,16.26 4.05,24.24 2.43,11.94 2.99,23.05 2.2,34.95 -0.7,10.47 8.8,10.5 18.2,8.9 13.52,-2.29 26.68,-6.71 38.84,-13.05 0.9,-0.47 1.87,-1.02 2.25,-1.96 0.33,-0.82 0.15,-1.75 -0.03,-2.61 -1.46,-6.79 -2.93,-13.57 -4.39,-20.36 5.43,4.58 10.86,9.15 16.28,13.73 V 26.4 c -4.21,-0.91 -8.69,-1.25 -12.85,-1.38 -1.89,-0.06 -3.86,-0.11 -5.6,0.65 z"
   id="path102" />
	<path
   class="st0"
   d="m 1088.61,17.58 c 2.29,3.81 6.68,5.73 10.07,8.62 7.47,6.38 9.45,16.88 12.97,26.05 3.52,9.17 16.02,11.37 25.8,23.37 5.76,-19.74 7.89,-27.67 18.62,-37.33 3.95,-3.56 6.74,-15.47 11.19,-18.39 8.45,-5.54 18.94,-12.67 32.75,-11.47 V -0.5 H 1085.5 c 0.3,3.56 0.6,6.94 0.9,9.58 0.32,2.93 0.69,5.97 2.21,8.5 z"
   id="path104" />
	<path
   class="st0"
   d="M 7.74,-0.5 H 0 V 8.42 C 3.39,8.72 6.97,9.5 10.78,10.95 11.13,6.85 9.22,3.3 7.74,-0.5 Z"
   id="path106" />
	<path
   class="st0"
   d="m 1186.66,656.65 c -0.57,-1.43 -0.56,-3.07 -1.28,-4.43 -1.16,-2.22 -3.82,-3.12 -6.2,-3.89 -8.05,-2.61 -15.81,-6.09 -23.13,-10.35 -5.79,-3.38 -11.24,-13.09 -18.96,-12.56 -10.01,0.69 -11.74,16.11 -17.91,21.96 -4.96,4.71 -10.98,8.21 -15.84,13.02 -5.39,5.34 -9.13,12.06 -13.42,18.31 -4.39,6.38 -9.42,12.32 -14.98,17.72 -3.79,3.67 -12.77,7.39 -12.76,13.56 0.03,8.53 9.36,15.75 12.77,22.79 -11.19,-2.06 -20.23,-10.31 -30,-1.41 -6.8,6.2 -10.22,15.4 -15.55,22.74 -1.1,1.51 -2.21,3.06 -2.79,4.84 -0.58,1.78 -0.57,3.7 -0.56,5.57 0.04,9.27 0.09,18.54 0.13,27.81 0.06,13.56 16.47,23.92 29.13,28.76 8.54,3.26 18.77,4.82 23.85,12.41 1.94,2.89 3.05,6.59 6.03,8.38 2.21,1.33 4.96,1.28 7.54,1.12 8.83,-0.56 17.6,-2.02 26.13,-4.35 2.36,-0.64 4.78,-1.4 6.61,-3.02 3.05,-2.7 3.77,-7.11 4.21,-11.16 0.97,-8.87 1.54,-17.78 1.69,-26.69 -0.05,3.01 4.01,9.13 5.38,12.22 2.03,4.57 3.68,10.25 6.5,14.38 5.25,7.69 17,1.54 23.69,-2.53 6.81,-4.15 13.47,-9.17 21.35,-10.45 4.08,-0.66 7.94,-0.69 11.68,-0.91 V 662.73 c -5.73,-1.03 -11.73,-2.08 -13.31,-6.08 z"
   id="path108" />
	<path
   class="st0"
   d="m 1040.11,920.37 c -7.42,3.45 -16.07,4.65 -23.91,2.3 -1.58,-0.47 -3.28,-1.09 -4.83,-0.52 -2.9,1.07 -2.95,5.09 -2.47,8.14 1.22,7.82 2.46,15.72 1.89,23.61 -0.54,7.44 -2.69,14.7 -3.14,22.14 -0.45,7.37 0.01,23.72 8.7,26.58 11.05,3.65 11.22,-6.87 17.28,-11.61 1.92,-1.5 4.5,-1.79 6.93,-1.95 10.49,-0.69 21.16,0 31.37,-2.46 10.22,-2.46 20.32,-8.92 23.38,-18.97 4.09,-13.41 -5.04,-29.77 3.16,-41.14 3.15,-4.36 8.4,-7.05 10.84,-11.84 2.37,-4.66 1.54,-10.28 0.08,-15.3 -3.54,-12.13 -10.54,-23.22 -19.96,-31.64 -0.49,-0.44 -1.08,-0.9 -1.74,-0.8 -0.68,0.1 -1.11,0.76 -1.41,1.37 -2.56,5.05 -2.88,11.17 -6.27,15.7 -2.45,3.27 -6.18,5.27 -9.33,7.86 -4.54,3.73 -7.86,8.69 -11.62,13.2 -5.25,6.31 -11.53,11.88 -18.95,15.33 z"
   id="path110" />
	<path
   class="st0"
   d="m 956.05,1069.22 c -3.85,-6.86 -7.7,-13.72 -11.55,-20.59 -0.56,-1 -1.16,-2.04 -2.11,-2.68 -1.23,-0.83 -2.82,-0.84 -4.3,-0.78 -4.98,0.18 -9.94,0.78 -14.82,1.78 -2.75,0.56 -5.51,1.27 -7.96,2.65 -3.48,1.96 -6.08,5.13 -8.5,8.3 -5.22,6.86 -10.24,14.33 -17.79,18.49 -1.92,1.05 -4.02,1.91 -5.51,3.5 -2.75,2.92 -2.72,7.4 -3.99,11.21 -2.44,7.31 -8.45,12.33 -15.58,10.85 -17.13,-3.57 -20.2,8.44 -17.05,17.89 4.05,12.12 5.19,32.98 19.63,29.96 4.19,-0.88 8.1,-4.48 12.19,-3.19 1.58,0.5 2.85,1.68 4.05,2.82 4.57,4.36 9.7,9.06 16.01,9.3 3.17,0.12 6.26,-0.93 9.26,-1.96 7.36,-2.54 10.91,-12.81 22.09,-7.62 1.81,0.84 3.89,-1.38 5.07,-2.98 1.22,-1.65 1.31,-3.84 1.43,-5.89 0.7,-11.3 4.29,-24.95 11.12,-34.2 4.68,-6.34 17.53,-12.11 17.33,-21.22 -0.11,-5.41 -6.5,-11.16 -9.02,-15.64 z"
   id="path112" />
	<path
   class="st0"
   d="m 1093.77,1151.15 c 0.83,-1.65 0.73,-3.6 0.6,-5.44 -0.54,-7.95 -1.07,-15.9 -1.61,-23.86 -0.14,-2.07 -0.31,-4.25 -1.46,-5.99 -1.35,-2.04 -3.75,-3.06 -5.78,-4.42 -6.82,-3.41 -8.68,-13.26 -10.95,-19.67 -0.15,-0.42 -0.33,-0.88 -0.73,-1.09 -0.34,-0.17 -0.74,-0.12 -1.12,-0.06 -7.12,1.17 -14.23,2.34 -21.35,3.51 3.39,-5.44 10.07,-7.61 15.35,-11.24 8.95,-6.14 10.24,-12.28 7.89,-22.83 -1.98,-8.88 -8.98,-17.67 -18.08,-17.59 -3.37,0.03 -7,1.21 -9.95,-0.42 -3.69,-2.04 -4.03,-7.08 -5.61,-11 -3.92,-8.5 -10.59,-8.1 -18.72,-6.54 -9.46,1.82 -21.51,-3.77 -31.15,-2.74 -0.82,0.09 -1.74,0.24 -2.19,0.92 -0.34,0.51 -0.3,1.18 -0.26,1.79 0.56,7.38 3.89,19.67 4.45,27.05 -3.45,-6.03 -11.67,-22.95 -18.66,-24.65 -6.95,-1.69 -12.9,6.34 -18.33,12.72 -7.15,8.4 10.3,16.39 17.33,24.67 4.65,5.47 7.32,7.1 10.67,15.81 3.84,9.99 -13.47,23.67 -18.07,32.6 -2.58,5.02 -4.67,10.58 -4.04,16.19 1.05,9.41 9.18,16.22 16.69,21.99 10.23,7.86 20.46,15.72 30.7,23.58 2.71,2.08 5.46,4.18 8.64,5.41 7.19,2.77 15.37,0.69 22.88,2.4 2.5,0.57 5,1.56 7.55,1.25 3.78,-0.46 6.57,-3.62 9.16,-6.42 8.47,-9.13 18.81,-16.52 30.19,-21.57 2.29,-1.01 4.82,-2.11 5.96,-4.36 z"
   id="path114" />
	<path
   class="st0"
   d="m 1143.43,906.27 c -0.94,0.06 -1.76,0.62 -2.51,1.17 -7.75,5.67 -14.79,12.31 -20.9,19.72 -1.25,1.52 -2.49,3.11 -3.07,4.99 -0.76,2.47 -0.31,5.12 0.08,7.67 1.25,8.02 1.9,16.13 1.96,24.25 0.03,4.05 -0.11,8.19 -1.59,11.96 -4.14,10.52 -17.43,20.52 -26.11,27.36 -6.8,5.36 -17.17,9.63 -22.2,16.89 -5.47,7.89 -0.03,13.75 6.62,18.79 10.05,7.6 16.76,14.09 18.72,27.21 1.06,7.11 -4.07,23.55 7.32,24.04 6.32,0.27 12.23,-0.34 18.21,2.31 1.98,0.88 4,1.95 6.16,1.81 2.33,-0.15 4.31,-1.67 6.09,-3.18 24.65,-20.75 42.09,-49.48 67.78,-68.7 v -81.21 c -17.39,-12.27 -35.38,-23.69 -53.89,-34.2 -0.82,-0.45 -1.72,-0.93 -2.67,-0.88 z"
   id="path116" />
	<path
   class="st0"
   d="m 1173.54,1067.7 c -2.08,1.33 -3.28,3.65 -4.39,5.85 -4.26,8.48 -8.52,16.96 -12.77,25.44 -1.43,2.85 -2.94,5.79 -5.45,7.75 -2.65,2.06 -6.07,2.75 -9.34,3.52 -8.99,2.12 -17.76,5.23 -26.07,9.25 -3.23,1.56 -6.55,3.4 -8.41,6.48 -1.36,2.24 -1.79,4.91 -2.1,7.51 -0.59,4.91 -2.93,15.98 -0.59,20.5 2.54,4.91 9.84,1.93 15.13,1.16 13.52,-1.98 26.92,-4.62 40.33,-7.23 10.7,-2.08 23.37,8.15 32.48,12.99 2.12,1.12 4.82,3.34 7.66,5.37 v -100.7 c -6.5,0.08 -13.01,0.25 -19.51,0.54 -2.42,0.11 -4.95,0.27 -6.97,1.57 z"
   id="path118" />
	<path
   class="st0"
   d="m 1129.73,855.47 c -4.13,3.55 -7.11,12.86 -5.64,18.13 2.02,7.22 14.81,12.82 20.87,16.97 7.07,4.84 14.89,8.83 22.41,12.93 9.96,5.42 19.92,10.89 30.22,15.67 0.69,0.32 1.51,0.75 2.41,1.24 v -92.62 c -21.21,7.07 -42.14,15.78 -62.85,23.79 -2.62,1.02 -5.29,2.07 -7.42,3.89 z"
   id="path120" />
	<path
   class="st0"
   d="m 10.9,616.38 c 5.85,-8.65 13.28,-16.24 21.8,-22.28 1.1,-0.78 2.29,-1.64 2.64,-2.94 0.32,-1.18 -0.15,-2.42 -0.62,-3.55 C 30.24,576.85 24.89,566.45 18.74,556.55 15.76,551.75 12.41,546.89 7.49,544.1 5.16,542.77 2.63,541.99 0,541.56 v 87.77 c 4.7,-2.98 7.72,-8.25 10.9,-12.95 z"
   id="path122" />
	<path
   class="st0"
   d="M 64.27,458.1 C 58.44,433.95 44.66,386.15 26.9,377.25 17.93,372.76 8.97,368.26 0,363.77 v 151.27 c 2.15,-1.37 4.05,-2.77 5.56,-4.12 17.93,-16.04 64.4,-29.27 58.71,-52.82 z"
   id="path124" />
	<path
   class="st0"
   d="m 20.66,352.88 c 3.32,-2.53 4.32,-7.18 3.86,-11.33 -0.46,-4.15 -2.11,-8.06 -3.14,-12.11 -2,-7.9 -1.53,-16.41 1.31,-24.04 0.9,-2.43 2.07,-4.95 1.59,-7.5 -0.37,-1.95 -1.65,-3.59 -2.9,-5.14 -4.06,-5.06 -8.13,-10.13 -12.19,-15.19 -1.31,-1.63 -2.67,-3.3 -4.53,-4.25 -1.43,-0.73 -3.06,-0.95 -4.67,-0.85 v 76.59 c 2.27,1.28 4.49,2.69 6.84,3.8 4.39,2.07 9.98,2.96 13.83,0.02 z"
   id="path126" />
	<path
   class="st0"
   d="m 35.89,243.93 c 0.76,-1.27 0.6,-2.86 0.43,-4.33 -2.36,-19.69 -15.49,-37.81 -17.85,-57.51 -0.2,-1.63 -0.43,-3.35 -1.45,-4.63 C 15.92,176.09 14.14,175.5 12.46,175 8.35,173.78 4.19,172.73 0,171.8 v 88.89 c 10.54,-4.77 25.35,-10.17 33.18,-14.55 1.03,-0.57 2.11,-1.19 2.71,-2.21 z"
   id="path128" />
	<path
   class="st0"
   d="m 10.43,149.41 c 1.95,0.24 3.76,-0.95 5.37,-2.08 2.39,-1.68 4.77,-3.36 7.16,-5.04 1.51,-1.06 3.08,-2.2 3.83,-3.88 0.79,-1.76 0.54,-3.78 0.25,-5.68 -2.01,-13.01 -5.43,-26.9 0.03,-38.88 1.43,-3.13 3.46,-6.15 3.57,-9.59 0.12,-4.1 -2.52,-7.68 -4.67,-11.18 C 21.59,65.96 18.84,57.84 18.01,49.52 17.6,45.4 17.62,41.13 15.97,37.33 13.21,31 6.98,27.92 0,26.4 v 115.35 c 2.15,1.81 4.3,3.62 6.45,5.44 1.18,0.99 2.45,2.03 3.98,2.22 z"
   id="path130" />
	<path
   class="st0"
   d="m 26.87,793 c 4.59,-7.51 7.89,-16.12 11.38,-23.66 6.11,-13.21 19.42,-22.94 23.72,-37.03 4.8,-15.71 -17.21,-29.38 -27.24,-40.07 -7.87,-8.38 -15.41,-20.6 -25.17,-26.78 -2.25,-1.42 -5.86,-2.07 -9.57,-2.74 v 147.74 c 5.8,-0.34 11.28,-1.14 16.74,-5.5 4.09,-3.25 7.35,-7.4 10.14,-11.96 z"
   id="path132" />
	<path
   class="st0"
   d="m 14.89,1009.12 c 0.87,-2.27 0.97,-4.76 1.06,-7.19 0.47,-12.68 0.95,-25.36 1.42,-38.04 0.1,-2.76 0.19,-5.61 -0.86,-8.17 -1.33,-3.26 -4.28,-5.52 -7.12,-7.6 -3.11,-2.28 -6.25,-4.52 -9.4,-6.74 v 81.21 c 1.42,-1.06 2.87,-2.11 4.34,-3.11 4.16,-2.82 8.77,-5.68 10.56,-10.36 z"
   id="path134" />
	<path
   class="st0"
   d="m 11.88,1170.17 c 0.56,-0.28 1.09,-0.68 1.58,-1.22 4.78,-5.23 5.2,-14.03 7.24,-20.58 2.68,-8.61 5.71,-17.32 5.85,-26.44 0.04,-2.22 -0.49,-4.41 -1.01,-6.57 -3.14,-13.06 -4.63,-26.44 -7.09,-39.63 -2.22,-11.9 -6.6,-10.27 -17.29,-10.16 -0.39,0 -0.78,0.02 -1.17,0.02 v 100.7 c 4.14,2.96 8.56,5.55 11.89,3.88 z"
   id="path136" />
	<path
   class="st0"
   d="m 15.62,925.07 c 8.26,-4.3 11.19,-27.37 13.49,-34.09 3.42,-9.96 7.05,-21.36 5.21,-32.06 -1.29,-7.47 -2.65,-14.99 -4.8,-22.27 -2.92,-9.86 -4.16,-16.55 -14.95,-13.42 -4.87,1.42 -9.73,2.95 -14.58,4.56 v 92.62 c 4.06,2.2 9.8,5.56 13.24,5.34 0.85,-0.05 1.64,-0.29 2.39,-0.68 z"
   id="path138" />
	<path
   class="st0"
   d="m 179.95,94.54 c -1.19,2.14 -2.29,4.82 -1.01,6.91 1.02,1.66 3.15,2.2 5.06,2.6 10.48,2.18 20.8,5.18 31.02,8.61 12.16,4.08 24.17,8.77 36.14,13.41 14.2,5.5 28.86,9.75 43.33,14.47 2.39,0.78 4.94,1.56 7.39,0.96 2.16,-0.53 3.91,-2.06 5.53,-3.58 5.59,-5.24 10.74,-10.96 15.35,-17.07 2.18,-2.89 4.31,-5.93 7.31,-7.97 2.82,-1.92 6.19,-2.8 9.48,-3.65 17.25,-4.46 34.5,-8.92 51.76,-13.38 2.39,-0.62 4.82,-1.25 6.93,-2.54 2.93,-1.79 5,-4.69 6.9,-7.55 7.65,-11.55 14.01,-23.95 18.92,-36.9 -4.39,-3.12 -8.54,-5.64 -12.93,-8.76 C 396.32,29.57 380.67,17.95 374.68,0.79 374.53,0.36 374.39,-0.07 374.24,-0.5 H 273.9 c -18.94,17.54 -37.88,35.08 -56.82,52.62 -13.84,12.82 -27.92,25.94 -37.13,42.42 z"
   id="path140" />
	<path
   class="st0"
   d="m 31.85,18.11 c -3.46,7.35 1.09,7.41 6.12,10.75 6.18,4.11 4.56,14.45 9.57,20.23 3.83,4.41 8.83,7.65 12.98,11.72 11.25,11.06 22.8,21.81 34.64,32.23 2.23,1.96 4.56,3.96 7.4,4.8 2.54,0.76 5.27,0.51 7.89,0.07 5.34,-0.9 10.51,-2.59 15.85,-3.52 4.17,-0.73 8.49,-0.08 12.57,-0.81 7.33,-1.32 11.15,-7.87 15.75,-12.75 3.17,-3.36 37.1,-35.84 36.98,-36.04 -3.94,-5.98 -5.81,-13.3 -5.21,-20.44 5.52,1.57 11.04,3.14 16.56,4.71 1.55,0.44 3.19,0.88 4.75,0.5 1.64,-0.4 2.92,-1.64 4.11,-2.83 9.14,-9.09 18.45,-18.04 27.48,-27.24 H 44.6 c -0.95,1.66 -1.7,2.96 -2.11,3.6 -3.33,5.12 -8.02,9.45 -10.64,15.02 z"
   id="path142" />
	<path
   class="st0"
   d="m 112.41,203.79 c 18.68,10 35.19,24.01 48.1,40.81 1.68,2.19 4.19,4.71 6.75,3.67 0.72,-0.29 1.3,-0.84 1.86,-1.37 13.41,-12.87 24.74,-27.76 37.79,-41 6.69,-6.79 13.83,-13.21 21.73,-18.58 5.44,-3.7 12.31,-6.11 18.41,-9.14 6.46,-3.2 5.65,-4.39 2.91,-10.25 -3.6,-7.7 -8.08,-15.01 -11.52,-22.77 -2.55,-5.77 -3.09,-5.9 -9.37,-7.57 -5.74,-1.53 -11.46,-3.14 -17.23,-4.56 -8.19,-2.02 -18.25,-3.17 -25.82,-6.95 -2.01,-0.65 -4.17,-1.29 -6.19,-0.69 -4.69,1.41 -5.46,8.29 -9.81,10.55 -1.29,-5.52 -2.57,-11.04 -3.85,-16.56 -0.21,-0.91 -0.45,-1.88 -1.11,-2.54 -0.55,-0.56 -1.32,-0.83 -2.06,-1.08 -4.84,-1.65 -9.68,-3.3 -14.52,-4.95 -2.37,-0.81 -4.83,-1.63 -7.33,-1.39 -2.48,0.24 -27.23,8.46 -27.53,10.33 -3.67,23.2 -6.57,46.53 -8.68,69.93 -0.29,3.18 -0.5,6.62 1.21,9.32 1.42,2.24 3.91,3.53 6.26,4.79 z"
   id="path144" />
	<path
   class="st0"
   d="m 229.7,208.85 c -2.72,1.26 -4.7,3.66 -6.58,5.99 -13.81,17.09 -27.62,34.18 -41.43,51.27 -7.27,9 -14.96,20.08 -25.26,25.85 -9.05,5.07 -7.35,8.28 -1.93,16.56 3.61,5.52 7.76,11.27 11.55,16.3 5.08,6.74 10.68,13.53 18.32,17.14 4.52,2.13 9.5,3.03 14.29,4.45 7.13,2.12 13.89,5.46 19.93,9.79 3.41,2.45 8.76,11.54 14.06,10.68 0.54,-0.09 1.08,-0.28 1.61,-0.59 1.48,-0.86 2.44,-2.36 3.35,-3.81 5,-7.96 10.07,-15.87 14.82,-23.98 6.46,-11.02 12.71,-22.16 18.69,-33.45 11.78,-22.21 22.52,-44.99 31.71,-68.4 0.6,-1.54 1.21,-3.1 1.35,-4.74 0.22,-2.7 -0.87,-5.35 -2.31,-7.65 -4.43,-7.05 -12.15,-11.51 -20.18,-13.7 -8.03,-2.19 -16.45,-2.36 -24.77,-2.51 -6.17,-0.11 -12.35,-0.23 -18.52,-0.34 -2.95,-0.07 -6.02,-0.1 -8.7,1.14 z"
   id="path146" />
	<path
   class="st0"
   d="m 266.54,175.96 c -0.08,2.45 -0.15,4.99 0.79,7.26 1.21,2.9 3.87,4.9 6.45,6.7 9.6,6.68 20.21,13.83 31.15,18.11 9.69,3.79 17.17,-1.8 25.96,-5.6 9.87,-4.26 19.55,-7.68 27.58,-12.95 7.53,-4.94 13.61,-11.51 17.01,-21.94 2.82,-8.65 1.93,-10.99 -6.05,-15.02 -3.95,-1.99 -8.05,-3.73 -11.96,-5.8 -7.23,-3.84 -18.07,-11.89 -26.48,-7.02 -5.61,3.25 -10.88,7.38 -16.25,11.02 -2.44,1.65 -4.93,3.33 -7.74,4.21 -9.58,2.99 -32.15,-12.37 -39.65,-1.78 -3.82,5.41 -0.6,16.64 -0.81,22.81 z"
   id="path148" />
	<path
   class="st0"
   d="m 386.64,146.2 c 7.06,4.28 15.79,1 23.28,-0.26 10.85,-1.83 21.85,-2.94 32.83,-3.51 4.43,-0.23 8.92,-0.38 13.16,-1.68 4.49,-1.39 16.75,-5.98 19.27,-9.99 3.27,-5.21 -2.29,-16.88 -3.64,-22.27 6.25,3.42 11.77,8.16 16.09,13.82 5.93,7.76 13.25,4.99 22.03,3.72 4.43,-5.59 8.86,-11.17 13.29,-16.76 0.77,-0.97 1.56,-1.98 1.79,-3.19 0.25,-1.28 -0.16,-2.6 -0.56,-3.84 -1.53,-5.55 -2.69,-11.21 -4.61,-16.65 -2.91,-8.21 -4.05,-10.42 -13.01,-9.89 -23.26,1.39 -46.54,2.56 -69.82,3.83 -2.69,0.15 -5.45,0.31 -7.9,1.43 -1.89,0.86 -3.49,2.24 -5,3.65 -5.29,4.94 -9.95,10.57 -13.8,16.7 -2.58,4.11 -4.86,8.52 -8.41,11.85 -2.67,2.51 -5.95,4.28 -9.3,5.77 -5.27,2.34 -11.54,2.84 -16.61,5.48 -6.21,3.24 -4.9,4.13 -0.81,9.38 3.37,4.31 6.98,9.53 11.73,12.41 z"
   id="path150" />
	<path
   class="st0"
   d="m 411.9,16.69 c 4.77,6.04 10.6,10.42 16,15.67 2.79,2.72 16.45,14.63 16.45,18.18 7.05,7.79 9.87,13.97 20.63,13.44 19.23,-0.95 38.48,-1.64 57.71,-2.67 1.64,-0.08 3.36,-0.13 4.81,0.62 1.05,0.54 1.84,1.45 2.62,2.34 2.7,3.1 5.34,6.33 8.68,8.73 7.44,-5.81 7.98,-17.45 16.34,-23.08 3.36,-2.26 7.22,-3.63 11.09,-4.79 8.69,-2.59 17.68,-4.17 26.74,-4.69 3.44,-0.2 7.24,-0.4 9.68,-2.83 1.57,-1.57 2.26,-3.78 2.87,-5.92 2.84,-9.94 5.06,-20.05 6.65,-30.26 0.09,-0.58 0.21,-1.24 0.34,-1.93 H 399.97 c 0.12,0.21 0.23,0.42 0.37,0.64 3.52,5.74 7.39,11.27 11.56,16.55 z"
   id="path152" />
	<path
   class="st0"
   d="m 841.1,1182.41 c -0.91,-2.27 -2.26,-4.42 -2.55,-6.85 -0.77,-6.53 6.34,-12.21 5.16,-18.68 -0.97,-5.29 -6.77,-7.91 -11.65,-10.16 -4.88,-2.26 -10.27,-6.44 -9.21,-11.71 0.46,-2.3 2.1,-4.14 3.41,-6.08 2.9,-4.29 6.59,-12.51 3.57,-17.58 -6.31,-10.58 -19.46,-1.06 -27.01,2.65 -22.04,10.83 -9.64,-7.72 -9.43,-19.19 0.11,-6.05 -2.08,-12.45 -6.99,-15.97 -6.64,-4.76 -15.73,-3.01 -23.8,-4.27 -20.69,-3.23 -34.81,-26.49 -55.74,-27.07 -1.94,17.01 -4.41,35.23 -15.94,47.88 -2.96,3.26 -6.47,6.05 -8.93,9.71 -3.18,4.72 -4.36,10.47 -6.06,15.9 -2.63,8.4 -6.68,16.35 -11.91,23.43 -4.53,6.12 -9.95,11.62 -13.73,18.23 -6.46,11.28 -7.43,24.37 -9.9,36.87 h 201.26 c 1.17,-5.88 1.64,-11.63 -0.55,-17.11 z"
   id="path154" />
	<path
   class="st0"
   d="m 964.77,1170.18 c -2.68,-1.29 -5.83,-0.92 -8.77,-0.52 -26.46,3.59 -52.89,7.36 -79.3,11.31 -3.46,0.52 -7.19,1.18 -9.57,3.73 -2.04,2.18 -2.65,5.3 -3.12,8.25 -0.34,2.13 -0.59,4.32 -0.76,6.55 h 123.24 c -5.22,-8.26 -10.7,-16.34 -16.47,-24.22 -1.47,-1.99 -3.03,-4.04 -5.25,-5.1 z"
   id="path156" />
	<path
   class="st0"
   d="m 1152.02,1171.7 c -7.94,1.72 -15.18,5.72 -22.89,8.29 -11.12,3.71 -23.02,3.25 -34.85,2.69 -5.42,-0.25 -9.83,4.32 -9.38,9.72 0.2,2.35 0.39,4.76 0.59,7.09 H 1200 v -17.55 c 0,0 -0.01,0 -0.01,-0.01 -15.25,-7.36 -31.66,-13.77 -47.97,-10.23 z"
   id="path158" />
	<path
   class="st0"
   d="m 0,1181.95 v 17.55 h 7.74 c -0.92,-2.36 -1.67,-4.81 -1.61,-7.56 0.1,-4.24 -2.31,-8.14 -6.13,-9.99 z"
   id="path160" />
	<path
   class="st0"
   d="m 364.46,1181.82 c -2.3,-1.27 -4.96,-1.7 -7.55,-2.12 -4.55,-0.72 -9.1,-1.44 -13.65,-2.16 -2.69,-0.43 -5.52,-0.84 -8.08,0.07 -2.57,0.91 -4.88,14.99 -4.16,17.62 -2.98,-0.55 -4.42,-15.05 -6.54,-17.21 -5.96,-6.1 -16.29,-4.37 -23.8,-0.32 -7.72,4.17 -14.25,10.2 -20.69,16.16 -2.03,1.88 -4.05,3.75 -6.08,5.63 h 100.33 c -2.18,-6.67 -3.73,-14.31 -9.78,-17.67 z"
   id="path162" />
	<path
   class="st0"
   d="m 239.08,1183.17 c -6.17,-3.85 -12.38,-7.63 -18.56,-11.44 -3.47,-2.14 -7.01,-4.31 -10.97,-5.25 -3.84,-0.91 -7.85,-0.62 -11.79,-0.26 -10.96,1.02 -21.86,2.56 -32.67,4.64 -5.43,1.04 -10.98,2.22 -16.44,1.32 -3.35,-0.55 -6.47,-1.93 -9.19,-3.95 -2.19,-1.63 -4.19,-5.9 -6.27,-7.01 -3.11,-1.65 -7.16,-0.03 -10.39,0.91 -8.53,2.48 -16.54,6.33 -24.84,9.41 -12.69,4.72 -26.08,7.54 -39.6,8.33 -2.69,0.16 -9.92,12.9 -13.77,19.62 h 194.69 c 1.21,-1.23 2.42,-2.45 3.62,-3.68 6.1,-6.31 2.84,-8.49 -3.82,-12.64 z"
   id="path164" />
	<path
   class="st0"
   d="m 614.17,1175.8 c -0.2,-0.46 -0.43,-0.87 -0.7,-1.24 -5.19,-7.04 -16.89,-8.99 -24.33,-12.92 -10.76,-5.68 -20.88,-12.67 -32.65,-16.18 -12.97,-3.87 -27.14,-2.68 -40.43,-1.6 -1.62,0.13 -3.36,0.33 -4.59,1.4 -1.3,1.14 -1.7,2.97 -2.02,4.66 -1.62,8.52 -3.24,17.03 -4.87,25.55 -5,-10.51 -13.68,-19.22 -24.17,-24.25 -3.06,-1.47 -6.44,-2.66 -9.81,-2.16 -2.24,0.33 -4.3,1.38 -6.32,2.42 -16.22,8.36 -31.96,17.6 -47.89,26.5 -8.86,4.95 -23.44,9.2 -16.44,21.52 H 612.5 c 1.27,-6.7 4.02,-18.21 1.67,-23.7 z"
   id="path166" />
	<path
   class="st0"
   d="m 43.11,213.04 c 0.94,5.16 1.35,23.27 5.11,26.77 9.15,8.51 30.03,-14.15 36.5,-20.62 2.32,-2.32 4.6,-4.79 5.86,-7.82 1.29,-3.11 1.39,-6.57 1.47,-9.93 0.55,-23.23 1.1,-46.46 1.65,-69.7 0.05,-2.09 0.07,-4.31 -0.97,-6.13 -0.74,-1.3 -1.95,-2.25 -3.13,-3.17 -9.84,-7.7 -20.84,-21.42 -30.98,-30.69 -2.04,-1.86 -5.32,-0.86 -5.99,1.81 -4.87,19.54 -8.7,44.48 -13.8,62.83 -1.22,4.4 -2.45,8.84 -2.64,13.4 -0.18,4.4 0.62,8.78 1.41,13.11 1.83,10.04 3.67,20.09 5.51,30.14 z"
   id="path168" />
	<path
   class="st0"
   d="m 139.2,281.9 c 1.41,-1.59 2.84,-3.24 3.6,-5.22 0.69,-1.83 0.77,-3.82 0.83,-5.78 0.17,-5.08 0.33,-10.16 0.5,-15.24 0.06,-1.83 0.11,-3.72 -0.6,-5.4 -0.94,-2.23 -3.04,-3.71 -5.04,-5.08 -8.08,-5.52 -16.15,-11.03 -24.23,-16.55 -1.53,-1.05 -3.2,-2.13 -5.05,-2.07 -1.68,0.06 -3.17,1.06 -4.55,2.02 -11.48,8.04 -22.86,16.23 -34.13,24.57 -1.04,0.77 -2.14,1.62 -2.55,2.84 -0.45,1.31 -0.02,2.73 0.41,4.04 1.45,4.47 2.9,8.93 4.36,13.4 -4.41,-1.56 -7.82,-5.02 -11.61,-7.77 -3.79,-2.74 -8.68,-4.87 -13.06,-3.25 -2.03,0.75 -3.7,2.23 -5.32,3.67 -4.35,3.88 -8.71,7.77 -13.06,11.65 -0.98,0.88 -2,1.8 -2.5,3.02 -0.67,1.61 -0.33,3.45 0.04,5.16 3.18,14.99 7.17,29.81 11.94,44.38 0.71,2.15 3.02,3.32 5.19,2.65 23.89,-7.43 45.95,-12.94 70.42,-19.34 7.82,-8.88 16.57,-22.82 24.41,-31.7 z"
   id="path170" />
	<path
   class="st0"
   d="m 279.32,338.2 c -1.43,0.24 -2.51,1.35 -3.48,2.4 -12.92,14.03 -24.42,29.32 -34.29,45.58 l -1.55,4.56 c 2.15,15.02 4.79,29.96 7.72,44.84 1.47,7.43 3.01,14.84 4.6,22.24 1.25,5.82 1.53,17.69 5.13,22.4 8.89,11.63 36.78,-3.45 47.31,-6.1 4.8,-1.21 9.74,-2.48 13.67,-5.45 3.59,-2.71 6.03,-6.6 8.39,-10.4 3.14,-5.07 6.28,-10.13 9.42,-15.2 1.49,-2.4 3,-4.85 3.57,-7.61 0.66,-3.17 0.03,-6.46 -0.61,-9.65 -3.9,-19.61 -7.81,-39.21 -11.71,-58.82 -0.36,-1.81 -0.75,-3.68 -1.84,-5.18 -1.19,-1.63 -3.08,-2.61 -4.89,-3.54 -12.44,-6.34 -24.88,-12.68 -37.33,-19.01 -1.29,-0.63 -2.69,-1.31 -4.11,-1.06 z"
   id="path172" />
	<path
   class="st0"
   d="m 82.89,463.05 c -0.2,10 41.01,-6.4 61.88,-7.86 2.34,-0.16 4.73,-0.34 6.86,-1.31 4.97,-2.27 9.58,-7.78 13.33,-11.72 10.17,-10.71 6.95,-15.44 34.9,-17.06 6.25,-0.36 18.26,2.21 22.95,-3.25 1.49,-1.73 1.7,-4.28 -0.1,-8.02 -8.1,-16.76 -16.09,-33.5 -23.51,-50.57 -0.43,-0.98 -0.87,-1.98 -1.61,-2.75 -5.17,-5.33 -13.93,-6.73 -20.76,-8.67 -8.29,-2.35 -10.29,0.98 -18.07,3.08 -1.99,0.54 -9.73,-4.93 -11.75,-5.35 -7.5,-1.56 -14.72,-3.93 -22.03,-6.14 -2.49,-0.75 -5.07,-1.54 -7.65,-1.22 -2.16,0.27 -4.15,1.29 -6.08,2.29 -16.31,8.46 -40.58,17.79 -53.9,31.11 -1.8,1.8 -2.33,4.5 -1.33,6.84 5.3,12.46 17.11,24.54 21.57,37.14 4.55,12.86 3.41,29.93 5.3,43.46 z"
   id="path174" />
	<path
   class="st0"
   d="m 72.79,532.69 c 1.39,-0.49 2.84,-1.02 3.83,-2.11 0.92,-1 1.33,-2.36 1.72,-3.66 1.4,-4.72 2.81,-9.44 4.21,-14.15 2.48,2.49 4.77,8.77 8.18,9.95 2.67,0.92 6.19,-1.77 8.8,-3.12 8.25,-4.26 16.4,-8.73 24.4,-13.45 4.5,-2.66 36.61,-19.55 31.73,-27.51 -1.56,-2.54 -6.56,-3.62 -9.76,-3.9 -7.66,-0.67 -15.36,0.22 -23.02,0.54 -12.45,0.52 -29.24,-3.18 -41.6,-1.68 -3.81,0.46 -7.76,1.04 -10.95,3.16 -2.62,1.75 -4.49,4.38 -6.31,6.96 -6.91,9.82 -9.36,19.59 -16.26,29.41 -4.74,6.74 -10.96,19.33 -14.97,26.86 -3.28,6.15 -1.35,8.13 5.63,7.02 12.42,-1.97 22.73,-10.19 34.37,-14.32 z"
   id="path176" />
	<path
   class="st0"
   d="m 54.24,837.33 c 1.66,1.95 2.82,5.52 1.92,9.46 -0.27,1.19 1.33,2.02 2.51,1.73 3.11,-0.77 6.28,-1.29 9.47,-1.57 3.18,-0.28 12.09,1.78 12.12,-1.41 0.11,-10.34 1.63,-18.04 4.66,-25.45 1.43,-3.49 0.48,-8.64 0.03,-12.39 -0.63,-5.3 -5.06,-9.24 -9.26,-12.53 -10.35,-8.1 -30.66,-37.1 -31.33,-26.64 0.31,16.73 6.86,37.03 2.07,53.06 -0.72,2.41 -2.66,4.53 -6.23,8.5 -1.83,2.03 0.92,5.94 3.39,10.39 8.65,15.54 11.44,0.13 10.65,-3.15 z"
   id="path178" />
	<path
   class="st0"
   d="m 116.84,739.78 c 4.84,-0.43 5.33,-7.2 5.72,-10.83 0.85,-7.82 1.65,-15.64 2.46,-23.47 0.47,-4.6 2.93,-11.19 0.89,-15.68 -0.67,-1.47 -1.91,-2.7 -3.43,-3.74 -6.22,-4.24 -15.14,-5.94 -22.21,-8.49 -22.15,-7.98 -43.94,-17.49 -66.7,-23.72 -11.06,-3.02 13.03,21.03 15.2,23.67 14.57,17.68 26.17,36.38 33.34,58.69 4.14,12.9 24.77,4.46 34.73,3.57 z"
   id="path180" />
	<path
   class="st0"
   d="m 138.44,734.23 c 13.83,-3.12 27.59,-7.04 36.15,-10.45 0.46,-0.18 0.98,-0.39 1.17,-0.85 0.13,-0.31 0.08,-0.65 0.03,-0.98 -1.56,-10.27 -7.37,-27.87 -8.93,-38.14 -0.07,-0.48 -0.15,-0.98 -0.45,-1.36 -0.69,-0.9 -2.08,-0.67 -3.17,-0.36 -7.36,2.12 -14.66,4.44 -21.89,6.94 -1.08,0.37 -2.22,0.8 -2.92,1.71 -0.6,0.78 -0.77,1.79 -0.92,2.76 -1.44,9.52 -11.12,43.45 0.93,40.73 z"
   id="path182" />
	<path
   class="st0"
   d="m 78.51,646.01 c 1.55,3.19 13.53,5.88 16.94,7.5 6.73,3.2 13.27,6.27 20.66,7.67 3.64,0.69 24.26,8.77 27.95,9.1 36.35,3.28 28.72,-24.67 70.64,-62.57 12.75,-11.53 21.49,-26.74 30.71,-38.64 3.43,-4.42 7.17,-10.47 4.04,-15.11 -0.9,-1.34 -2.27,-2.3 -3.19,-3.63 -4.63,-6.69 4.81,-14.86 4.61,-22.99 -0.17,-6.99 -7.2,-11.53 -13.38,-14.78 -7.03,-3.7 -14.07,-7.4 -21.1,-11.1 -0.79,-0.41 -1.62,-0.84 -2.51,-0.81 -1.37,0.05 -2.44,1.16 -3.34,2.19 -5.58,6.42 -10.76,13.19 -15.5,20.25 3.13,-6.15 7.32,-11.92 9.47,-18.54 3.3,-10.16 -5.51,-10.13 -11.65,-15.58 -4.16,-3.69 -7.99,-8.39 -13.44,-9.48 -7.87,-1.58 -14.76,4.95 -20.54,10.52 -10.67,10.29 -22.73,19.13 -35.77,26.18 -2.01,1.09 -4.2,2.29 -5.1,4.4 -0.61,1.42 -0.52,3.02 -0.43,4.56 0.35,5.75 0.71,11.5 1.06,17.25 -4.15,-5.01 -8.3,-10.03 -12.45,-15.04 -0.92,-1.12 -2.02,-2.32 -3.46,-2.41 -1.56,-0.09 -2.84,1.14 -3.93,2.26 -9.11,9.32 -20.28,16.62 -32.48,21.2 -1.77,0.67 -3.63,1.31 -5.01,2.6 -3.14,2.92 -2.92,8.08 -5.57,11.44 -2.04,2.59 -5.53,3.77 -7.41,6.48 -2.38,3.43 -1.46,8.06 -0.62,12.15 1.64,7.95 2.61,16.17 1.28,24.17 -1,6 -6.38,10.49 -7.97,16.29 -2.27,8.29 3.19,10.41 9.36,14.94 1.47,1.08 3.07,2.2 4.89,2.2 1.52,0 2.92,-0.79 4.19,-1.64 13.17,-8.83 20.05,-25.76 34.53,-32.23 -3.71,6.67 -6.92,13.62 -9.63,20.75 -1.51,3.98 -7.84,16.35 -5.85,20.45 z"
   id="path184" />
	<path
   class="st0"
   d="m 227.9,435.18 c -2.96,-0.81 -6.07,0.36 -8.91,1.53 -5.51,2.27 -11.07,4.72 -16.91,6.04 -4.05,0.92 -11.27,-0.12 -14.51,2.77 -6.01,5.36 -1.62,22.92 4.06,26.79 13.64,9.31 32.3,16.84 48.9,25.31 4.45,2.27 9.38,-2.12 7.59,-6.78 -6.48,-16.91 -7.72,-32.32 -12.25,-45.28 -1.48,-4.3 -3.58,-9.18 -7.97,-10.38 z"
   id="path186" />
	<path
   class="st0"
   d="m 69.22,1027.04 c 3.34,2.03 6.76,4.1 10.59,4.89 8.72,1.8 17.21,-3.29 24.86,-7.86 31.29,-18.69 69.81,6.36 100.5,-13.34 4.8,-3.08 7.6,-6.68 8.89,-10.61 5.97,-18.2 -20.46,-43.52 -30.62,-57.77 -6.67,-9.36 -28.19,-17.13 -39.46,-19.4 -9.13,-1.83 -18.82,1.97 -27.8,-0.49 C 105.53,919.54 99.2,908.97 93.35,899.6 87.5,890.23 79.42,880.27 68.38,880.02 c -2.51,15.34 -5.06,30.87 -11.27,45.13 -3.85,8.85 -9.06,17.09 -12.47,26.12 -4.92,13.03 -7.39,28.68 -7.32,42.56 0.1,22.89 14.45,22.58 31.9,33.21 z"
   id="path188" />
	<path
   class="st0"
   d="m 260.58,1053.85 c -7.45,-12.19 -9.47,-11.67 -21.87,-26.52 -2.23,-2.67 -4.64,-5.41 -7.91,-6.57 -2.71,-0.97 -5.69,-0.73 -8.56,-0.44 -11.22,1.13 -22.39,2.86 -33.43,5.18 -3.84,0.81 -7.75,1.72 -11.07,3.81 -6.55,4.13 -9.35,11.69 -10.87,19.54 -0.46,-3.35 -2.01,-6.64 -4.26,-9.19 -4.03,-4.58 -9.89,-7.15 -15.77,-8.77 -3.67,-1.01 -7.51,-1.72 -11.28,-1.19 -7.82,1.1 -13.91,7.17 -21.13,10.38 -9.87,4.39 -21.17,3.18 -31.97,3.17 -10.8,-0.01 -22.79,1.9 -29.54,10.33 -5.14,6.43 -6.03,15.16 -6.71,23.37 -1.75,21.13 -3.51,42.27 -5.26,63.4 -0.57,6.89 -0.7,13.72 -1.26,20.61 -1.16,14.14 15.54,5.68 22.95,2.35 5.45,-2.45 16.56,-5.67 20.54,-10.19 l -0.25,0.11 c 0.1,-0.05 0.2,-0.1 0.3,-0.15 0.02,-0.03 0.06,-0.05 0.08,-0.08 4.61,-5.44 5.06,-19.57 6.65,-26.51 2.96,5.04 5.5,10.33 7.6,15.78 0.69,1.8 2.69,2.67 4.5,2.02 0.01,0 0.02,-0.01 0.03,-0.01 12.38,-4.45 25.09,-9.63 38.19,-8.51 12.31,1.05 23.85,7.61 36.2,7.37 7.85,-0.15 15.37,-3.06 22.59,-6.17 29.53,-12.74 45.99,-43.76 61.8,-73.93 1.52,-2.9 1.42,-6.39 -0.29,-9.19 z"
   id="path190" />
	<path
   class="st0"
   d="m 384.74,1068.36 c 2.18,-5.6 6.96,-13.48 3.19,-19.7 -4.57,-7.53 -25.4,-13.99 -33.63,-15.81 -6.23,-1.38 -12.28,-0.67 -20.04,3.24 -11.84,5.98 -26.85,5.01 -39.68,6.85 -4.25,0.61 -15.46,1.22 -18.09,5.33 -4.21,6.59 2.63,17.82 1.01,25.14 -2.36,10.71 -12.66,21.16 -18.94,29.78 -10.1,13.87 -21.32,27 -33.56,39.03 -2.28,2.24 -1.92,5.98 0.74,7.76 5.84,3.91 12.95,7.62 19.43,11.19 5.36,2.95 13.85,11.03 19.89,11.51 2.04,0.16 3.88,-1.12 5.52,-2.34 8.58,-6.38 16.98,-13.03 25.95,-18.88 12.87,-8.4 10.3,-1.23 21.54,3.05 9.77,3.72 17.79,-11.68 22.72,-17.86 8.69,-10.9 17.26,-21.9 25.7,-33.01 7.73,-10.18 13.64,-23.42 18.25,-35.28 z"
   id="path192" />
	<path
   class="st0"
   d="m 502.25,1086 c -0.1,-0.08 -0.21,-0.16 -0.32,-0.23 -8.6,-5.33 -17.39,-10.35 -26.35,-15.04 -1.11,-0.58 -2.27,-1.17 -3.52,-1.2 -6.15,-0.17 -12.93,4.88 -19.53,5.21 -6.38,0.31 -13.29,-0.86 -18.96,-3.91 -5.63,-3.02 -10.06,-8.56 -16.8,-9.31 -1.3,-0.15 -2.71,-0.24 -3.83,0.43 -0.86,0.52 -1.41,1.43 -1.93,2.29 -17.02,28.69 -39.91,67.5 -58.85,91.66 -1.04,1.33 -0.44,3.28 1.17,3.83 11.61,3.96 27.54,14.02 38.24,11.79 3.81,-0.79 7.21,-2.85 10.53,-4.88 6.56,-4 13.11,-7.99 19.67,-11.99 14.08,-8.58 28.22,-17.19 43.45,-23.52 14.07,-5.85 19.02,4.86 32.68,7.38 1.61,0.3 3.04,-1.07 2.85,-2.69 -1.64,-14.25 10.79,-42.16 1.5,-49.82 z"
   id="path194" />
</g>

</svg>
