<?xml version="1.0" encoding="UTF-8" standalone="no"?>
<!-- Created with Inkscape (http://www.inkscape.org/) -->

<svg
   width="122.2785mm"
   height="91.679123mm"
   viewBox="0 0 122.2785 91.679123"
   version="1.1"
   id="svg9488"
   inkscape:version="1.1.2 (0a00cf5339, 2022-02-04)"
   sodipodi:docname="recover.svg"
   xmlns:inkscape="http://www.inkscape.org/namespaces/inkscape"
   xmlns:sodipodi="http://sodipodi.sourceforge.net/DTD/sodipodi-0.dtd"
   xmlns:xlink="http://www.w3.org/1999/xlink"
   xmlns="http://www.w3.org/2000/svg"
   xmlns:svg="http://www.w3.org/2000/svg">
  <sodipodi:namedview
     id="namedview9490"
     pagecolor="#505050"
     bordercolor="#eeeeee"
     borderopacity="1"
     inkscape:pageshadow="0"
     inkscape:pageopacity="0"
     inkscape:pagecheckerboard="0"
     inkscape:document-units="mm"
     showgrid="false"
     inkscape:zoom="1.1224747"
     inkscape:cx="-9.799775"
     inkscape:cy="171.49606"
     inkscape:window-width="1857"
     inkscape:window-height="1044"
     inkscape:window-x="63"
     inkscape:window-y="0"
     inkscape:window-maximized="1"
     inkscape:current-layer="layer1" />
  <defs
     id="defs9485">
    <clipPath
       clipPathUnits="userSpaceOnUse"
       id="clipPath1298">
      <path
         d="m 3545.3,476.211 c -226.3,13.199 -658.54,15.168 -1178.98,15.437 21.74,18.032 35.48,44.692 35.45,74.422 l -1.15,1167.33 h 229.34 c 100.06,0 181.18,-75.64 181.18,-168.94 0,-93.3 -81.12,-168.93 -181.18,-168.93 h 227.94 c 249.03,0 455.77,-168.34 496.8,-389.6 h 79.81 c 155.28,0 281.16,-117.371 281.16,-262.149 V 717.23 c 0,-108.109 -70.18,-200.929 -170.37,-241.019 m -2928.109,6.738 c -194.128,65.43 -332.863,238.781 -332.863,442.352 0,259.709 225.801,470.229 504.328,470.229 h 320.874 l 0.82,-830.671 c 0.03,-29.757 13.85,-56.418 35.66,-74.398 -207.432,-1.141 -387.658,-3.332 -528.819,-7.512 M 1109.19,1733.4 H 677.688 c -217.247,0 -393.36,164.2 -393.36,366.76 0,202.56 176.113,366.76 393.36,366.76 h 82.054 c -38.379,30.97 -62.699,76.69 -62.699,127.74 0,93.3 81.121,168.93 181.184,168.93 h 273.103 c -27.62,22.16 -45.18,54.94 -45.18,91.57 0,66.76 58.04,120.88 129.64,120.88 h 685.74 c 71.6,0 129.65,-54.12 129.65,-120.88 0,-66.75 -58.05,-120.87 -129.65,-120.87 h -256.76 c -15.06,-9.58 -28.49,-21.23 -39.83,-34.49 l -411.71,-0.38 c -57.99,-0.06 -104.94,-45.23 -104.89,-100.88 l 0.85,-865.14 m 1291.27,166.95 -0.4,400.17 c 40.37,-57.59 63.84,-126.42 63.84,-200.36 0,-73.7 -23.32,-142.32 -63.44,-199.81"
         id="path1296" />
    </clipPath>
    <linearGradient
       inkscape:collect="always"
       xlink:href="#linearGradient1306"
       id="linearGradient6732"
       gradientUnits="userSpaceOnUse"
       gradientTransform="matrix(0,-4000,-4000,0,2000,4000)"
       x1="0"
       y1="0"
       x2="1"
       y2="0"
       spreadMethod="pad" />
    <linearGradient
       x1="0"
       y1="0"
       x2="1"
       y2="0"
       gradientUnits="userSpaceOnUse"
       gradientTransform="matrix(0,-4000,-4000,0,2000,4000)"
       spreadMethod="pad"
       id="linearGradient1306">
      <stop
         style="stop-opacity:1;stop-color:#dbf5fe"
         offset="0"
         id="stop1300" />
      <stop
         style="stop-opacity:1;stop-color:#dbf5fe"
         offset="0.2235422"
         id="stop1302" />
      <stop
         style="stop-opacity:1;stop-color:#b0ebff"
         offset="1"
         id="stop1304" />
    </linearGradient>
    <clipPath
       clipPathUnits="userSpaceOnUse"
       id="clipPath1316">
      <path
         d="m 2288.95,2734.29 c -65.04,0 -117.77,54.12 -117.77,120.87 0,66.76 52.73,120.88 117.77,120.88 65.05,0 117.78,-54.12 117.78,-120.88 0,-66.75 -52.73,-120.87 -117.78,-120.87"
         id="path1314" />
    </clipPath>
    <clipPath
       clipPathUnits="userSpaceOnUse"
       id="clipPath1334">
      <path
         d="m 1982.76,394.262 c -947.53,0 -1698.432,9.019 -1698.432,53.918 0,18.019 123.621,28.582 332.863,34.769 53.528,-18.039 111.27,-27.867 171.465,-27.867 H 970.797 2857.9 3434.51 c 39.34,0 76.79,7.527 110.79,21.129 109.16,-6.371 170.37,-15.352 170.37,-28.031 0,-44.899 -785.36,-53.918 -1732.91,-53.918"
         id="path1332" />
    </clipPath>
    <linearGradient
       x1="0"
       y1="0"
       x2="1"
       y2="0"
       gradientUnits="userSpaceOnUse"
       gradientTransform="matrix(0,-4000,-4000,0,2000,4000)"
       spreadMethod="pad"
       id="linearGradient1342">
      <stop
         style="stop-opacity:1;stop-color:#dddcdc"
         offset="0"
         id="stop1336" />
      <stop
         style="stop-opacity:1;stop-color:#dddcdc"
         offset="0.2235422"
         id="stop1338" />
      <stop
         style="stop-opacity:1;stop-color:#9ecdde"
         offset="1"
         id="stop1340" />
    </linearGradient>
    <clipPath
       clipPathUnits="userSpaceOnUse"
       id="clipPath1352">
      <path
         d="M 3434.51,455.082 H 788.656 c -60.195,0 -117.937,9.828 -171.465,27.867 141.161,4.18 321.387,6.371 528.819,7.512 17.9,-14.762 41.18,-23.68 66.63,-23.68 0.03,0 0.06,0 0.09,0 l 1086.86,1.02 c 25.51,0.019 48.83,9.012 66.73,23.847 520.44,-0.269 952.68,-2.238 1178.98,-15.437 -34,-13.602 -71.45,-21.129 -110.79,-21.129"
         id="path1350" />
    </clipPath>
    <linearGradient
       x1="0"
       y1="0"
       x2="1"
       y2="0"
       gradientUnits="userSpaceOnUse"
       gradientTransform="matrix(0,-4000,-4000,0,2000,4000)"
       spreadMethod="pad"
       id="linearGradient1360">
      <stop
         style="stop-opacity:1;stop-color:#c0d5dd"
         offset="0"
         id="stop1354" />
      <stop
         style="stop-opacity:1;stop-color:#c0d5dd"
         offset="0.2235422"
         id="stop1356" />
      <stop
         style="stop-opacity:1;stop-color:#9bcdde"
         offset="1"
         id="stop1358" />
    </linearGradient>
  </defs>
  <g
     inkscape:label="Ebene 1"
     inkscape:groupmode="layer"
     id="layer1"
     transform="translate(-44.503666,-12.21851)">
    <g
       id="g1292"
       transform="matrix(0.03527778,0,0,-0.03527778,35.70158,117.80632)"
       style="fill:#cfebff;fill-opacity:0.32752791">
      <g
         id="g1294"
         clip-path="url(#clipPath1298)"
         style="fill:#cfebff;fill-opacity:0.32752791">
        <path
           d="m 3545.3,476.211 c -226.3,13.199 -658.54,15.168 -1178.98,15.437 21.74,18.032 35.48,44.692 35.45,74.422 l -1.15,1167.33 h 229.34 c 100.06,0 181.18,-75.64 181.18,-168.94 0,-93.3 -81.12,-168.93 -181.18,-168.93 h 227.94 c 249.03,0 455.77,-168.34 496.8,-389.6 h 79.81 c 155.28,0 281.16,-117.371 281.16,-262.149 V 717.23 c 0,-108.109 -70.18,-200.929 -170.37,-241.019 m -2928.109,6.738 c -194.128,65.43 -332.863,238.781 -332.863,442.352 0,259.709 225.801,470.229 504.328,470.229 h 320.874 l 0.82,-830.671 c 0.03,-29.757 13.85,-56.418 35.66,-74.398 -207.432,-1.141 -387.658,-3.332 -528.819,-7.512 M 1109.19,1733.4 H 677.688 c -217.247,0 -393.36,164.2 -393.36,366.76 0,202.56 176.113,366.76 393.36,366.76 h 82.054 c -38.379,30.97 -62.699,76.69 -62.699,127.74 0,93.3 81.121,168.93 181.184,168.93 h 273.103 c -27.62,22.16 -45.18,54.94 -45.18,91.57 0,66.76 58.04,120.88 129.64,120.88 h 685.74 c 71.6,0 129.65,-54.12 129.65,-120.88 0,-66.75 -58.05,-120.87 -129.65,-120.87 h -256.76 c -15.06,-9.58 -28.49,-21.23 -39.83,-34.49 l -411.71,-0.38 c -57.99,-0.06 -104.94,-45.23 -104.89,-100.88 l 0.85,-865.14 m 1291.27,166.95 -0.4,400.17 c 40.37,-57.59 63.84,-126.42 63.84,-200.36 0,-73.7 -23.32,-142.32 -63.44,-199.81"
           style="fill:#cfebff;fill-opacity:0.32752791;fill-rule:nonzero;stroke:none"
           id="path1308" />
      </g>
    </g>
    <g
       id="g1310"
       transform="matrix(0.03527778,0,0,-0.03527778,35.70158,117.80632)">
      <g
         id="g1312"
         clip-path="url(#clipPath1316)">
        <path
           d="m 2288.95,2734.29 c -65.04,0 -117.77,54.12 -117.77,120.87 0,66.76 52.73,120.88 117.77,120.88 65.05,0 117.78,-54.12 117.78,-120.88 0,-66.75 -52.73,-120.87 -117.78,-120.87"
           style="fill:url(#linearGradient6732);fill-opacity:1;fill-rule:nonzero;stroke:none"
           id="path1326" />
      </g>
    </g>
    <g
       id="g1328"
       transform="matrix(0.03527778,0,0,-0.03527778,35.70158,117.80632)">
      <g
         id="g1330"
         clip-path="url(#clipPath1334)">
        <path
           d="m 1982.76,394.262 c -947.53,0 -1698.432,9.019 -1698.432,53.918 0,18.019 123.621,28.582 332.863,34.769 53.528,-18.039 111.27,-27.867 171.465,-27.867 H 970.797 2857.9 3434.51 c 39.34,0 76.79,7.527 110.79,21.129 109.16,-6.371 170.37,-15.352 170.37,-28.031 0,-44.899 -785.36,-53.918 -1732.91,-53.918"
           style="fill:url(#linearGradient1342);fill-opacity:1;fill-rule:nonzero;stroke:none"
           id="path1344" />
      </g>
    </g>
    <g
       id="g1346"
       transform="matrix(0.03527778,0,0,-0.03527778,35.70158,117.80632)">
      <g
         id="g1348"
         clip-path="url(#clipPath1352)">
        <path
           d="M 3434.51,455.082 H 788.656 c -60.195,0 -117.937,9.828 -171.465,27.867 141.161,4.18 321.387,6.371 528.819,7.512 17.9,-14.762 41.18,-23.68 66.63,-23.68 0.03,0 0.06,0 0.09,0 l 1086.86,1.02 c 25.51,0.019 48.83,9.012 66.73,23.847 520.44,-0.269 952.68,-2.238 1178.98,-15.437 -34,-13.602 -71.45,-21.129 -110.79,-21.129"
           style="fill:url(#linearGradient1360);fill-opacity:1;fill-rule:nonzero;stroke:none"
           id="path1362" />
      </g>
    </g>
    <path
       d="m 136.46762,35.64896 -11.12979,0.0448 -0.0353,-8.82156 -0.003,-0.7493 2.21262,-0.009 1.02659,0.74542 7.89305,-0.0321 0.0356,8.82157"
       style="fill:#f3b344;fill-opacity:1;fill-rule:nonzero;stroke:none;stroke-width:0.0352778"
       id="path1364" />
    <path
       d="m 136.07427,28.18241 -10.37802,0.0416 -0.002,-0.52458 10.37802,-0.0416 0.002,0.52458"
       style="fill:#f1f2f2;fill-opacity:1;fill-rule:nonzero;stroke:none;stroke-width:0.0352778"
       id="path1366" />
    <path
       d="m 136.69269,35.98692 -11.80818,0.0476 c -0.18662,7.1e-4 -0.33831,-0.15628 -0.33902,-0.35136 l -0.0286,-7.10142 c -7e-4,-0.19509 0.14993,-0.35348 0.3362,-0.35419 l 11.80818,-0.0476 c 0.18627,-7e-4 0.33831,0.15699 0.33902,0.35172 l 0.0286,7.10107 c 7.1e-4,0.19508 -0.14957,0.35348 -0.33619,0.35419"
       style="fill:#f9a300;fill-opacity:1;fill-rule:nonzero;stroke:none;stroke-width:0.0352778"
       id="path1368" />
    <path
       d="m 136.31028,35.21292 -11.44411,0.0459 c -0.17815,7.1e-4 -0.32315,-0.14287 -0.3235,-0.32067 l -0.0258,-6.38704 c -0.001,-0.1778 0.14288,-0.32279 0.32068,-0.3235 l 11.44446,-0.0462 c 0.17815,-7.1e-4 0.32279,0.14358 0.32385,0.32102 l 0.0258,6.38705 c 7.1e-4,0.1778 -0.14322,0.32279 -0.32138,0.32349"
       style="fill:#ffc300;fill-opacity:1;fill-rule:nonzero;stroke:none;stroke-width:0.0352778"
       id="path1370" />
    <path
       d="m 129.2392,30.41761 c 0.73096,-0.64452 1.03152,-1.50071 1.48943,-2.21368 l -5.89104,0.0236 c -0.1778,7.1e-4 -0.32173,0.1457 -0.32067,0.3235 l 0.0183,4.60657 c 0.96132,-0.44979 3.03354,-1.26612 4.70394,-2.74003"
       style="fill:#fddb81;fill-opacity:1;fill-rule:nonzero;stroke:none;stroke-width:0.0352778"
       id="path1372" />
    <path
       d="m 121.4534,99.39876 v -41.9686 c 0,-1.07174 0.86889,-1.94063 1.94063,-1.94063 h -2.3167 c -1.07173,0 -1.94027,0.86889 -1.94027,1.94063 v 41.9686 c 0,1.07171 0.86854,1.94056 1.94027,1.94056 h 2.3167 c -1.07174,0 -1.94063,-0.86885 -1.94063,-1.94056"
       style="fill:#5c6ba2;fill-opacity:1;fill-rule:nonzero;stroke:none;stroke-width:0.0352778"
       id="path1374" />
    <path
       d="m 149.47771,101.33932 h -26.08368 c -1.07174,0 -1.94063,-0.86885 -1.94063,-1.94056 v -41.9686 c 0,-1.07174 0.86889,-1.94063 1.94063,-1.94063 h 26.08368 c 1.07174,0 1.94063,0.86889 1.94063,1.94063 v 41.9686 c 0,1.07171 -0.86889,1.94056 -1.94063,1.94056"
       style="fill:#97b3e2;fill-opacity:1;fill-rule:nonzero;stroke:none;stroke-width:0.0352778"
       id="path1376" />
    <path
       d="m 151.35378,56.94227 c -0.2166,-0.83538 -0.97331,-1.45274 -1.87607,-1.45274 h -8.116 l -19.50756,45.08705 c 0.3549,0.46327 0.91158,0.76274 1.53988,0.76274 h 8.75136 l 19.20839,-44.39705"
       style="fill:#caddec;fill-opacity:1;fill-rule:nonzero;stroke:none;stroke-width:0.0352778"
       id="path1378" />
    <path
       d="m 121.4534,96.03633 17.54293,-40.5468 h -3.943 L 121.4534,80.402 v 15.63433"
       style="fill:#caddec;fill-opacity:1;fill-rule:nonzero;stroke:none;stroke-width:0.0352778"
       id="path1380" />
    <path
       d="m 147.47711,81.24231 0.0603,0.003 v -5.82895 c 0.0279,-0.32068 0.0452,-0.64488 0.0452,-0.97331 0,-0.32809 -0.0173,-0.65229 -0.0452,-0.97332 v -0.31291 c 0,-0.16016 -0.0328,-0.31221 -0.0921,-0.45085 -0.83326,-5.28073 -5.4042,-9.31933 -10.91918,-9.31933 -5.51533,0 -10.08592,4.0386 -10.91953,9.31933 -0.0589,0.13864 -0.0917,0.29069 -0.0917,0.45085 v 0.31291 c -0.0279,0.32103 -0.0452,0.64523 -0.0452,0.97332 0,0.32843 0.0173,0.65263 0.0452,0.97331 v 5.82577 c 1.16311,0 2.10608,0.94298 2.10608,2.10602 0,1.16321 -0.94297,2.10618 -2.10608,2.10618 v 6.46811 c 1.13277,0 2.05387,0.89504 2.1015,2.01581 h 17.75918 c 0.0476,-1.12077 0.96873,-2.01581 2.1015,-2.01581 l 0.0603,0.003 v -6.47457 l -0.0603,0.003 c -1.16311,0 -2.10573,-0.94297 -2.10573,-2.10618 0,-1.16304 0.94262,-2.10602 2.10573,-2.10602"
       style="fill:#2c3874;fill-opacity:1;fill-rule:nonzero;stroke:none;stroke-width:0.0352778"
       id="path1382" />
    <path
       d="m 137.42294,90.24019 h -2.66206 v -2.67783 c 0,-0.46644 -0.38241,-0.8443 -0.85372,-0.8443 h -6.09459 c -0.47131,0 -0.85337,0.37786 -0.85337,0.8443 v 3.27865 0.50835 0.24335 c 0,0.33214 0.27199,0.60057 0.60713,0.60057 h 0.24624 6.09459 3.51578 c 0.33549,0 0.60749,-0.26843 0.60749,-0.60057 v -0.7517 c 0,-0.33197 -0.272,-0.60082 -0.60749,-0.60082"
       style="fill:#97b3e2;fill-opacity:1;fill-rule:nonzero;stroke:none;stroke-width:0.0352778"
       id="path1384" />
    <path
       d="m 146.36374,74.44323 c 0,5.43313 -4.40443,9.83791 -9.83756,9.83791 -5.43348,0 -9.83791,-4.40478 -9.83791,-9.83791 0,-5.43314 4.40443,-9.83792 9.83791,-9.83792 5.43313,0 9.83756,4.40478 9.83756,9.83792"
       style="fill:#f0e0e3;fill-opacity:1;fill-rule:nonzero;stroke:none;stroke-width:0.0352778"
       id="path1386" />
    <path
       d="m 135.67069,84.24159 7.54839,-17.00597 c -0.47554,-0.44168 -0.99413,-0.83784 -1.5501,-1.17898 l -7.91281,17.8265 c 0.6156,0.18041 1.25554,0.30166 1.91452,0.35845"
       style="fill:#ffffff;fill-opacity:1;fill-rule:nonzero;stroke:none;stroke-width:0.0352778"
       id="path1388" />
    <path
       d="m 132.40291,83.37521 7.98231,-17.9832 c -0.21731,-0.0928 -0.43992,-0.17604 -0.66499,-0.2533 l -7.95232,17.9154 c 0.20708,0.11465 0.4191,0.22119 0.635,0.3211"
       style="fill:#ffffff;fill-opacity:1;fill-rule:nonzero;stroke:none;stroke-width:0.0352778"
       id="path1390" />
    <path
       d="m 139.86558,74.44323 h -0.0723 c 0,0.9024 -0.36548,1.71908 -0.95674,2.31034 -0.59161,0.59161 -1.40793,0.95708 -2.31034,0.95708 -0.9024,0 -1.71873,-0.36547 -2.31034,-0.95708 -0.59126,-0.59126 -0.95673,-1.40794 -0.95673,-2.31034 0,-0.90241 0.36547,-1.71874 0.95673,-2.31035 0.59161,-0.59125 1.40794,-0.95673 2.31034,-0.95673 0.90241,0 1.71873,0.36548 2.31034,0.95709 0.59126,0.59125 0.95674,1.40758 0.95674,2.30999 h 0.0723 0.0723 c 0,-1.88419 -1.52752,-3.41137 -3.41171,-3.41137 -1.88419,0 -3.41171,1.52718 -3.41171,3.41137 0,1.88453 1.52752,3.41171 3.41171,3.41206 1.88419,-3.5e-4 3.41171,-1.52753 3.41171,-3.41206 h -0.0723"
       style="fill:#e04c5a;fill-opacity:1;fill-rule:nonzero;stroke:none;stroke-width:0.0352778"
       id="path1392" />
    <path
       d="m 139.86558,74.44323 c 0,1.84467 -1.49508,3.33974 -3.3394,3.33974 -1.84432,0 -3.33939,-1.49507 -3.33939,-3.33974 0,-1.84397 1.49507,-3.3394 3.33939,-3.3394 1.84432,0 3.3394,1.49543 3.3394,3.3394"
       style="fill:#f9c33d;fill-opacity:1;fill-rule:nonzero;stroke:none;stroke-width:0.0352778"
       id="path1394" />
    <path
       d="m 138.33099,74.44323 c 0,0.99695 -0.80786,1.80516 -1.80481,1.80516 -0.99695,0 -1.80516,-0.80821 -1.80516,-1.80516 0,-0.99695 0.80821,-1.80482 1.80516,-1.80482 0.99695,0 1.80481,0.80787 1.80481,1.80482"
       style="fill:#31407b;fill-opacity:1;fill-rule:nonzero;stroke:none;stroke-width:0.0352778"
       id="path1396" />
    <path
       d="m 131.76862,90.46632 c -0.6477,0.87285 -1.87995,1.05446 -2.75237,0.40679 -0.87207,-0.64809 -1.05446,-1.88034 -0.4064,-2.75234 0.6477,-0.87245 7.43091,-8.49383 8.30298,-7.84613 0.87241,0.64806 -4.49651,9.31937 -5.14421,10.19168"
       style="fill:#fee05e;fill-opacity:1;fill-rule:nonzero;stroke:none;stroke-width:0.0352778"
       id="path1398" />
    <path
       d="m 129.28859,90.8869 c -0.87242,-0.6477 -1.05445,-1.87991 -0.4064,-2.75237 0.60113,-0.80959 6.48653,-7.43162 8.02711,-7.86165 -0.88653,-0.62583 -7.65281,6.97653 -8.29945,7.84789 -0.64806,0.872 -0.46567,2.10425 0.4064,2.75234 0.36159,0.26843 0.78493,0.39275 1.20297,0.38559 -0.32632,-0.0403 -0.6477,-0.1615 -0.93063,-0.3718"
       style="fill:#cf963d;fill-opacity:1;fill-rule:nonzero;stroke:none;stroke-width:0.0352778"
       id="path1400" />
    <path
       d="m 130.82776,89.95659 c -0.2988,0.40252 -0.86748,0.48659 -1.27,0.1874 -0.40287,-0.29891 -0.48683,-0.86748 -0.18768,-1.27042 0.29881,-0.40252 0.86784,-0.48645 1.27036,-0.18726 0.40251,0.29877 0.48648,0.86748 0.18732,1.27028"
       style="fill:#8989dd;fill-opacity:1;fill-rule:nonzero;stroke:none;stroke-width:0.0352778"
       id="path1402" />
    <path
       d="m 130.29119,89.55806 c -0.0787,0.1065 -0.22896,0.12827 -0.33514,0.0493 -0.10619,-0.0787 -0.12841,-0.22902 -0.0494,-0.33514 0.0787,-0.10626 0.22895,-0.12841 0.33514,-0.0493 0.10618,0.0785 0.12841,0.22888 0.0494,0.33514"
       style="fill:#56629e;fill-opacity:1;fill-rule:nonzero;stroke:none;stroke-width:0.0352778"
       id="path1404" />
    <path
       d="m 131.00133,88.20015 v 0 c -0.0674,-0.0498 -0.0811,-0.14471 -0.0314,-0.21167 l 1.83444,-2.47057 c 0.0501,-0.0674 0.14464,-0.081 0.21202,-0.0313 0.0667,0.0496 0.0811,0.14454 0.031,0.21153 l -1.83445,2.47054 c -0.0497,0.0674 -0.14464,0.0816 -0.21166,0.0314"
       style="fill:#56629e;fill-opacity:1;fill-rule:nonzero;stroke:none;stroke-width:0.0352778"
       id="path1406" />
    <path
       d="m 133.62141,85.03644 c -0.0716,0.0966 -0.20779,0.1167 -0.30445,0.0452 -0.0963,-0.0716 -0.11642,-0.20821 -0.0448,-0.30455 0.0716,-0.0962 0.20778,-0.11632 0.30409,-0.0448 0.0967,0.0716 0.11677,0.20778 0.0452,0.30413"
       style="fill:#56629e;fill-opacity:1;fill-rule:nonzero;stroke:none;stroke-width:0.0352778"
       id="path1408" />
    <path
       d="m 125.36464,58.52836 c 0,0.4819 -0.39052,0.87207 -0.87277,0.87207 -0.48154,0 -0.87242,-0.39017 -0.87242,-0.87207 0,-0.48189 0.39088,-0.87277 0.87242,-0.87277 0.48225,0 0.87277,0.39088 0.87277,0.87277"
       style="fill:#56629e;fill-opacity:1;fill-rule:nonzero;stroke:none;stroke-width:0.0352778"
       id="path1410" />
    <path
       d="m 124.95824,58.52836 c 0,0.25753 -0.20884,0.46637 -0.46637,0.46637 -0.25753,0 -0.46602,-0.20884 -0.46602,-0.46637 0,-0.25753 0.20849,-0.46637 0.46602,-0.46637 0.25753,0 0.46637,0.20884 0.46637,0.46637"
       style="fill:#97b3e2;fill-opacity:1;fill-rule:nonzero;stroke:none;stroke-width:0.0352778"
       id="path1412" />
    <path
       d="m 149.19196,58.52836 c 0,0.4819 -0.39052,0.87207 -0.87242,0.87207 -0.48189,0 -0.87242,-0.39017 -0.87242,-0.87207 0,-0.48189 0.39053,-0.87277 0.87242,-0.87277 0.4819,0 0.87242,0.39088 0.87242,0.87277"
       style="fill:#56629e;fill-opacity:1;fill-rule:nonzero;stroke:none;stroke-width:0.0352778"
       id="path1414" />
    <path
       d="m 148.78591,58.52836 c 0,0.25753 -0.20884,0.46637 -0.46637,0.46637 -0.25753,0 -0.46637,-0.20884 -0.46637,-0.46637 0,-0.25753 0.20884,-0.46637 0.46637,-0.46637 0.25753,0 0.46637,0.20884 0.46637,0.46637"
       style="fill:#97b3e2;fill-opacity:1;fill-rule:nonzero;stroke:none;stroke-width:0.0352778"
       id="path1416" />
    <path
       d="m 125.36464,98.54148 c 0,0.48189 -0.39052,0.87245 -0.87277,0.87245 -0.48154,0 -0.87242,-0.39056 -0.87242,-0.87245 0,-0.4819 0.39088,-0.87242 0.87242,-0.87242 0.48225,0 0.87277,0.39052 0.87277,0.87242"
       style="fill:#56629e;fill-opacity:1;fill-rule:nonzero;stroke:none;stroke-width:0.0352778"
       id="path1418" />
    <path
       d="m 124.95824,98.54148 c 0,0.25756 -0.20884,0.46633 -0.46637,0.46633 -0.25753,0 -0.46602,-0.20877 -0.46602,-0.46633 0,-0.25757 0.20849,-0.46648 0.46602,-0.46648 0.25753,0 0.46637,0.20891 0.46637,0.46648"
       style="fill:#97b3e2;fill-opacity:1;fill-rule:nonzero;stroke:none;stroke-width:0.0352778"
       id="path1420" />
    <path
       d="m 149.19196,98.54148 c 0,0.48189 -0.39052,0.87245 -0.87242,0.87245 -0.48189,0 -0.87242,-0.39056 -0.87242,-0.87245 0,-0.4819 0.39053,-0.87242 0.87242,-0.87242 0.4819,0 0.87242,0.39052 0.87242,0.87242"
       style="fill:#56629e;fill-opacity:1;fill-rule:nonzero;stroke:none;stroke-width:0.0352778"
       id="path1422" />
    <path
       d="m 148.78591,98.54148 c 0,0.25756 -0.20884,0.46633 -0.46637,0.46633 -0.25753,0 -0.46637,-0.20877 -0.46637,-0.46633 0,-0.25757 0.20884,-0.46648 0.46637,-0.46648 0.25753,0 0.46637,0.20891 0.46637,0.46648"
       style="fill:#97b3e2;fill-opacity:1;fill-rule:nonzero;stroke:none;stroke-width:0.0352778"
       id="path1424" />
    <path
       d="m 78.484002,101.33932 38.342008,-0.036 c 1.99249,-0.002 3.6068,-1.55402 3.60468,-3.46671 l -0.0706,-71.74372 c -0.002,-1.96321 -1.66158,-3.55353 -3.70734,-3.55141 l -38.151153,0.0353 c -2.045758,0.002 -3.70205,1.59561 -3.700286,3.55882 l 0.07091,71.74375 c 0.0018,1.91269 1.618897,3.46177 3.611739,3.45997"
       style="fill:#5283a8;fill-opacity:1;fill-rule:nonzero;stroke:none;stroke-width:0.0352778"
       id="path1426" />
    <path
       d="m 79.821383,100.63486 36.558007,-0.0346 c 1.90465,-0.001 3.4477,-1.51105 3.44558,-3.37083 l -0.0688,-69.92193 c -0.002,-1.90924 -1.5882,-3.45546 -3.5433,-3.45335 l -36.375974,0.0339 c -1.955447,0.002 -3.538714,1.55116 -3.53695,3.4604 l 0.06879,69.92193 c 0.0021,1.85995 1.547637,3.36628 3.452637,3.36448"
       style="fill:#92bff7;fill-opacity:1;fill-rule:nonzero;stroke:none;stroke-width:0.0352778"
       id="path1428" />
    <path
       d="m 78.492116,97.38049 39.204554,-0.0406 -0.0635,-70.98341 -39.204554,0.0402 0.0635,70.98384"
       style="fill:#1d3b77;fill-opacity:1;fill-rule:nonzero;stroke:none;stroke-width:0.0352778"
       id="path1430" />
    <path
       d="m 91.957997,25.51965 12.285483,-0.0116 -0.001,-0.87666 -12.28513,0.0116 7.05e-4,0.87666"
       style="fill:#5f9bdd;fill-opacity:1;fill-rule:nonzero;stroke:none;stroke-width:0.0352778"
       id="path1432" />
    <path
       d="m 93.769511,99.81423 8.663169,-0.008 c 0.36195,0 0.6551,-0.2001 0.6551,-0.44567 l -0.001,-0.74923 c 0,-0.24557 -0.29386,-0.44485 -0.65581,-0.44457 l -8.663164,0.009 c -0.36195,2.8e-4 -0.655109,0.19967 -0.654756,0.4451 l 7.06e-4,0.7494 c 0,0.24624 0.293863,0.44482 0.655813,0.4444"
       style="fill:#5f9bdd;fill-opacity:1;fill-rule:nonzero;stroke:none;stroke-width:0.0352778"
       id="path1434" />
    <path
       d="m 78.488235,97.38049 -0.05574,-66.28096 c 3.52e-4,3.6e-4 3.52e-4,7.1e-4 3.52e-4,10e-4 l 0.05927,66.2799 h -0.0039"
       style="fill:#98c3f7;fill-opacity:1;fill-rule:nonzero;stroke:none;stroke-width:0.0352778"
       id="path1436" />
    <path
       d="m 78.492116,97.38049 -0.05927,-66.2799 c 1.937103,7.94138 6.052962,20.51474 15.331724,33.54882 8.29169,11.64837 17.51154,19.17517 23.92045,23.62168 0.003,3.02218 0.005,6.04407 0.008,9.06572 l -39.200668,0.0437"
       style="fill:#2a477f;fill-opacity:1;fill-rule:nonzero;stroke:none;stroke-width:0.0352778"
       id="path1438" />
    <path
       d="m 107.83229,53.13792 c 0,1.45662 -1.18074,2.63772 -2.63772,2.63772 -1.45697,0 -2.63772,-1.1811 -2.63772,-2.63772 0,-1.45698 1.18075,-2.63808 2.63772,-2.63808 1.45698,0 2.63772,1.1811 2.63772,2.63808"
       style="fill:#7e7cf7;fill-opacity:1;fill-rule:nonzero;stroke:none;stroke-width:0.0352778"
       id="path1440" />
    <path
       d="m 93.470709,52.74704 c 0,1.45697 -1.180748,2.63807 -2.63772,2.63807 -1.456972,0 -2.63772,-1.1811 -2.63772,-2.63807 0,-1.45697 1.180748,-2.63772 2.63772,-2.63772 1.456972,0 2.63772,1.18075 2.63772,2.63772"
       style="fill:#bcb6f7;fill-opacity:1;fill-rule:nonzero;stroke:none;stroke-width:0.0352778"
       id="path1442" />
    <path
       d="m 100.39115,70.43038 c 0,1.45662 -1.181099,2.63772 -2.637719,2.63772 -1.456972,0 -2.638072,-1.1811 -2.638072,-2.63772 0,-1.45697 1.1811,-2.63772 2.638072,-2.63772 1.45662,0 2.637719,1.18075 2.637719,2.63772"
       style="fill:#d3d6fc;fill-opacity:1;fill-rule:nonzero;stroke:none;stroke-width:0.0352778"
       id="path1444" />
    <path
       d="m 107.55571,67.79266 c 0,1.45627 -1.18109,2.63772 -2.63772,2.63772 -1.45697,0 -2.63807,-1.18145 -2.63807,-2.63772 0,-1.45697 1.1811,-2.63807 2.63807,-2.63807 1.45663,0 2.63772,1.1811 2.63772,2.63807"
       style="fill:#ffffff;fill-opacity:1;fill-rule:nonzero;stroke:none;stroke-width:0.0352778"
       id="path1446" />
    <path
       d="m 92.933428,67.46704 c 0,1.45662 -1.180747,2.63737 -2.63772,2.63737 -1.456972,0 -2.637719,-1.18075 -2.637719,-2.63737 0,-1.45697 1.180747,-2.63807 2.637719,-2.63807 1.456973,0 2.63772,1.1811 2.63772,2.63807"
       style="fill:#c6c4f9;fill-opacity:1;fill-rule:nonzero;stroke:none;stroke-width:0.0352778"
       id="path1448" />
    <path
       d="m 100.89598,50.10932 c 0,1.45662 -1.181104,2.63772 -2.638077,2.63772 -1.456619,0 -2.637719,-1.1811 -2.637719,-2.63772 0,-1.45697 1.1811,-2.63807 2.637719,-2.63807 1.456973,0 2.638077,1.1811 2.638077,2.63807"
       style="fill:#9b9af3;fill-opacity:1;fill-rule:nonzero;stroke:none;stroke-width:0.0352778"
       id="path1450" />
    <path
       d="m 90.116497,60.10669 c 0,1.45697 -1.1811,2.63807 -2.637719,2.63807 -1.45662,0 -2.638073,-1.1811 -2.638073,-2.63807 0,-1.45662 1.181453,-2.63772 2.638073,-2.63772 1.456619,0 2.637719,1.1811 2.637719,2.63772"
       style="fill:#c6c4f9;fill-opacity:1;fill-rule:nonzero;stroke:none;stroke-width:0.0352778"
       id="path1452" />
    <path
       d="M 111.67298,83.62078 H 83.559064 c -0.517525,0 -0.936978,0.49141 -0.936978,1.09858 0,0.60674 0.419453,1.09841 0.93733,1.09841 h 28.113564 c 0.51753,0 0.93698,-0.49167 0.93698,-1.09841 0,-0.60717 -0.41945,-1.09858 -0.93698,-1.09858"
       style="fill:#e8eaf9;fill-opacity:1;fill-rule:nonzero;stroke:none;stroke-width:0.0352778"
       id="path1454" />
    <path
       d="M 99.99357,83.62078 H 83.559064 c -0.517525,0 -0.936978,0.49141 -0.936978,1.09858 0,0.60674 0.419453,1.09841 0.93733,1.09841 H 99.99357 v -2.19699"
       style="fill:#fc6e3c;fill-opacity:1;fill-rule:nonzero;stroke:none;stroke-width:0.0352778"
       id="path1456" />
    <path
       d="m 85.590358,34.49079 h 0.410986 c 0.467431,0 0.760236,-0.24801 0.760236,-0.62513 0,-0.41698 -0.292805,-0.60818 -0.743655,-0.60818 -0.219428,0 -0.360186,0.0169 -0.427567,0.0339 z m -0.687211,-1.67817 c 0.258939,-0.0452 0.6477,-0.0787 1.047397,-0.0787 0.5461,0 0.918281,0.0896 1.171575,0.30375 0.208139,0.17462 0.326673,0.4392 0.326673,0.76023 0,0.49001 -0.332317,0.82233 -0.687212,0.9518 v 0.0169 c 0.270228,0.10125 0.433564,0.36583 0.529167,0.73237 0.118533,0.47272 0.219781,0.91193 0.29845,1.05833 h -0.71508 c -0.05609,-0.11254 -0.14605,-0.42228 -0.253648,-0.89535 -0.106891,-0.49565 -0.287161,-0.65299 -0.681214,-0.66428 h -0.348897 v 1.55963 h -0.687211 v -3.74474"
       style="fill:#e6e9fc;fill-opacity:1;fill-rule:nonzero;stroke:none;stroke-width:0.0352778"
       id="path1458" />
    <path
       d="m 90.228681,34.87355 h -1.430514 v 1.11513 h 1.599494 v 0.56868 h -2.291997 v -3.79518 h 2.207683 v 0.56832 h -1.51518 v 0.98002 h 1.430514 v 0.56303"
       style="fill:#e6e9fc;fill-opacity:1;fill-rule:nonzero;stroke:none;stroke-width:0.0352778"
       id="path1460" />
    <path
       d="m 93.724709,36.44482 c -0.163336,0.0847 -0.523875,0.16934 -0.980017,0.16934 -1.205442,0 -1.937103,-0.75495 -1.937103,-1.90924 0,-1.25024 0.867128,-2.00519 2.027061,-2.00519 0.456142,0 0.782814,0.096 0.923573,0.16898 l -0.152048,0.5521 c -0.180269,-0.079 -0.427919,-0.1464 -0.743303,-0.1464 -0.771525,0 -1.329266,0.48436 -1.329266,1.39665 0,0.83326 0.490008,1.36842 1.323622,1.36842 0.281517,0 0.574322,-0.0561 0.754592,-0.14076 l 0.112889,0.5461"
       style="fill:#e6e9fc;fill-opacity:1;fill-rule:nonzero;stroke:none;stroke-width:0.0352778"
       id="path1462" />
    <path
       d="m 94.702961,34.67635 c 0,0.77188 0.388409,1.38571 1.053042,1.38571 0.669925,0 1.047398,-0.61948 1.047398,-1.41358 0,-0.71508 -0.354895,-1.391 -1.047398,-1.391 -0.687211,0 -1.053042,0.63641 -1.053042,1.41887 z m 2.832453,-0.0561 c 0,1.27282 -0.771525,1.99919 -1.818922,1.99919 -1.069975,0 -1.745897,-0.81633 -1.745897,-1.93146 0,-1.16593 0.732366,-1.98826 1.802342,-1.98826 1.109133,0 1.762477,0.83962 1.762477,1.92053"
       style="fill:#e6e9fc;fill-opacity:1;fill-rule:nonzero;stroke:none;stroke-width:0.0352778"
       id="path1464" />
    <path
       d="m 98.980745,36.55736 -1.227667,-3.79518 h 0.754592 l 0.517878,1.72296 c 0.146755,0.47872 0.27058,0.92393 0.371828,1.38536 h 0.01129 c 0.101247,-0.4505 0.236713,-0.91228 0.388408,-1.37407 l 0.552096,-1.73425 h 0.73766 l -1.311981,3.79518 h -0.794103"
       style="fill:#e6e9fc;fill-opacity:1;fill-rule:nonzero;stroke:none;stroke-width:0.0352778"
       id="path1466" />
    <path
       d="m 103.61942,34.87355 h -1.43051 v 1.11513 h 1.59949 v 0.56868 h -2.29235 v -3.79518 h 2.20768 v 0.56832 h -1.51482 v 0.98002 h 1.43051 v 0.56303"
       style="fill:#e6e9fc;fill-opacity:1;fill-rule:nonzero;stroke:none;stroke-width:0.0352778"
       id="path1468" />
    <path
       d="m 105.08204,34.49079 h 0.41098 c 0.46743,0 0.76059,-0.24801 0.76059,-0.62513 0,-0.41698 -0.29316,-0.60818 -0.74365,-0.60818 -0.21978,0 -0.36054,0.0169 -0.42792,0.0339 z m -0.68686,-1.67817 c 0.25894,-0.0452 0.64735,-0.0787 1.0474,-0.0787 0.5461,0 0.91792,0.0896 1.17122,0.30375 0.20849,0.17462 0.32667,0.4392 0.32667,0.76023 0,0.49001 -0.33232,0.82233 -0.68686,0.9518 v 0.0169 c 0.27023,0.10125 0.43357,0.36583 0.52917,0.73237 0.11818,0.47272 0.21943,0.91193 0.29845,1.05833 h -0.71508 c -0.0564,-0.11254 -0.1464,-0.42228 -0.2533,-0.89535 -0.10724,-0.49565 -0.28751,-0.65299 -0.68156,-0.66428 h -0.34925 v 1.55963 h -0.68686 v -3.74474"
       style="fill:#e6e9fc;fill-opacity:1;fill-rule:nonzero;stroke:none;stroke-width:0.0352778"
       id="path1470" />
    <path
       d="m 108.37487,36.55736 v -1.58221 l -1.19945,-2.21297 h 0.78811 l 0.45614,0.97402 c 0.12982,0.28151 0.22542,0.49565 0.32667,0.75459 h 0.0113 c 0.0956,-0.24201 0.20285,-0.47872 0.33232,-0.75459 l 0.45614,-0.97402 h 0.78281 l -1.26118,2.19604 v 1.59914 h -0.69285"
       style="fill:#e6e9fc;fill-opacity:1;fill-rule:nonzero;stroke:none;stroke-width:0.0352778"
       id="path1472" />
    <path
       d="m 95.341489,60.45382 c 0,-0.49389 -0.281516,-0.79093 -0.7112,-0.79093 -0.281516,0 -0.541514,0.17533 -0.668866,0.42475 -0.03175,0.0529 -0.05292,0.12171 -0.05292,0.20708 0.01058,0.56762 0.27058,0.98672 0.758472,0.98672 0.403931,0 0.674511,-0.33443 0.674511,-0.82762 z m 0.132645,-1.99037 c -0.0956,-0.005 -0.217664,0 -0.350309,0.0215 -0.732366,0.12171 -1.119716,0.65793 -1.199444,1.22555 h 0.01588 c 0.164394,-0.21766 0.451203,-0.39793 0.833261,-0.39793 0.610306,0 1.039989,0.44026 1.039989,1.11477 0,0.63148 -0.429683,1.21532 -1.146528,1.21532 -0.737305,0 -1.220258,-0.57326 -1.220258,-1.47037 0,-0.67945 0.244122,-1.21532 0.583847,-1.55505 0.286456,-0.28116 0.668514,-0.45614 1.103842,-0.50976 0.137936,-0.0208 0.254705,-0.0265 0.339725,-0.0265 v 0.38241"
       style="fill:#e6e9fc;fill-opacity:1;fill-rule:nonzero;stroke:none;stroke-width:0.0352778"
       id="path1474" />
    <path
       d="m 96.645709,59.87491 c 0,0.89712 0.276225,1.40653 0.700969,1.40653 0.477309,0 0.705556,-0.55739 0.705556,-1.43828 0,-0.84913 -0.217664,-1.40617 -0.700617,-1.40617 -0.408164,0 -0.705908,0.49883 -0.705908,1.43792 z m 1.873956,-0.0529 c 0,1.17298 -0.435328,1.82068 -1.199445,1.82068 -0.674511,0 -1.130653,-0.63182 -1.141236,-1.77271 0,-1.15746 0.498828,-1.79387 1.199444,-1.79387 0.727428,0 1.141237,0.64735 1.141237,1.7459"
       style="fill:#e6e9fc;fill-opacity:1;fill-rule:nonzero;stroke:none;stroke-width:0.0352778"
       id="path1476" />
    <path
       d="m 101.48582,60.56495 c -0.006,0.44026 0.16404,0.77505 0.45085,0.77505 0.30762,0 0.44591,-0.32914 0.44591,-0.78564 0,-0.4191 -0.12206,-0.7694 -0.44591,-0.7694 -0.29175,0 -0.45085,0.34501 -0.45085,0.77999 z m 1.26294,-0.0321 c 0,0.72743 -0.38241,1.08832 -0.82267,1.08832 -0.42969,0 -0.80151,-0.34466 -0.80645,-1.03469 0,-0.69568 0.37676,-1.08303 0.83291,-1.08303 0.48295,0 0.79621,0.37147 0.79621,1.0294 z m -3.104793,1.10984 2.027413,-3.56658 h 0.29739 l -2.027411,3.56658 z m -0.403225,-2.50542 c -0.01058,0.44061 0.153459,0.77505 0.445559,0.77505 0.307975,0 0.445909,-0.32914 0.445909,-0.78564 0,-0.4191 -0.12206,-0.76976 -0.445909,-0.76976 -0.2921,0 -0.445559,0.34502 -0.445559,0.78035 z m 1.262948,-0.0317 c 0,0.72707 -0.38206,1.08796 -0.82762,1.08796 -0.430389,0 -0.801511,-0.34501 -0.807155,-1.03999 0,-0.69003 0.376766,-1.07738 0.833261,-1.07738 0.483304,0 0.801514,0.37112 0.801514,1.02941"
       style="fill:#e6e9fc;fill-opacity:1;fill-rule:nonzero;stroke:none;stroke-width:0.0352778"
       id="path1478" />
    <path
       d="m 66.409229,99.12853 0.0689,0.98281 c 0,0 1.042917,0.34576 1.219694,0.16552 0.176953,-0.18069 0.353765,-0.62551 0.353765,-0.62551 l 1.42e-4,-0.63817 -1.642499,0.11535"
       style="fill:#fbddb8;fill-opacity:1;fill-rule:nonzero;stroke:none;stroke-width:0.0352778"
       id="path1480" />
    <path
       d="m 66.406901,99.96141 c -0.06671,-0.005 -0.124319,0.0487 -0.124319,0.11673 v 1.49832 c 0,0 -0.176777,0.18055 0.884591,0.18055 1.061473,0 3.891915,0 4.069009,-0.18055 0.176742,-0.18066 0,-0.36089 -0.884661,-0.72221 -0.884555,-0.36092 -1.857445,-0.99275 -2.211317,-1.35392 0,0 -0.707496,0 -0.530683,0.54183 0,0 -0.164007,0 -1.20262,-0.0807"
       style="fill:#19262d;fill-opacity:1;fill-rule:nonzero;stroke:none;stroke-width:0.0352778"
       id="path1482" />
    <path
       d="m 59.473159,97.53112 -0.338173,0.92354 c 0,0 0.80698,0.75738 1.041506,0.66848 0.234562,-0.0892 0.57658,-0.41864 0.57658,-0.41864 l 0.340925,-0.54928 -1.620838,-0.6241"
       style="fill:#fbddb8;fill-opacity:1;fill-rule:nonzero;stroke:none;stroke-width:0.0352778"
       id="path1484" />
    <path
       d="m 59.131247,98.28779 c -0.0587,-0.0331 -0.13268,-0.008 -0.160655,0.0536 l -0.611046,1.36246 c 0,0 -0.234386,0.0889 0.730638,0.53979 0.9652,0.45089 3.53882,1.65312 3.773205,1.56379 0.234421,-0.0889 0.14732,-0.32797 -0.509728,-1.03187 -0.656908,-0.70404 -1.2839,-1.69182 -1.458525,-2.17054 0,0 -0.643255,-0.30056 -0.703192,0.26706 0,0 -0.14926,-0.0696 -1.060697,-0.58428"
       style="fill:#19262d;fill-opacity:1;fill-rule:nonzero;stroke:none;stroke-width:0.0352778"
       id="path1486" />
    <path
       d="m 66.114872,90.17458 c 0,0 -2.214069,5.55625 -4.935856,8.532 l -2.073663,-0.85976 c 0,0 3.307998,-6.74649 4.085485,-8.06799 0,0 0.294745,-4.03437 0.709965,-5.45634 0,0 2.776185,4.54903 2.214069,5.85209"
       style="fill:#0f192f;fill-opacity:1;fill-rule:nonzero;stroke:none;stroke-width:0.0352778"
       id="path1488" />
    <path
       d="m 63.900803,84.68613 5.157153,0.0995 c 0,0 0.739881,5.38981 0.221474,7.17547 -0.518443,1.78579 -1.03685,7.53925 -1.03685,7.53925 h -2.073804 c 0,0 0.06502,-5.68745 0.129681,-8.92803 0,0 -2.008928,-4.29867 -2.397654,-5.88617"
       style="fill:#142c4f;fill-opacity:1;fill-rule:nonzero;stroke:none;stroke-width:0.0352778"
       id="path1490" />
    <path
       d="m 65.196838,72.78058 0.161925,-0.88688 1.961339,-0.11994 0.219674,1.10207 c 0,0 -0.889529,1.44851 -2.342938,-0.0952"
       style="fill:#efceab;fill-opacity:1;fill-rule:nonzero;stroke:none;stroke-width:0.0352778"
       id="path1492" />
    <path
       d="m 74.491616,76.23146 c 0,0 0.55245,-0.25118 1.17228,-0.36442 0.619831,-0.11324 1.728964,0.27869 1.0414,-0.79023 -0.692855,-1.07738 -1.272822,-0.61065 -1.533525,-0.4325 -0.392994,0.26882 0.02152,0.25541 -0.443441,0.34008 -0.464609,0.085 -0.949678,0.47484 -0.949678,0.47484 l 0.712964,0.77223"
       style="fill:#fbddb8;fill-opacity:1;fill-rule:nonzero;stroke:none;stroke-width:0.0352778"
       id="path1494" />
    <path
       d="m 69.317988,73.16158 c 0.630591,0.60784 1.86175,1.86867 2.086116,2.65042 0,0 1.736726,-0.77399 2.810228,-0.94791 0,0 0.861131,1.13806 0.860073,1.54693 0,0 -3.224389,1.60514 -4.142846,1.08268 -0.918634,-0.52282 -2.406615,-1.70533 -2.655641,-2.5146 -0.151165,-0.49178 -0.271886,-1.15359 -0.100189,-1.61679 0.159738,-0.43109 0.796396,-0.53375 1.142259,-0.20073"
       style="fill:#fdcc70;fill-opacity:1;fill-rule:nonzero;stroke:none;stroke-width:0.0352778"
       id="path1496" />
    <path
       d="m 68.276906,74.69088 c 0.248708,0.80927 1.736866,1.99213 2.655182,2.5146 0.842433,0.47977 3.623028,-0.83009 4.078111,-1.05058 0.03951,0.0995 0.06456,0.18839 0.06421,0.25612 0,0 -3.224389,1.60514 -4.142846,1.08268 -0.918634,-0.52282 -2.406615,-1.70533 -2.655641,-2.5146 -0.05207,-0.17004 -0.0653,-0.35349 -0.04657,-0.53834 0.0084,0.0854 0.02272,0.16968 0.04756,0.25012"
       style="fill:#dd8855;fill-opacity:1;fill-rule:nonzero;stroke:none;stroke-width:0.0352778"
       id="path1498" />
    <path
       d="m 65.123531,72.64688 c 0,0 1.603622,0.7366 2.380156,-0.10372 0,0 3.571981,3.17395 1.6637,12.44241 0,0 -5.453309,-0.0963 -5.580521,-0.073 -0.127035,0.0233 0.430636,-0.66601 0.65719,-1.63008 0.722665,-3.07414 2.911792,-3.09742 0.862788,-10.48741 -0.01461,-0.0522 -0.02053,-0.0773 0.01669,-0.14817"
       style="fill:#f5f8fe;fill-opacity:1;fill-rule:nonzero;stroke:none;stroke-width:0.0352778"
       id="path1500" />
    <path
       d="m 65.075835,72.62642 -0.04491,0.005 c -0.08213,0.0116 -0.16316,0.0268 -0.2431,0.0448 -0.465349,0.16052 -1.698695,0.71579 -1.888172,2.13255 -0.234421,1.7526 1.159616,5.21405 0.882085,6.76275 -0.166617,0.93098 -0.456565,2.75343 -0.75505,4.11437 1.584607,0.17502 2.286177,-0.50574 2.604382,-0.60071 0.439032,-0.8552 0.595701,-2.60491 1.017235,-4.13737 0.08131,-0.2092 0.08079,-0.95533 0.141817,-1.17899 1.060944,-3.89819 -1.714289,-7.14269 -1.714289,-7.14269"
       style="fill:#fdcc70;fill-opacity:1;fill-rule:nonzero;stroke:none;stroke-width:0.0352778"
       id="path1502" />
    <path
       d="m 65.482376,76.30589 c 0,0 -0.07497,1.73567 1.126526,2.1269 0,0 -1.311346,0.81139 -1.774473,0.0589 -0.463444,-0.75282 0.647947,-2.18581 0.647947,-2.18581"
       style="fill:#dd8855;fill-opacity:1;fill-rule:nonzero;stroke:none;stroke-width:0.0352778"
       id="path1504" />
    <path
       d="m 62.875243,75.22533 c -3.89e-4,0.0833 0.0011,0.16863 0.0053,0.25683 0.0017,0.0346 0.003,0.0691 0.0052,0.10442 0.0073,0.11148 0.01697,0.22507 0.03006,0.34255 l 0.0028,0.0279 c 0.0157,0.13546 0.03514,0.27481 0.05733,0.41733 l 0.0083,0.0508 c 0.02081,0.13018 0.04381,0.26282 0.06865,0.39723 l 0.0077,0.0413 c 0.186725,0.99307 0.465914,2.07469 0.628262,3.01555 l 0.0022,0.0123 c 0.01877,0.11006 0.03598,0.21801 0.0514,0.32349 0.07581,0.52529 0.104351,0.99484 0.03944,1.35679 -0.166617,0.93098 -0.456565,2.75343 -0.75505,4.11437 1.584607,0.17502 2.286177,-0.50574 2.604382,-0.60071 0.09493,-0.18492 0.142628,-0.42471 0.166053,-0.69963 -2.609462,1.67655 -2.470009,0.5642 -2.019653,-0.59503 0.342582,-0.88194 0.241547,-2.76898 0.168945,-3.66363 -0.02621,-1.34479 -0.242288,-3.01766 -0.434375,-4.52014 -0.02561,-0.20003 -0.03556,-0.39158 -0.03239,-0.57538 0.01697,-0.94121 0.485069,-1.78188 1.202196,-2.31599 l -0.0018,7.1e-4 -0.01711,0.007 -0.03238,0.013 -0.05221,0.0212 -0.0054,0.002 -0.0052,0.002 c -0.03433,0.0148 -0.06989,0.0303 -0.107068,0.048 l -0.04357,0.0219 -0.08555,0.0423 -0.05292,0.0289 -0.0284,0.0159 -0.05154,0.0289 -0.0035,0.002 -0.05609,0.0342 -0.08527,0.0533 -0.05983,0.0409 -0.01404,0.01 -0.0066,0.005 -0.06255,0.0441 -0.06216,0.048 -0.01034,0.008 -0.0707,0.0565 -0.06159,0.0543 -0.03433,0.031 -0.04092,0.0385 -0.0034,0.003 -0.06036,0.06 -0.07567,0.0811 -0.05733,0.0667 -0.03277,0.0416 -0.03807,0.048 -0.05359,0.073 c -0.02261,0.0321 -0.04396,0.0663 -0.06534,0.10019 l -0.04794,0.078 -0.01584,0.03 -0.02371,0.0452 -0.01958,0.0374 -0.04106,0.0825 c -0.01859,0.0409 -0.035,0.084 -0.05154,0.12665 l -0.03291,0.0857 c -0.01669,0.0487 -0.03062,0.10055 -0.04452,0.15205 l -0.02177,0.0769 c -0.01863,0.0797 -0.03432,0.16192 -0.04575,0.24765 -0.01337,0.0998 -0.02014,0.20637 -0.02328,0.31679 -0.0011,0.0321 -7.05e-4,0.066 -0.0011,0.0995"
       style="fill:#dd8855;fill-opacity:1;fill-rule:nonzero;stroke:none;stroke-width:0.0352778"
       id="path1506" />
    <path
       d="m 64.963793,72.64229 1.424093,1.18075 0.227083,-0.85513 -1.140742,-0.32773 -0.510434,0.002"
       style="fill:#9cd6e2;fill-opacity:1;fill-rule:nonzero;stroke:none;stroke-width:0.0352778"
       id="path1508" />
    <path
       d="m 67.503687,72.54316 -0.834566,0.39088 0.788811,0.9264 c 0,0 0.38294,-0.94792 0.04575,-1.31728"
       style="fill:#9cd6e2;fill-opacity:1;fill-rule:nonzero;stroke:none;stroke-width:0.0352778"
       id="path1510" />
    <path
       d="m 69.774412,75.4236 c 0,0 -0.07345,-0.65264 -0.174202,-1.53247 -0.02921,-0.25612 -0.279188,-0.86219 -0.670665,-1.02764 -0.532483,-0.22543 -0.823666,-0.23037 -1.425858,-0.32033 0,0 1.61724,6.56379 1.502869,11.56448 0.0375,0.45392 -0.02399,0.77749 -0.04904,1.0068 0,0 0.165065,-0.20147 0.903429,0.17885 0.508493,0.26212 -0.06505,-2.81837 -0.21262,-3.43185 0.404848,-2.38478 0.363115,-3.95605 0.126083,-6.43784"
       style="fill:#fdcc70;fill-opacity:1;fill-rule:nonzero;stroke:none;stroke-width:0.0352778"
       id="path1512" />
    <path
       d="m 90.508081,65.88378 -3.293534,-1.15852 -0.183444,-3.40184 3.103033,-2.40983 c -4.5847,-0.86783 -6.433256,1.18604 -7.214659,4.69724 -0.781402,3.51085 -7.915981,8.50547 -13.455827,12.52714 -5.539282,4.02167 -5.249898,2.23732 -9.695992,3.00108 -4.44627,0.76412 -4.327455,5.74001 -4.327455,5.74001 l 3.37178,-2.38827 3.221144,1.02828 0.08932,3.53949 -3.176129,2.27969 c 6.609221,2.04886 7.476138,-4.0736 7.757937,-6.02478 0.281975,-1.95157 10.737639,-8.96444 14.406528,-11.43282 3.668889,-2.46839 3.842808,-2.30893 8.412692,-2.54353 4.569883,-0.2346 4.225572,-5.76862 4.225572,-5.76862 l -3.240969,2.31528"
       style="fill:#a4caf4;fill-opacity:1;fill-rule:nonzero;stroke:none;stroke-width:0.0352778"
       id="path1514" />
    <path
       d="m 93.74905,63.5685 -3.240969,2.31528 -3.293534,-1.15852 -0.183444,-3.40184 c 0.02293,8.14423 -14.50834,14.32172 -19.35145,18.21286 -3.272014,2.62819 -5.252932,0.88371 -6.062945,-0.6036 -0.520771,0.025 -1.120634,0.0811 -1.84905,0.20637 -4.44627,0.76412 -4.327455,5.74001 -4.327455,5.74001 l 3.37178,-2.38827 3.221144,1.02828 0.08932,3.53949 -3.176129,2.27969 c 6.609221,2.04886 7.476138,-4.0736 7.757937,-6.02478 0.281693,-1.95192 10.737639,-8.96444 14.406528,-11.43282 3.668889,-2.46839 3.842808,-2.30893 8.412692,-2.54353 4.569883,-0.2346 4.225572,-5.76862 4.225572,-5.76862"
       style="fill:#83b6ed;fill-opacity:1;fill-rule:nonzero;stroke:none;stroke-width:0.0352778"
       id="path1516" />
    <path
       d="m 62.700124,83.1054 -4.080511,-1.19105 -3.142756,2.30615 c -0.04219,0.4028 -0.03665,0.65856 -0.03665,0.65856 l 3.37178,-2.38827 3.221144,1.02828 0.08932,3.53949 -3.176129,2.27969 c 0.155046,0.048 0.303742,0.0875 0.452543,0.12664 l 3.390689,-2.43568 -0.08943,-3.92381"
       style="fill:#5f9bdd;fill-opacity:1;fill-rule:nonzero;stroke:none;stroke-width:0.0352778"
       id="path1518" />
    <path
       d="m 62.12245,87.05856 0.667103,-0.0294 -0.08943,-3.92381 -0.666997,0.41367 0.08932,3.53949"
       style="fill:#478cc9;fill-opacity:1;fill-rule:nonzero;stroke:none;stroke-width:0.0352778"
       id="path1520" />
    <path
       d="m 93.740584,64.29451 c 0.02575,-0.44097 0.0085,-0.72601 0.0085,-0.72601 l -3.240969,2.31528 -3.293534,-1.15852 -0.183444,-3.40184 3.103033,-2.40983 c -0.137936,-0.0261 -0.272697,-0.049 -0.405694,-0.0702 l -3.256139,2.32057 0.147461,4.10563 3.895725,1.16593 3.225095,-2.14101"
       style="fill:#5f9bdd;fill-opacity:1;fill-rule:nonzero;stroke:none;stroke-width:0.0352778"
       id="path1522" />
    <path
       d="m 86.619764,65.26959 0.594783,-0.54433 -0.183444,-3.40184 -0.5588,-0.15946 0.147461,4.10563"
       style="fill:#478cc9;fill-opacity:1;fill-rule:nonzero;stroke:none;stroke-width:0.0352778"
       id="path1524" />
    <path
       d="m 67.310753,80.92199 c 0,0 0.38929,0.21766 0.681849,0.52141 0.2927,0.30338 0.567337,0.76341 1.261181,0.005 0.698923,-0.76517 0.309774,-0.98284 0.04353,-0.88653 -0.266241,0.0963 -0.628932,0.27905 -0.848571,0.0512 -0.219393,-0.22754 -0.705027,-0.35912 -0.705027,-0.35912 l -0.432964,0.66851"
       style="fill:#fbddb8;fill-opacity:1;fill-rule:nonzero;stroke:none;stroke-width:0.0352778"
       id="path1526" />
    <path
       d="m 67.922046,80.19174 c 0,0 -0.68393,-0.49848 -1.380243,-0.96203 -0.506977,-0.33725 -1.020727,-0.65581 -1.282135,-0.75071 0,0 0.405271,-2.30822 0.126365,-3.22756 -0.279048,-0.91899 -2.181825,-1.49825 -2.035493,0.12312 0.146615,1.62137 0.05789,3.47027 0.813188,4.27708 0.794985,0.84878 2.072993,0.68086 3.190558,1.63054 l 0.56776,-1.09044"
       style="fill:#fdcc70;fill-opacity:1;fill-rule:nonzero;stroke:none;stroke-width:0.0352778"
       id="path1528" />
    <path
       d="m 64.16401,79.65164 c -0.807261,-0.8375 -0.726087,-3.40466 -0.872454,-5.02568 -0.05595,-0.61983 0.148978,-0.90064 0.493218,-0.83608 l -0.04082,0.13864 c -0.220627,1.29681 -0.412856,4.60658 0.946185,5.23875 0.920927,0.42863 2.113633,1.33668 2.787615,1.87784 l -0.123472,0.23707 c -1.117565,-0.94968 -2.383437,-0.7934 -3.190276,-1.63054"
       style="fill:#dd8855;fill-opacity:1;fill-rule:nonzero;stroke:none;stroke-width:0.0352778"
       id="path1530" />
    <path
       d="m 68.185113,69.13921 c 0,0 0.06174,0.94968 0.06174,1.45309 0,0.50377 0.0044,1.64677 -1.002806,1.81469 -1.007075,0.16757 -1.581997,-0.32773 -1.952519,-0.54186 0,0 -1.209676,-1.0534 -1.041824,-1.38924 0.167711,-0.3355 0.335703,-1.34303 1.342778,-1.34303 1.007216,0 2.592635,0.006 2.592635,0.006"
       style="fill:#fbddb8;fill-opacity:1;fill-rule:nonzero;stroke:none;stroke-width:0.0352778"
       id="path1532" />
    <path
       d="m 68.613562,68.17648 c -0.2806,-0.0416 -0.55425,-0.121 -0.817598,-0.22648 l -1.979578,-0.79164 c -0.448133,-0.17956 -0.966681,-0.0691 -1.287639,0.2914 -0.354012,0.39723 -0.530789,0.92816 -0.530789,0.92816 l -0.335562,0.33549 c -0.335986,0.33584 -0.335986,0.83961 0,1.51059 0.335562,0.67134 1.678446,1.67887 1.678446,1.67887 0.16771,0 -0.335845,-0.50376 -0.503661,-0.67133 -0.167852,-0.16828 -0.503555,-0.67169 -0.167852,-0.67169 0.335668,0 0.671513,0.67169 0.671513,0.67169 0.16771,-0.50377 -0.167852,-1.67852 -0.167852,-1.67852 0,0 1.006934,0.16757 2.349712,-0.16828 1.342884,-0.33549 1.510736,-1.17475 1.510736,-1.17475 -0.143863,0 -0.287726,-0.0137 -0.419876,-0.0335"
       style="fill:#221e52;fill-opacity:1;fill-rule:nonzero;stroke:none;stroke-width:0.0352778"
       id="path1534" />
    <path
       d="m 136.78794,46.92479 1.01988,-0.35207 c 0.0667,-0.0229 0.14006,0.009 0.16757,0.0741 l 1.25519,2.93229 c 0.036,0.084 -0.0208,0.17851 -0.11184,0.18698 l -1.16346,0.1023 c -0.0586,0.005 -0.11394,-0.0282 -0.13617,-0.0825 l -1.1116,-2.68217 c -0.0296,-0.0716 0.007,-0.15346 0.0804,-0.17886"
       style="fill:#1e2b5b;fill-opacity:1;fill-rule:nonzero;stroke:none;stroke-width:0.0352778"
       id="path1536" />
    <path
       d="m 137.58557,47.58625 c 0.0632,-0.0582 0.1651,-0.0194 0.17286,0.0663 0.006,0.0695 -0.003,0.15558 -0.0519,0.24871 -0.1203,0.23001 -0.13159,0.49283 -0.0766,0.49283 0.0547,0 0.20814,-0.49283 0.39441,-0.45437 0.18626,0.0385 -0.1972,0.61877 -0.14252,0.69567 0.0547,0.0766 0.26282,-0.40569 0.36124,-0.31785 0.0988,0.0875 -0.22966,0.59161 -0.19685,0.65723 0.0328,0.0656 0.25188,-0.20814 0.27376,-0.10937 0.0219,0.0984 -0.0318,0.29563 -0.3609,0.50377 0,0 -0.49353,0.35066 -0.73448,0.0878 -0.2286,-0.24941 -0.32879,-1.23648 0.36089,-1.87078"
       style="fill:#fdc596;fill-opacity:1;fill-rule:nonzero;stroke:none;stroke-width:0.0352778"
       id="path1538" />
    <path
       d="m 140.00986,47.55874 c -0.3937,0.74894 -1.36243,0.65828 -1.36243,0.65828 l 0.4752,1.10913 c 1.21426,0.34184 2.32127,-0.97578 2.32127,-0.97578 0.90276,-0.88195 1.15888,-5.3841 1.15888,-5.3841 -1.43545,0.39406 -2.19957,3.84316 -2.59292,4.59247"
       style="fill:#e55daa;fill-opacity:1;fill-rule:nonzero;stroke:none;stroke-width:0.0352778"
       id="path1540" />
    <path
       d="m 141.14228,64.62154 c 0,0 0.0914,0.33302 0.0854,0.68968 l 0.46673,-0.10936 -0.0282,-0.58773 -0.52387,0.007"
       style="fill:#e2a36a;fill-opacity:1;fill-rule:nonzero;stroke:none;stroke-width:0.0352778"
       id="path1542" />
    <path
       d="m 140.22047,65.55111 c 0.008,0.0945 1.50848,0.0187 1.50848,0.0187 l -0.0346,-0.36795 -0.47379,0.006 c 0,0 -1.00788,0.248 -1.00012,0.3429"
       style="fill:#e2a36a;fill-opacity:1;fill-rule:nonzero;stroke:none;stroke-width:0.0352778"
       id="path1544" />
    <path
       d="m 141.73318,65.56734 -0.0236,-0.20497 c 0,0 -0.0868,0.11536 -0.54575,0.12206 -0.40429,0.005 -0.45191,-0.13829 -0.45191,-0.13829 -0.37712,0.11395 -0.58843,0.13547 -0.53375,0.21238 0.0709,0.0995 1.55504,0.009 1.55504,0.009"
       style="fill:#2d313d;fill-opacity:1;fill-rule:nonzero;stroke:none;stroke-width:0.0352778"
       id="path1546" />
    <path
       d="m 141.66615,64.61413 0.0222,0.49177 c 0,0 -0.21943,-0.13229 -0.46532,0.007 0,0 -0.0381,-0.36337 -0.0808,-0.49107 l 0.52387,-0.007"
       style="fill:#d38753;fill-opacity:1;fill-rule:nonzero;stroke:none;stroke-width:0.0352778"
       id="path1548" />
    <path
       d="m 138.95259,64.65223 c 0,0 0.0914,0.33302 0.0854,0.68968 l 0.46672,-0.10936 -0.0282,-0.58773 -0.52387,0.007"
       style="fill:#e2a36a;fill-opacity:1;fill-rule:nonzero;stroke:none;stroke-width:0.0352778"
       id="path1550" />
    <path
       d="m 138.03078,65.5818 c 0.008,0.0942 1.50848,0.0187 1.50848,0.0187 l -0.0346,-0.36795 -0.47342,0.006 c 0,0 -1.00824,0.24836 -1.00048,0.3429"
       style="fill:#e2a36a;fill-opacity:1;fill-rule:nonzero;stroke:none;stroke-width:0.0352778"
       id="path1552" />
    <path
       d="m 139.54349,65.59803 -0.0236,-0.20497 c 0,0 -0.0868,0.11536 -0.54574,0.12171 -0.40429,0.006 -0.45191,-0.13793 -0.45191,-0.13793 -0.37712,0.11394 -0.58844,0.13546 -0.5334,0.21237 0.0705,0.0995 1.55469,0.009 1.55469,0.009"
       style="fill:#2d313d;fill-opacity:1;fill-rule:nonzero;stroke:none;stroke-width:0.0352778"
       id="path1554" />
    <path
       d="m 139.47646,64.64482 0.0222,0.49177 c 0,0 -0.21943,-0.13229 -0.46532,0.007 0,0 -0.0381,-0.36372 -0.0808,-0.49107 l 0.52387,-0.007"
       style="fill:#d38753;fill-opacity:1;fill-rule:nonzero;stroke:none;stroke-width:0.0352778"
       id="path1556" />
    <path
       d="m 141.74235,51.71622 c 0,0 2.94111,0.83397 2.54776,3.53801 l -7.57167,0.10583 c 0,0 -0.23706,-1.16064 0.23742,-1.69157 0.47026,-0.52599 4.78649,-1.95227 4.78649,-1.95227"
       style="fill:#476291;fill-opacity:1;fill-rule:nonzero;stroke:none;stroke-width:0.0352778"
       id="path1558" />
    <path
       d="m 138.90214,55.32937 -2.165,0.0303 c 0,0 1.03999,2.96616 2.15653,9.55569 l 0.76165,-0.0106 c 0,0 0.47096,-4.93571 0.33655,-6.26428 -0.11642,-1.15252 -0.88794,-2.87549 -1.08973,-3.31117"
       style="fill:#476291;fill-opacity:1;fill-rule:nonzero;stroke:none;stroke-width:0.0352778"
       id="path1560" />
    <path
       d="m 139.98411,58.54106 c -0.0991,-0.46249 -0.19297,-0.86748 -0.27975,-1.21744 -0.32985,-1.02129 -0.82092,-2.01083 -0.82092,-2.01083 l 0.21343,-0.002 c -0.0113,-0.0762 -0.0579,-0.42863 -0.0222,-0.81069 -0.48401,0.16863 -0.84173,0.31151 -0.85902,0.37077 -0.0554,0.1898 1.10102,2.99615 1.20015,3.85304 0.0991,0.8569 -0.0776,6.18526 -0.0776,6.18526 l 0.31715,-0.005 c 0,0 0.40816,-5.02567 0.33655,-6.26428 -0.002,-0.0325 -0.005,-0.0656 -0.008,-0.0995"
       style="fill:#3e5c87;fill-opacity:1;fill-rule:nonzero;stroke:none;stroke-width:0.0352778"
       id="path1562" />
    <path
       d="m 141.78151,51.76455 0.74189,0.91052 c 0.96415,-0.19614 2.02706,-0.38841 3.01202,-0.57785 -1.28482,0.13829 -2.53788,0.0409 -3.75391,-0.33267"
       style="fill:#3e5c87;fill-opacity:1;fill-rule:nonzero;stroke:none;stroke-width:0.0352778"
       id="path1564" />
    <path
       d="m 147.7237,51.63261 c 0,0 0.87454,1.41711 0.24024,3.56976 l -8.8646,0.12453 c 0,0 -0.1965,-1.18216 0.29986,-1.69227 0.69145,-0.7112 5.82789,-1.37337 8.3245,-2.00202"
       style="fill:#5775aa;fill-opacity:1;fill-rule:nonzero;stroke:none;stroke-width:0.0352778"
       id="path1566" />
    <path
       d="m 141.26998,55.29656 -2.17064,0.0303 c 0,0 0.96661,2.12972 1.93287,9.55852 l 0.76447,-0.0106 c 0,0 0.5581,-4.93677 0.44944,-6.26568 -0.1083,-1.32856 -0.97614,-3.31259 -0.97614,-3.31259"
       style="fill:#5775aa;fill-opacity:1;fill-rule:nonzero;stroke:none;stroke-width:0.0352778"
       id="path1568" />
    <path
       d="m 147.96394,55.20237 -6.69431,0.0942 c 0,0 0.90135,2.17911 0.97649,3.31259 0.0953,1.43474 -0.44944,6.26568 -0.44944,6.26568 l -0.28363,0.004 c 0,0 0.33796,-4.95935 0.19261,-6.20112 -0.14499,-1.24178 -1.24707,-3.63432 -1.06856,-3.8915 0.1778,-0.25682 4.85281,-0.57644 7.53851,-1.52329 0,0 0.10301,1.12748 -0.21167,1.93957"
       style="fill:#476291;fill-opacity:1;fill-rule:nonzero;stroke:none;stroke-width:0.0352778"
       id="path1570" />
    <path
       d="m 143.00741,48.12706 c 0.0183,1.30281 -0.39546,2.1149 -1.36701,3.59481 1.95756,0.63782 4.0125,0.54998 6.14151,-0.0861 -0.47413,-1.2566 -1.18322,-2.27965 -1.97203,-3.16936 l -0.0176,-0.0194 -0.0233,-0.0265 -0.0166,-0.018 c -0.41593,-0.72884 0.82973,-1.5868 1.30563,-3.01943 0.48472,-1.46014 0.25329,-2.21473 0.25329,-2.21473 -1.84326,-0.79552 -2.91959,-0.96979 -4.99145,-0.0878 l -0.061,1.26401 c 0,0 -0.55104,0.99377 -0.48154,1.4351 0.0695,0.44132 1.22026,1.65311 1.23013,2.34738"
       style="fill:#ff77c4;fill-opacity:1;fill-rule:nonzero;stroke:none;stroke-width:0.0352778"
       id="path1572" />
    <path
       d="m 141.6404,51.72187 c 0.17568,-0.62054 1.39524,-1.58257 1.36701,-3.59481 -0.0113,-0.80645 -1.15922,-1.74166 -1.23013,-2.35867 0.43321,0.17815 2.22038,0.70908 5.04578,0.15981 -0.52529,1.44321 -1.19521,1.83867 -1.07068,2.47438 l 0.0166,0.018 0.0233,0.0265 0.0176,0.0194 c 0.78881,0.88971 1.4979,1.91276 1.97203,3.16936 -1.04246,0.3115 -2.06657,0.48895 -3.07093,0.51717 -0.99307,0.0116 -2.12055,-0.12171 -3.07058,-0.43109"
       style="fill:#ed65b2;fill-opacity:1;fill-rule:nonzero;stroke:none;stroke-width:0.0352778"
       id="path1574" />
    <path
       d="m 143.87066,48.92469 c 0,-0.17815 -0.0959,-0.60713 -0.19791,-1.06115 -0.14534,-0.64735 -0.30974,-1.38078 -0.28398,-1.74273 0.0437,-0.61489 0.63711,-2.36714 0.66251,-2.44157 l 0.0815,0.0279 c -0.006,0.018 -0.6149,1.8161 -0.65793,2.41935 -0.025,0.34995 0.13828,1.07667 0.28186,1.71838 0.1076,0.47872 0.20038,0.89253 0.20003,1.07985 -0.001,1.09396 -0.22719,2.10538 -0.70203,3.15489 l -0.091,-0.009 c 0.47801,-1.0481 0.7052,-2.05599 0.70696,-3.14607"
       style="fill:#db52a3;fill-opacity:1;fill-rule:nonzero;stroke:none;stroke-width:0.0352778"
       id="path1576" />
    <path
       d="m 142.74671,50.42999 c -0.0356,0.0208 -0.0702,0.0409 -0.10724,0.0635 -0.19438,0.12806 -0.42545,0.24836 -0.58526,0.36266 l 7e-4,-0.002 c -0.52987,0.31361 -0.57397,0.39511 -0.62124,0.4572 -0.0586,0.0772 -0.19367,0.50447 -0.13864,0.52458 0.18627,-0.0529 0.21802,-0.37395 0.2607,-0.41134 0.0349,-0.0307 0.26917,-0.12983 0.35419,-0.16546 l 0.037,0.0512 c -0.12276,0.41804 -0.10548,0.46884 -0.12558,0.57679 -0.0187,0.0991 -0.0134,0.52493 0.0688,0.50941 0.10654,-0.0988 0.0892,-0.40428 0.0981,-0.46426 0.008,-0.0575 0.1718,-0.45578 0.18415,-0.48507 l 0.024,0.007 c -0.0794,0.28963 -0.0681,0.33867 -0.0854,0.43074 -0.0176,0.0949 -0.0127,0.50342 0.066,0.4886 0.1023,-0.0945 0.0857,-0.3877 0.0942,-0.44521 0.007,-0.0508 0.14076,-0.37817 0.17145,-0.45296 l 0.0268,-0.002 c -0.0289,0.12629 -0.0257,0.1651 -0.037,0.22472 -0.0152,0.0808 -0.0106,0.42651 0.0561,0.41381 0.0864,-0.0801 0.0723,-0.32809 0.0794,-0.37677 0.005,-0.0356 0.0822,-0.2286 0.12418,-0.33161 l 0.0229,-0.0134 c 0.14252,-0.11359 0.2413,-0.33337 0.29704,-0.48648 -0.0811,-0.0995 -0.20637,-0.27587 -0.26529,-0.47378"
       style="fill:#f4be84;fill-opacity:1;fill-rule:nonzero;stroke:none;stroke-width:0.0352778"
       id="path1578" />
    <path
       d="m 147.27497,43.18217 c 1.15041,0.0388 2.48214,6.48653 1.73778,7.31944 -0.96308,1.21391 -4.15925,0.46249 -5.92772,0.48683 0,0 -0.31292,-0.32103 -0.36442,-0.6671 1.25483,-0.72743 4.53566,-0.78811 4.82035,-0.92675 0.28469,-0.13829 -1.41252,-6.25157 -0.26599,-6.21242"
       style="fill:#ff77c4;fill-opacity:1;fill-rule:nonzero;stroke:none;stroke-width:0.0352778"
       id="path1580" />
    <path
       d="m 148.85753,50.21974 c 0.5842,-0.6537 -0.11148,-4.7558 -0.99378,-6.51404 0.95286,1.5494 1.76707,6.10411 1.149,6.79591 -0.96308,1.21391 -4.15925,0.46214 -5.92772,0.48683 0,0 -0.10584,-0.11606 -0.20497,-0.27693 1.78047,-0.009 5.02426,0.70979 5.97747,-0.49177"
       style="fill:#e55daa;fill-opacity:1;fill-rule:nonzero;stroke:none;stroke-width:0.0352778"
       id="path1582" />
    <path
       d="m 146.18136,42.73697 -1.34656,1.37689 -0.40357,-0.56938 -0.37254,0.32879 -0.25682,-0.37395 -0.44274,0.47343 -0.0399,-1.25801 0.80504,0.0794 2.05705,-0.0572"
       style="fill:#db52a3;fill-opacity:1;fill-rule:nonzero;stroke:none;stroke-width:0.0352778"
       id="path1584" />
    <path
       d="m 146.18136,42.73697 -0.62548,-0.93416 -1.43157,0.99131 0.66075,0.98813 1.3963,-1.04528"
       style="fill:#ed65b2;fill-opacity:1;fill-rule:nonzero;stroke:none;stroke-width:0.0352778"
       id="path1586" />
    <path
       d="m 143.81034,42.04976 0.31397,0.74436 -0.70132,0.87101 -0.10372,-0.95039 0.49107,-0.66498"
       style="fill:#ed65b2;fill-opacity:1;fill-rule:nonzero;stroke:none;stroke-width:0.0352778"
       id="path1588" />
    <path
       d="m 143.83997,42.11996 0.28434,0.67416 1.34585,-0.93204 c -0.0314,-0.005 -0.0642,-0.008 -0.0991,-0.008 l -0.0258,-0.37395 c -0.37641,0.3295 -0.88265,0.63641 -1.30739,0.58703 -0.048,-0.006 -0.0949,-0.0176 -0.14147,-0.0332 l 0.004,0.0547 -0.0603,0.031"
       style="fill:#feb48c;fill-opacity:1;fill-rule:nonzero;stroke:none;stroke-width:0.0352778"
       id="path1590" />
    <path
       d="m 144.71768,42.15418 c 0.37042,-0.0981 0.6417,-0.47061 0.6417,-0.47061 -0.005,-0.073 -0.01,-0.14075 -0.0141,-0.2032 -0.37641,0.3295 -0.88265,0.63641 -1.30739,0.58703 -0.048,-0.006 -0.0949,-0.0176 -0.14147,-0.0332 l 0.004,0.0572 c 0,0 0.38347,0.17675 0.81704,0.0628"
       style="fill:#ba6549;fill-opacity:1;fill-rule:nonzero;stroke:none;stroke-width:0.0352778"
       id="path1592" />
    <path
       d="m 145.89631,40.79881 c -0.0236,-0.21555 -0.0554,-0.42193 -0.0928,-0.61137 -0.14781,-0.10618 -0.29104,-0.21731 -0.42827,-0.33549 l 0.0437,0.0416 -0.0797,-0.0716 -0.0868,-0.0776 c -0.0952,-0.0878 -0.18838,-0.17815 -0.27517,-0.27552 -0.37147,-0.41486 -0.72143,-0.88935 -0.77858,-1.43686 -0.32667,0.28963 -0.67662,0.49601 -1.06362,0.63747 -0.133,0.20779 -0.28751,0.48295 -0.42616,0.8128 0.008,0.39829 0.0187,0.82832 0.0314,0.98531 0.0261,0.32173 0.60255,1.51835 1.29752,1.59985 0.74542,0.0871 1.74801,-0.92534 1.84749,-1.23226 l 0.0109,-0.0363"
       style="fill:#feb48c;fill-opacity:1;fill-rule:nonzero;stroke:none;stroke-width:0.0352778"
       id="path1594" />
    <path
       d="m 142.78164,39.89711 c 0.006,0.12841 0.012,0.24236 0.001,0.32879 -0.0113,0.0861 -0.0402,0.14781 -0.10936,0.15804 -0.0674,0.01 -0.15205,-0.042 -0.21873,-0.1457 -0.0339,-0.0512 -0.0621,-0.115 -0.0829,-0.18626 -0.0201,-0.0713 -0.0318,-0.15029 -0.0321,-0.23143 -3.5e-4,-0.16263 0.0452,-0.2995 0.10477,-0.381 0.06,-0.0826 0.13124,-0.11077 0.19333,-0.0811 0.0628,0.0296 0.0942,0.1023 0.11288,0.1972 0.0187,0.0949 0.024,0.21343 0.0307,0.34149"
       style="fill:#feb48c;fill-opacity:1;fill-rule:nonzero;stroke:none;stroke-width:0.0352778"
       id="path1596" />
    <path
       d="m 145.88114,40.32044 c -0.0564,0.13088 -0.10654,0.24694 -0.12947,0.34043 -0.0219,0.0938 -0.0159,0.16933 0.0519,0.20673 0.0663,0.0367 0.17392,0.0159 0.28363,-0.0653 0.055,-0.0406 0.10937,-0.0952 0.15875,-0.16086 0.0487,-0.0667 0.0914,-0.14429 0.12348,-0.22825 0.0639,-0.16827 0.0702,-0.32808 0.0402,-0.43568 -0.03,-0.10936 -0.0928,-0.16651 -0.16862,-0.15981 -0.0769,0.006 -0.13794,0.0695 -0.19438,0.16052 -0.0568,0.0914 -0.10831,0.21166 -0.16546,0.34219"
       style="fill:#feb48c;fill-opacity:1;fill-rule:nonzero;stroke:none;stroke-width:0.0352778"
       id="path1598" />
    <path
       d="m 143.09349,37.30701 c -0.20038,0.21343 -0.33161,0.49636 -0.41557,0.7807 -0.0727,0.24589 -0.11642,0.49883 -0.16827,0.75001 0.64981,-0.11713 1.19521,-0.3676 1.6891,-0.80575 0.0572,0.54751 0.4071,1.022 0.77858,1.43686 0.38946,0.43498 0.87277,0.77012 1.36736,1.08444 0.15205,-0.39969 0.29351,-0.80398 0.37289,-1.22308 0.0981,-0.51646 0.0977,-1.06327 -0.0892,-1.55434 -0.18662,-0.49142 -0.57856,-0.91969 -1.08233,-1.06962 -0.46249,-0.13793 -1.01106,-0.002 -1.31903,0.3623 -0.26706,-0.14887 -0.63536,-0.12135 -0.90241,0.0473 -0.0857,0.0536 -0.16228,0.11818 -0.23107,0.1912"
       style="fill:#644032;fill-opacity:1;fill-rule:nonzero;stroke:none;stroke-width:0.0352778"
       id="path1600" />
    <path
       d="m 144.23332,37.74516 c 0.003,1.07245 1.18568,2.14842 1.18568,2.14842 -0.15663,-0.13194 -0.3048,-0.27199 -0.44167,-0.42475 -0.37148,-0.41486 -0.72143,-0.88935 -0.77858,-1.43686 -0.49389,0.43815 -1.03929,0.68862 -1.6891,0.80575 l 0.0187,-0.0914 c 0.77047,-0.14638 1.27635,-0.35099 1.70498,-1.00116"
       style="fill:#4b3026;fill-opacity:1;fill-rule:nonzero;stroke:none;stroke-width:0.0352778"
       id="path1602" />
    <path
       d="m 145.38302,36.66954 c 0.055,0.008 0.10971,0.0205 0.16298,0.0367 0.50377,0.14993 0.89571,0.5782 1.08233,1.06962 0.18697,0.49107 0.18732,1.03788 0.0892,1.55434 -0.0794,0.4191 -0.22084,0.82339 -0.37289,1.22308 0,0 0.16016,-1.07597 0.20849,-1.61043 0.0593,-0.89817 -0.2995,-1.92828 -1.17016,-2.2733"
       style="fill:#4b3026;fill-opacity:1;fill-rule:nonzero;stroke:none;stroke-width:0.0352778"
       id="path1604" />
    <path
       d="m 143.09349,37.30701 c 0.0688,-0.073 0.14535,-0.13758 0.23107,-0.1912 0.26705,-0.16863 0.63535,-0.19615 0.90241,-0.0473 0.13405,-0.15875 0.31397,-0.2741 0.51188,-0.34219 -0.26988,0.16334 -0.4258,0.29774 -0.50694,0.59549 -0.39194,-0.43921 -0.88936,-0.17815 -1.14653,-0.005 l 0.008,-0.01"
       style="fill:#4b3026;fill-opacity:1;fill-rule:nonzero;stroke:none;stroke-width:0.0352778"
       id="path1606" />
    <path
       d="m 144.80552,37.14156 c -0.0455,0.94297 0.19227,1.71344 0.96838,2.2987 -0.78634,-0.68016 -0.94404,-1.49155 -0.96838,-2.2987"
       style="fill:#4b3026;fill-opacity:1;fill-rule:nonzero;stroke:none;stroke-width:0.0352778"
       id="path1608" />
    <path
       d="m 146.3521,39.2233 c -0.45085,-0.19861 -0.83044,-0.56797 -1.04457,-1.03152 0.14146,0.47801 0.54857,0.88759 1.04457,1.03152"
       style="fill:#4b3026;fill-opacity:1;fill-rule:nonzero;stroke:none;stroke-width:0.0352778"
       id="path1610" />
    <path
       d="m 143.46003,38.22282 c 0,0 -1.13453,1.27141 -1.14124,3.11997 0,0 -0.1912,-0.99554 -0.0187,-1.72297 0.14675,-0.6163 0.2734,-1.0996 0.2734,-1.0996 l 0.88653,-0.2974"
       style="fill:#644032;fill-opacity:1;fill-rule:nonzero;stroke:none;stroke-width:0.0352778"
       id="path1612" />
    <path
       d="m 145.44158,38.93085 c 0,0 0.73731,1.74343 0.41487,3.51755 0,0 0.4893,-0.91299 0.48366,-1.65771 -0.005,-0.63147 -0.018,-1.12959 -0.018,-1.12959 l -0.88053,-0.73025"
       style="fill:#644032;fill-opacity:1;fill-rule:nonzero;stroke:none;stroke-width:0.0352778"
       id="path1614" />
    <path
       d="m 160.50837,97.11936 c 0.19085,-0.13892 0.57785,0.0276 1.83585,-0.49597 1.8348,-0.76412 2.55129,-4.71234 2.55129,-4.71234 -2.79188,-0.35002 -2.61514,3.67274 -3.6957,4.36094 -0.48754,0.31048 -0.71684,0.61101 -0.82232,0.84737 h 0.13088"
       style="fill:#66e8c4;fill-opacity:1;fill-rule:nonzero;stroke:none;stroke-width:0.0352778"
       id="path1616" />
    <path
       d="m 164.02944,93.08721 c -0.57397,1.16982 -1.25165,2.89553 -2.39501,3.4459 -0.31926,0.15381 -0.55245,0.32731 -0.72636,0.49805 0.27516,-0.0335 0.71049,-0.10544 1.43615,-0.40777 1.8348,-0.76412 2.55129,-4.71234 2.55129,-4.71234 0,0 -0.2921,0.006 -0.86607,1.17616"
       style="fill:#3fd2c5;fill-opacity:1;fill-rule:nonzero;stroke:none;stroke-width:0.0352778"
       id="path1618" />
    <path
       d="m 159.3308,97.11936 h 0.30268 c 0.1965,-0.41755 0.25964,-1.20361 -0.39793,-2.64682 -1.21674,-2.67049 -1.83092,-6.13407 -0.98284,-7.15257 0,0 -2.90372,2.06967 -2.24367,4.22275 0.61983,2.02032 3.73944,3.36652 3.32176,5.57664"
       style="fill:#35bfe6;fill-opacity:1;fill-rule:nonzero;stroke:none;stroke-width:0.0352778"
       id="path1620" />
    <path
       d="m 159.45392,97.11936 h 0.17956 c 0.19685,-0.41755 0.26,-1.20361 -0.39793,-2.64682 -1.21674,-2.67049 -1.83092,-6.13407 -0.98284,-7.15257 0,0 -1.91665,2.13113 -1.18922,4.1723 0.71791,2.0151 2.93018,3.06419 2.39043,5.62709"
       style="fill:#0a88d2;fill-opacity:1;fill-rule:nonzero;stroke:none;stroke-width:0.0352778"
       id="path1622" />
    <path
       d="m 156.46342,95.99086 c 1.10525,0.4505 1.57797,0.74965 1.88595,1.1285 h 0.38805 c -0.28998,-0.87658 -0.46284,-1.81434 -1.1437,-2.52335 -0.77294,-0.80504 -3.75144,-2.13042 -3.85375,-2.28424 -0.1023,-0.15377 1.23084,3.07097 2.72345,3.67909"
       style="fill:#49d3d5;fill-opacity:1;fill-rule:nonzero;stroke:none;stroke-width:0.0352778"
       id="path1624" />
    <path
       d="m 158.39629,96.87171 c 0.0233,0.0703 0.0572,0.15557 0.097,0.24765 h 0.24412 c -0.28998,-0.87658 -0.46285,-1.81434 -1.14371,-2.52335 -0.77293,-0.80504 -3.75144,-2.13042 -3.85374,-2.28424 0,0 1.44568,1.81325 3.05364,2.64199 1.15147,0.59299 1.45592,1.47038 1.60267,1.91795"
       style="fill:#0fa1b8;fill-opacity:1;fill-rule:nonzero;stroke:none;stroke-width:0.0352778"
       id="path1626" />
    <path
       d="m 160.16935,95.85335 c -0.037,0.52916 -0.15663,0.95098 -0.28328,1.26601 h 0.21131 c 0.72531,-0.93624 1.8408,-2.75375 1.63195,-4.87606 -0.30515,-3.10198 -0.63711,-6.98997 -0.63711,-6.98997 0,0 -4.08306,3.09562 -2.07399,6.52889 1.00154,1.71207 1.22132,3.077 1.15112,4.07113"
       style="fill:#66e8c7;fill-opacity:1;fill-rule:nonzero;stroke:none;stroke-width:0.0352778"
       id="path1628" />
    <path
       d="m 160.37643,90.13161 c 0.41381,2.5703 0.41945,5.44833 -0.24024,6.66609 0.12029,-0.085 0.24871,-0.17459 0.38064,-0.26568 0.66429,-1.01286 1.38395,-2.5484 1.2125,-4.28872 -0.30515,-3.10198 -0.63711,-6.98997 -0.63711,-6.98997 0,0 -1.25448,1.53278 -0.71579,4.87828"
       style="fill:#3fd2c5;fill-opacity:1;fill-rule:nonzero;stroke:none;stroke-width:0.0352778"
       id="path1630" />
    <path
       d="m 162.5693,96.9314 h -4.64679 c -0.41205,0 -0.72426,0.37151 -0.6537,0.7772 l 0.59372,3.41973 c 0.0924,0.48591 0.51682,0.83717 1.01107,0.83717 h 2.74496 c 0.49424,0 0.91863,-0.35126 1.01106,-0.83717 l 0.59373,-3.41973 c 0.0706,-0.40569 -0.24201,-0.7772 -0.65405,-0.7772"
       style="fill:#cadbf9;fill-opacity:1;fill-rule:nonzero;stroke:none;stroke-width:0.0352778"
       id="path1632" />
    <path
       d="m 163.23217,97.61752 c 0.0134,-0.36823 -0.28187,-0.68612 -0.66287,-0.68612 h -4.64679 c -0.38065,0 -0.67593,0.31789 -0.66252,0.68612 h 5.97218"
       style="fill:#a1b7eb;fill-opacity:1;fill-rule:nonzero;stroke:none;stroke-width:0.0352778"
       id="path1634" />
    <path
       d="m 162.5693,96.9314 h -1.29188 c 0.4117,0 0.72426,0.37151 0.6537,0.7772 l -0.59372,3.41973 c -0.0924,0.48591 -0.51682,0.83717 -1.01107,0.83717 h 1.29223 c 0.49424,0 0.91863,-0.35126 1.01106,-0.83717 l 0.59373,-3.41973 c 0.0706,-0.40569 -0.24201,-0.7772 -0.65405,-0.7772"
       style="fill:#a1b7eb;fill-opacity:1;fill-rule:nonzero;stroke:none;stroke-width:0.0352778"
       id="path1636" />
    <path
       d="m 51.277672,97.11936 c 0.190888,-0.13892 0.577956,0.0276 1.835715,-0.49597 1.834833,-0.76412 2.551289,-4.71234 2.551289,-4.71234 -2.791778,-0.35002 -2.615107,3.67274 -3.695489,4.36094 -0.48768,0.31048 -0.716985,0.61101 -0.82243,0.84737 h 0.130915"
       style="fill:#66e8c4;fill-opacity:1;fill-rule:nonzero;stroke:none;stroke-width:0.0352778"
       id="path1638" />
    <path
       d="m 54.798571,93.08721 c -0.573934,1.16982 -1.251408,2.89553 -2.395044,3.4459 -0.319017,0.15381 -0.55245,0.32731 -0.726475,0.49805 0.27559,-0.0335 0.710777,-0.10544 1.436335,-0.40777 1.834691,-0.76412 2.551289,-4.71234 2.551289,-4.71234 0,0 -0.292135,0.006 -0.866105,1.17616"
       style="fill:#3fd2c5;fill-opacity:1;fill-rule:nonzero;stroke:none;stroke-width:0.0352778"
       id="path1640" />
    <path
       d="m 50.100135,97.11936 h 0.302366 c 0.19678,-0.41755 0.259892,-1.20361 -0.39758,-2.64682 -1.216802,-2.67049 -1.830988,-6.13407 -0.983086,-7.15257 0,0 -2.903679,2.06967 -2.243455,4.22275 0.619724,2.02032 3.739444,3.36652 3.321755,5.57664"
       style="fill:#35bfe6;fill-opacity:1;fill-rule:nonzero;stroke:none;stroke-width:0.0352778"
       id="path1642" />
    <path
       d="m 50.22322,97.11936 h 0.179422 c 0.19678,-0.41755 0.260033,-1.20361 -0.397721,-2.64682 -1.216802,-2.67049 -1.830988,-6.13407 -0.983086,-7.15257 0,0 -1.91643,2.13113 -1.18925,4.1723 0.717974,2.0151 2.930279,3.06419 2.390635,5.62709"
       style="fill:#0a88d2;fill-opacity:1;fill-rule:nonzero;stroke:none;stroke-width:0.0352778"
       id="path1644" />
    <path
       d="m 47.232581,95.99086 c 1.105182,0.4505 1.57801,0.74965 1.886127,1.1285 h 0.387914 c -0.290054,-0.87658 -0.463021,-1.81434 -1.143635,-2.52335 -0.772936,-0.80504 -3.751545,-2.13042 -3.853815,-2.28424 -0.102094,-0.15377 1.230877,3.07097 2.723409,3.67909"
       style="fill:#49d3d5;fill-opacity:1;fill-rule:nonzero;stroke:none;stroke-width:0.0352778"
       id="path1646" />
    <path
       d="m 49.165698,96.87171 c 0.02304,0.0703 0.05666,0.15557 0.09673,0.24765 h 0.244334 C 49.216673,96.24278 49.0436,95.30502 48.362986,94.59601 47.59005,93.79097 44.611441,92.46559 44.509171,92.31177 c 0,0 1.445718,1.81325 3.05375,2.64199 1.151044,0.59299 1.455879,1.47038 1.602776,1.91795"
       style="fill:#0fa1b8;fill-opacity:1;fill-rule:nonzero;stroke:none;stroke-width:0.0352778"
       id="path1648" />
    <path
       d="m 50.938547,95.85335 c -0.03722,0.52916 -0.156527,0.95098 -0.283316,1.26601 h 0.211244 c 0.725417,-0.93624 1.841217,-2.75375 1.632161,-4.87606 -0.305258,-3.10198 -0.637363,-6.98997 -0.637363,-6.98997 0,0 -4.082698,3.09562 -2.073805,6.52889 1.001713,1.71207 1.221211,3.077 1.151079,4.07113"
       style="fill:#66e8c7;fill-opacity:1;fill-rule:nonzero;stroke:none;stroke-width:0.0352778"
       id="path1650" />
    <path
       d="m 51.145522,90.13161 c 0.413985,2.5703 0.419347,5.44833 -0.240171,6.66609 0.120156,-0.085 0.248849,-0.17459 0.380471,-0.26568 0.664633,-1.01286 1.384229,-2.5484 1.212814,-4.28872 -0.305258,-3.10198 -0.637363,-6.98997 -0.637363,-6.98997 0,0 -1.254267,1.53278 -0.715751,4.87828"
       style="fill:#3fd2c5;fill-opacity:1;fill-rule:nonzero;stroke:none;stroke-width:0.0352778"
       id="path1652" />
    <path
       d="m 53.338671,96.9314 h -4.64686 c -0.412044,0 -0.724323,0.37151 -0.653909,0.7772 l 0.593796,3.41973 c 0.09236,0.48591 0.516925,0.83717 1.011237,0.83717 h 2.744612 c 0.494453,0 0.918739,-0.35126 1.011061,-0.83717 l 0.593936,-3.41973 c 0.07056,-0.40569 -0.24197,-0.7772 -0.653873,-0.7772"
       style="fill:#cadbf9;fill-opacity:1;fill-rule:nonzero;stroke:none;stroke-width:0.0352778"
       id="path1654" />
    <path
       d="m 54.001364,97.61752 c 0.01351,-0.36823 -0.281799,-0.68612 -0.662693,-0.68612 h -4.64686 c -0.381035,0 -0.676063,0.31789 -0.662728,0.68612 h 5.972281"
       style="fill:#a1b7eb;fill-opacity:1;fill-rule:nonzero;stroke:none;stroke-width:0.0352778"
       id="path1656" />
    <path
       d="m 53.338671,96.9314 h -1.29219 c 0.412044,0 0.724429,0.37151 0.653874,0.7772 l -0.593796,3.41973 c -0.09232,0.48591 -0.516749,0.83717 -1.011061,0.83717 h 1.292049 c 0.494453,0 0.918739,-0.35126 1.011061,-0.83717 l 0.593936,-3.41973 c 0.07056,-0.40569 -0.24197,-0.7772 -0.653873,-0.7772"
       style="fill:#a1b7eb;fill-opacity:1;fill-rule:nonzero;stroke:none;stroke-width:0.0352778"
       id="path1658" />
    <path
       d="m 152.55041,24.44297 c 1.47496,0.45791 2.2987,2.02565 1.83973,3.50061 -0.45861,1.47532 -2.02635,2.30012 -3.50132,1.8415 -1.47496,-0.45825 -2.2987,-2.02565 -1.84009,-3.50096 0.45897,-1.47497 2.02636,-2.29941 3.50168,-1.84115 z m -4.40091,-1.62595 c -0.5027,0.41663 -0.93556,0.92392 -1.27141,1.50777 l -1.88736,-0.24906 -0.52564,1.69086 1.68804,0.86007 c -0.0603,0.67663 0.005,1.34656 0.18133,1.9805 l -1.5046,1.15358 0.82374,1.56704 1.81222,-0.58914 c 0.42228,0.49671 0.93451,0.92322 1.52188,1.25131 l -0.25153,1.90288 1.69051,0.52528 0.88195,-1.73037 c 0.65581,0.0487 1.30387,-0.0208 1.9184,-0.19368 l 1.19345,1.55752 1.56739,-0.82409 -0.61312,-1.88842 c 0.47236,-0.40781 0.87947,-0.89747 1.19768,-1.45662 l 1.98155,0.26176 0.52599,-1.69122 -1.78858,-0.91122 c 0.0494,-0.635 -0.0116,-1.2633 -0.17075,-1.8609 l 1.59421,-1.22167 -0.82374,-1.56739 -1.90006,0.61771 c -0.40252,-0.47766 -0.88759,-0.89112 -1.44251,-1.21603 l 0.26035,-1.96673 -1.69086,-0.52564 -0.89041,1.74766 c -0.65582,-0.0603 -1.30564,-0.002 -1.92264,0.16016 l -1.18075,-1.54128 -1.56739,0.82444 0.59266,1.82492"
       style="fill:#a9ceea;fill-opacity:1;fill-rule:nonzero;stroke:none;stroke-width:0.0352778"
       id="path1660" />
    <path
       d="m 153.2542,24.72237 c 1.47496,0.45791 2.29905,2.02565 1.84009,3.50061 -0.45861,1.47532 -2.02636,2.29976 -3.50132,1.8415 -1.47497,-0.45825 -2.2987,-2.02565 -1.84009,-3.50096 0.45861,-1.47497 2.02635,-2.29976 3.50132,-1.84115 z m -4.4009,-1.62631 c -0.50236,0.41699 -0.93522,0.92428 -1.27106,1.50813 l -1.88736,-0.24906 -0.526,1.69086 1.6884,0.86007 c -0.0603,0.67663 0.005,1.3462 0.18133,1.9805 l -1.5046,1.15358 0.82374,1.56704 1.81221,-0.58914 c 0.42193,0.49671 0.93451,0.92322 1.52189,1.25131 l -0.25189,1.90288 1.69087,0.52528 0.88194,-1.73037 c 0.65582,0.0483 1.30387,-0.0208 1.91841,-0.19368 l 1.19345,1.55752 1.56739,-0.82409 -0.61313,-1.88842 c 0.47202,-0.40781 0.87947,-0.89747 1.19768,-1.45662 l 1.98155,0.26176 0.52564,-1.69086 -1.78858,-0.91158 c 0.0497,-0.635 -0.0116,-1.2633 -0.17039,-1.8609 l 1.5942,-1.22167 -0.82409,-1.56739 -1.90006,0.61771 c -0.40217,-0.47766 -0.88724,-0.89112 -1.44251,-1.21603 l 0.2607,-1.96673 -1.69086,-0.52564 -0.89041,1.74766 c -0.65617,-0.0603 -1.30563,-0.002 -1.92299,0.16016 l -1.1804,-1.54128 -1.56774,0.82444 0.59267,1.82456"
       style="fill:#c9e2f4;fill-opacity:1;fill-rule:nonzero;stroke:none;stroke-width:0.0352778"
       id="path1662" />
    <path
       d="m 155.12463,34.33098 -0.3549,-0.4632 -0.34925,0.1838 z"
       style="fill:#a9ceea;fill-opacity:1;fill-rule:nonzero;stroke:none;stroke-width:0.0352778"
       id="path1664" />
    <path
       d="m 146.35775,31.60718 -0.70415,-0.2794 0.4759,-0.15452 z"
       style="fill:#a9ceea;fill-opacity:1;fill-rule:nonzero;stroke:none;stroke-width:0.0352778"
       id="path1666" />
    <path
       d="m 149.43996,34.17223 -0.70379,-0.2794 0.71156,0.22119 z"
       style="fill:#a9ceea;fill-opacity:1;fill-rule:nonzero;stroke:none;stroke-width:0.0352778"
       id="path1668" />
    <path
       d="m 158.5949,23.17121 -0.70379,-0.2794 0.22825,0.43427 z"
       style="fill:#a9ceea;fill-opacity:1;fill-rule:nonzero;stroke:none;stroke-width:0.0352778"
       id="path1670" />
    <path
       d="m 149.82837,20.44706 -0.70414,-0.2794 0.35489,0.46319 z"
       style="fill:#a9ceea;fill-opacity:1;fill-rule:nonzero;stroke:none;stroke-width:0.0352778"
       id="path1672" />
    <path
       d="m 155.51303,20.60616 -0.70414,-0.2794 -0.008,0.0582 z"
       style="fill:#a9ceea;fill-opacity:1;fill-rule:nonzero;stroke:none;stroke-width:0.0352778"
       id="path1674" />
    <path
       d="m 141.52928,15.38681 c 1.00682,0.31256 1.56915,1.38289 1.25588,2.38972 -0.31326,1.00753 -1.38324,1.56986 -2.39007,1.2573 -1.00682,-0.31292 -1.5695,-1.38289 -1.25624,-2.39007 0.31327,-1.00683 1.38324,-1.56986 2.39043,-1.25695 z m -3.00426,-1.10984 c -0.3429,0.28434 -0.63853,0.63077 -0.86783,1.02905 l -1.28835,-0.16968 -0.35913,1.15393 1.15253,0.58703 c -0.0409,0.46214 0.004,0.91969 0.12382,1.35219 l -1.02693,0.7874 0.56233,1.06963 1.23683,-0.40217 c 0.28822,0.33902 0.63783,0.63041 1.03894,0.85443 l -0.17181,1.29893 1.15429,0.35842 0.60184,-1.1811 c 0.44768,0.0335 0.89006,-0.0141 1.30951,-0.13194 l 0.81492,1.06327 1.06997,-0.56268 -0.41874,-1.2894 c 0.32244,-0.27834 0.60042,-0.61278 0.81774,-0.99413 l 1.35255,0.17851 0.35877,-1.15394 -1.22096,-0.6223 c 0.0339,-0.43392 -0.008,-0.86254 -0.11607,-1.27035 l 1.08797,-0.83397 -0.56233,-1.06998 -1.29716,0.42157 c -0.27446,-0.32596 -0.60572,-0.60854 -0.98461,-0.83008 l 0.1778,-1.34232 -1.15393,-0.35878 -0.60819,1.19275 c -0.44768,-0.0413 -0.89112,-0.002 -1.31233,0.10936 l -0.8061,-1.05199 -1.06998,0.56268 0.40464,1.24566"
       style="fill:#a9ceea;fill-opacity:1;fill-rule:nonzero;stroke:none;stroke-width:0.0352778"
       id="path1676" />
    <path
       d="m 142.00976,15.57766 c 1.00683,0.31256 1.56915,1.38289 1.25589,2.38972 -0.31292,1.00718 -1.38324,1.56986 -2.39007,1.2573 -1.00683,-0.31327 -1.56916,-1.38289 -1.25589,-2.39007 0.31291,-1.00718 1.38324,-1.56986 2.39007,-1.25695 z m -3.00426,-1.11019 c -0.3429,0.28469 -0.63852,0.63112 -0.86748,1.02941 l -1.28869,-0.17004 -0.35878,1.15429 1.15217,0.58702 c -0.0409,0.46214 0.004,0.91934 0.12383,1.3522 l -1.02694,0.7874 0.56233,1.06962 1.23684,-0.40217 c 0.28822,0.33902 0.63782,0.63042 1.03928,0.85408 l -0.17215,1.29893 1.15428,0.35877 0.60184,-1.1811 c 0.44768,0.0332 0.89006,-0.0141 1.30952,-0.13229 l 0.81491,1.06327 1.06998,-0.56268 -0.4184,-1.28905 c 0.32209,-0.27869 0.60008,-0.61277 0.81739,-0.99448 l 1.35255,0.17886 0.35877,-1.15429 -1.22061,-0.6223 c 0.0339,-0.43356 -0.008,-0.86219 -0.11641,-1.27035 l 1.08796,-0.83397 -0.56233,-1.06962 -1.29716,0.42157 c -0.27446,-0.32632 -0.60537,-0.60819 -0.9846,-0.83009 l 0.1778,-1.34267 -1.15394,-0.35878 -0.60783,1.19275 c -0.44803,-0.0409 -0.89147,-0.001 -1.31269,0.10971 l -0.8061,-1.05234 -1.06962,0.56304 0.40428,1.2453"
       style="fill:#c9e2f4;fill-opacity:1;fill-rule:nonzero;stroke:none;stroke-width:0.0352778"
       id="path1678" />
    <path
       d="m 143.28646,22.13686 -0.24236,-0.31609 -0.23812,0.12559 z"
       style="fill:#a9ceea;fill-opacity:1;fill-rule:nonzero;stroke:none;stroke-width:0.0352778"
       id="path1680" />
    <path
       d="m 137.30194,20.27737 -0.48048,-0.19085 0.3249,-0.10548 z"
       style="fill:#a9ceea;fill-opacity:1;fill-rule:nonzero;stroke:none;stroke-width:0.0352778"
       id="path1682" />
    <path
       d="m 139.40591,22.02821 -0.48049,-0.1905 0.48578,0.15098 z"
       style="fill:#a9ceea;fill-opacity:1;fill-rule:nonzero;stroke:none;stroke-width:0.0352778"
       id="path1684" />
    <path
       d="m 145.65536,14.51898 -0.48048,-0.19086 0.15593,0.29634 z"
       style="fill:#a9ceea;fill-opacity:1;fill-rule:nonzero;stroke:none;stroke-width:0.0352778"
       id="path1686" />
    <path
       d="m 139.67084,12.65913 -0.48048,-0.1905 0.24236,0.31609 z"
       style="fill:#a9ceea;fill-opacity:1;fill-rule:nonzero;stroke:none;stroke-width:0.0352778"
       id="path1688" />
    <path
       d="m 143.5514,12.76779 -0.48049,-0.1905 -0.005,0.0395 z"
       style="fill:#a9ceea;fill-opacity:1;fill-rule:nonzero;stroke:none;stroke-width:0.0352778"
       id="path1690" />
  </g>
</svg>
